<svg width="38" height="42" viewBox="0 0 38 42" fill="none" xmlns="http://www.w3.org/2000/svg">
<path fill-rule="evenodd" clip-rule="evenodd" d="M19.031 9.99902C14.8066 9.99902 11.3821 13.5319 11.3821 17.8898V18.6525C11.3821 19.0445 11.314 19.4334 11.1811 19.8006L10.2073 22.492C9.41767 24.6743 10.9819 26.999 13.2399 26.999H24.7604C26.9958 26.999 28.5583 24.7171 27.8111 22.5437L26.864 19.7883C26.7422 19.4341 26.68 19.0609 26.68 18.6851V17.8898C26.68 13.5319 23.2555 9.99902 19.031 9.99902Z" fill="#FFC978" stroke="#1E232C" stroke-width="1.4"/>
<path fill-rule="evenodd" clip-rule="evenodd" d="M16.5597 28.0553C16.9882 27.8648 17.4516 28.1737 17.5945 28.7452C17.7343 29.3041 17.9567 29.5287 18.1705 29.6498C18.4246 29.7941 18.7178 29.8174 19 29.8174C19.2823 29.8174 19.5754 29.7941 19.8295 29.6498C20.0432 29.5287 20.2658 29.3041 20.4055 28.7452C20.5484 28.1737 21.0117 27.8648 21.4404 28.0553C21.8691 28.2458 22.1007 28.8635 21.9578 29.4351C21.6613 30.6215 21.0897 31.3059 20.4701 31.6575C19.8908 31.986 19.3113 31.999 19 31.999C18.6887 31.999 18.1091 31.986 17.53 31.6575C16.9104 31.3059 16.3388 30.6215 16.0422 29.4351C15.8994 28.8635 16.131 28.2458 16.5597 28.0553Z" fill="#1E232C"/>
</svg>
