<svg width="142" height="119" viewBox="0 0 142 119" fill="none" xmlns="http://www.w3.org/2000/svg">
<path d="M6.7959 20C6.7959 9.50659 15.3025 1 25.7959 1H48.2508C52.9736 1 57.5271 2.75891 61.0235 5.93378L65.7141 10.193C69.5786 13.7021 74.6114 15.6462 79.8313 15.6462H122C132.493 15.6462 141 24.1527 141 34.6462V99C141 109.493 132.493 118 122 118H25.7959C15.3025 118 6.7959 109.493 6.7959 99V20Z" fill="#B6D9D5" stroke="#1E232C" stroke-width="2"/>
<path d="M1 20C1 9.50659 9.50659 1 20 1H42.0583C46.8043 1 51.3785 2.77621 54.8807 5.97912L59.4337 10.1429C63.3046 13.683 68.3603 15.6462 73.6059 15.6462H115.238C125.731 15.6462 134.238 24.1527 134.238 34.6462V99C134.238 109.493 125.732 118 115.238 118H20C9.50659 118 1 109.493 1 99V20Z" fill="#DEFCF9" stroke="#1E232C" stroke-width="2"/>
<path d="M64.8587 47.8013L64.8587 47.8012C66.4759 45.2049 70.1322 45.2049 71.7496 47.8013L75.121 53.2135C75.5658 53.9276 76.2596 54.4513 77.0712 54.671L77.0712 54.671L83.1051 56.3047C85.9775 57.0825 87.1631 60.7129 85.2371 63.1402L85.2371 63.1402L81.287 68.1189C81.2869 68.119 81.2869 68.119 81.2869 68.119C80.7646 68.7773 80.5044 69.6083 80.5512 70.448L80.5512 70.448L80.909 76.8701C81.0843 80.0173 78.0685 82.1913 75.3321 81.0919L75.3321 81.0919L69.519 78.7565L69.519 78.7565C68.7382 78.4429 67.8699 78.4429 67.0891 78.7565L67.0891 78.7565L61.2762 81.0919C58.5396 82.1913 55.5239 80.0173 55.6992 76.8701L56.0569 70.448L56.0569 70.448C56.1037 69.6083 55.8435 68.7773 55.3214 68.1191L55.3213 68.119L51.371 63.1402L51.371 63.1402C49.445 60.7129 50.6307 57.0825 53.503 56.3047L59.5369 54.671L59.5369 54.671C60.3485 54.4513 61.0422 53.9276 61.4871 53.2137L61.4872 53.2136L64.8587 47.8013Z" fill="#FFEC8A" stroke="black" stroke-width="2"/>
</svg>
