<svg width="37" height="30" viewBox="0 0 37 30" fill="none" xmlns="http://www.w3.org/2000/svg">
<rect x="8.59961" y="3.2998" width="20.8" height="23.4" fill="current"/>
<path fill-rule="evenodd" clip-rule="evenodd" d="M16.4 15.4315V3.3H17.9167V13.9012L20.5602 12.0867C20.678 12.0061 20.8127 11.9635 20.95 11.9635C21.0873 11.9635 21.222 12.0061 21.3398 12.0867L23.9833 13.9012V3.3H25.5V15.4315C25.5 15.5849 25.4645 15.7354 25.3969 15.8679C25.3294 16.0004 25.2323 16.11 25.1156 16.1856C24.9988 16.2612 24.8666 16.3001 24.7325 16.2982C24.5983 16.2963 24.467 16.2538 24.3519 16.175L20.95 13.8423L17.5481 16.1768C17.4329 16.2556 17.3014 16.2982 17.1672 16.2999C17.0329 16.3017 16.9006 16.2627 16.7838 16.1869C16.667 16.1111 16.5699 16.0013 16.5025 15.8685C16.4351 15.7358 16.3997 15.585 16.4 15.4315Z" fill="#1E232C"/>
<path d="M10.6429 2H27.3571C28.2437 2 29.094 2.34241 29.7209 2.9519C30.3478 3.5614 30.7 4.38805 30.7 5.25V24.75C30.7 25.612 30.3478 26.4386 29.7209 27.0481C29.094 27.6576 28.2437 28 27.3571 28H10.6429C9.75628 28 8.90601 27.6576 8.2791 27.0481C7.65219 26.4386 7.3 25.612 7.3 24.75V23.125H8.97143V24.75C8.97143 25.181 9.14753 25.5943 9.46098 25.899C9.77443 26.2038 10.1996 26.375 10.6429 26.375H27.3571C27.8004 26.375 28.2256 26.2038 28.539 25.899C28.8525 25.5943 29.0286 25.181 29.0286 24.75V5.25C29.0286 4.81902 28.8525 4.4057 28.539 4.10095C28.2256 3.7962 27.8004 3.625 27.3571 3.625H10.6429C10.1996 3.625 9.77443 3.7962 9.46098 4.10095C9.14753 4.4057 8.97143 4.81902 8.97143 5.25V6.875H7.3V5.25C7.3 4.38805 7.65219 3.5614 8.2791 2.9519C8.90601 2.34241 9.75628 2 10.6429 2Z" fill="#1E232C"/>
<path d="M7.73333 10.125V9.3125C7.73333 9.09701 7.82464 8.89035 7.98717 8.73798C8.14971 8.5856 8.37015 8.5 8.6 8.5C8.82985 8.5 9.05029 8.5856 9.21283 8.73798C9.37536 8.89035 9.46667 9.09701 9.46667 9.3125V10.125H10.3333C10.5632 10.125 10.7836 10.2106 10.9462 10.363C11.1087 10.5153 11.2 10.722 11.2 10.9375C11.2 11.153 11.1087 11.3597 10.9462 11.512C10.7836 11.6644 10.5632 11.75 10.3333 11.75H6.86667C6.63681 11.75 6.41637 11.6644 6.25384 11.512C6.09131 11.3597 6 11.153 6 10.9375C6 10.722 6.09131 10.5153 6.25384 10.363C6.41637 10.2106 6.63681 10.125 6.86667 10.125H7.73333ZM7.73333 15V14.1875C7.73333 13.972 7.82464 13.7653 7.98717 13.613C8.14971 13.4606 8.37015 13.375 8.6 13.375C8.82985 13.375 9.05029 13.4606 9.21283 13.613C9.37536 13.7653 9.46667 13.972 9.46667 14.1875V15H10.3333C10.5632 15 10.7836 15.0856 10.9462 15.238C11.1087 15.3903 11.2 15.597 11.2 15.8125C11.2 16.028 11.1087 16.2347 10.9462 16.387C10.7836 16.5394 10.5632 16.625 10.3333 16.625H6.86667C6.63681 16.625 6.41637 16.5394 6.25384 16.387C6.09131 16.2347 6 16.028 6 15.8125C6 15.597 6.09131 15.3903 6.25384 15.238C6.41637 15.0856 6.63681 15 6.86667 15H7.73333ZM7.73333 19.875V19.0625C7.73333 18.847 7.82464 18.6403 7.98717 18.488C8.14971 18.3356 8.37015 18.25 8.6 18.25C8.82985 18.25 9.05029 18.3356 9.21283 18.488C9.37536 18.6403 9.46667 18.847 9.46667 19.0625V19.875H10.3333C10.5632 19.875 10.7836 19.9606 10.9462 20.113C11.1087 20.2653 11.2 20.472 11.2 20.6875C11.2 20.903 11.1087 21.1097 10.9462 21.262C10.7836 21.4144 10.5632 21.5 10.3333 21.5H6.86667C6.63681 21.5 6.41637 21.4144 6.25384 21.262C6.09131 21.1097 6 20.903 6 20.6875C6 20.472 6.09131 20.2653 6.25384 20.113C6.41637 19.9606 6.63681 19.875 6.86667 19.875H7.73333Z" fill="#1E232C"/>
</svg>
