<svg width="142" height="122" viewBox="0 0 142 122" fill="none" xmlns="http://www.w3.org/2000/svg">
<path d="M6.7959 20C6.7959 9.5066 15.3025 1 25.7959 1H48.1549C52.9323 1 57.5344 2.79976 61.0444 6.04074L65.681 10.322C69.5604 13.9041 74.6469 15.8933 79.9272 15.8933H122C132.493 15.8933 141 24.3999 141 34.8933V101.008C141 111.502 132.493 120.008 122 120.008H25.7959C15.3025 120.008 6.7959 111.502 6.7959 101.008V20Z" fill="#F8F8FA" stroke="#1E232C" stroke-width="2"/>
<path d="M1 20C1 9.5066 9.50659 1 20 1H41.9622C46.7629 1 51.3856 2.81729 54.9011 6.08656L59.4011 10.2714C63.2866 13.8848 68.396 15.8933 73.702 15.8933H115.238C125.731 15.8933 134.238 24.3999 134.238 34.8933V101.008C134.238 111.502 125.732 120.008 115.238 120.008H20C9.50659 120.008 1 111.502 1 101.008V20Z" fill="current" stroke="#1E232C" stroke-width="2"/>
</svg>
