<svg width="16" height="16" viewBox="0 0 16 16" fill="none" xmlns="http://www.w3.org/2000/svg">
<g id="Union">
<path fill-rule="evenodd" clip-rule="evenodd" d="M5.17105 2.34311C4.39 1.56206 3.12367 1.56206 2.34262 2.34311C1.56157 3.12416 1.56157 4.39049 2.34262 5.17154L5.17133 8.00024L2.34292 10.8286C1.56188 11.6097 1.56188 12.876 2.34292 13.6571C3.12397 14.4381 4.3903 14.4381 5.17135 13.6571L7.99976 10.8287L10.8279 13.6568C11.609 14.4379 12.8753 14.4379 13.6563 13.6568C14.4374 12.8758 14.4374 11.6094 13.6563 10.8284L10.8282 8.00024L13.6566 5.17179C14.4377 4.39075 14.4377 3.12442 13.6566 2.34337C12.8756 1.56232 11.6093 1.56232 10.8282 2.34337L7.99976 5.17182L5.17105 2.34311Z" fill="#FD99BD"/>
<path d="M2.34262 2.34311L3.04973 3.05022L2.34262 2.34311ZM5.17105 2.34311L5.87816 1.636V1.636L5.17105 2.34311ZM2.34262 5.17154L1.63552 5.87864H1.63552L2.34262 5.17154ZM5.17133 8.00024L5.87844 8.70735L6.58554 8.00024L5.87844 7.29314L5.17133 8.00024ZM2.34292 10.8286L3.05003 11.5358L3.05003 11.5358L2.34292 10.8286ZM2.34292 13.6571L3.05003 12.95H3.05003L2.34292 13.6571ZM5.17135 13.6571L5.87846 14.3642L5.17135 13.6571ZM7.99976 10.8287L8.70686 10.1216L7.99976 9.41446L7.29265 10.1216L7.99976 10.8287ZM13.6563 10.8284L12.9492 11.5355L13.6563 10.8284ZM10.8282 8.00024L10.1211 7.29314L9.41397 8.00024L10.1211 8.70735L10.8282 8.00024ZM13.6566 5.17179L12.9495 4.46469L13.6566 5.17179ZM13.6566 2.34337L12.9495 3.05047L12.9495 3.05047L13.6566 2.34337ZM10.8282 2.34337L11.5353 3.05047V3.05047L10.8282 2.34337ZM7.99976 5.17182L7.29265 5.87892L7.99976 6.58603L8.70686 5.87892L7.99976 5.17182ZM3.04973 3.05022C3.44025 2.65969 4.07342 2.65969 4.46394 3.05022L5.87816 1.636C4.70658 0.464431 2.80709 0.464431 1.63552 1.636L3.04973 3.05022ZM3.04973 4.46443C2.6592 4.07391 2.6592 3.44074 3.04973 3.05022L1.63552 1.636C0.463943 2.80758 0.463943 4.70707 1.63552 5.87864L3.04973 4.46443ZM5.87844 7.29314L3.04973 4.46443L1.63552 5.87864L4.46422 8.70735L5.87844 7.29314ZM3.05003 11.5358L5.87844 8.70735L4.46422 7.29314L1.63582 10.1215L3.05003 11.5358ZM3.05003 12.95C2.65951 12.5594 2.65951 11.9263 3.05003 11.5358L1.63582 10.1215C0.464245 11.2931 0.464245 13.1926 1.63582 14.3642L3.05003 12.95ZM4.46424 12.95C4.07372 13.3405 3.44056 13.3405 3.05003 12.95L1.63582 14.3642C2.80739 15.5358 4.70689 15.5358 5.87846 14.3642L4.46424 12.95ZM7.29265 10.1216L4.46424 12.95L5.87846 14.3642L8.70686 11.5358L7.29265 10.1216ZM11.535 12.9497L8.70686 10.1216L7.29265 11.5358L10.1208 14.3639L11.535 12.9497ZM12.9492 12.9497C12.5587 13.3402 11.9255 13.3402 11.535 12.9497L10.1208 14.3639C11.2924 15.5355 13.1919 15.5355 14.3634 14.3639L12.9492 12.9497ZM12.9492 11.5355C13.3397 11.926 13.3397 12.5592 12.9492 12.9497L14.3634 14.3639C15.535 13.1924 15.535 11.2929 14.3634 10.1213L12.9492 11.5355ZM10.1211 8.70735L12.9492 11.5355L14.3634 10.1213L11.5353 7.29314L10.1211 8.70735ZM12.9495 4.46469L10.1211 7.29314L11.5353 8.70735L14.3637 5.8789L12.9495 4.46469ZM12.9495 3.05047C13.34 3.441 13.34 4.07416 12.9495 4.46469L14.3637 5.8789C15.5353 4.70733 15.5353 2.80783 14.3637 1.63626L12.9495 3.05047ZM11.5353 3.05047C11.9258 2.65995 12.559 2.65995 12.9495 3.05047L14.3637 1.63626C13.1922 0.464687 11.2927 0.464687 10.1211 1.63626L11.5353 3.05047ZM8.70686 5.87892L11.5353 3.05047L10.1211 1.63626L7.29265 4.46471L8.70686 5.87892ZM4.46394 3.05022L7.29265 5.87892L8.70686 4.46471L5.87816 1.636L4.46394 3.05022Z" fill="#1E232C"/>
</g>
</svg>
