<svg width="18" height="18" viewBox="0 0 18 18" fill="none" xmlns="http://www.w3.org/2000/svg">
<mask id="path-1-inside-1_550_6165" fill="white">
<path fill-rule="evenodd" clip-rule="evenodd" d="M6 15.3002C6 16.7914 7.34329 18 9.00018 18C10.6567 18 12 16.7914 12 15.3002V12H15.3002C16.7914 12 18 10.6567 18 8.99982C18 7.34329 16.7914 6 15.3002 6H12V2.70016C12 1.20896 10.6567 0 8.99982 0C7.34329 0 6 1.20896 6 2.70016V6H2.70016C1.20896 6 0 7.34329 0 9.00018C0 10.6567 1.20896 12 2.70016 12H6V15.3002Z"/>
</mask>
<path fill-rule="evenodd" clip-rule="evenodd" d="M6 15.3002C6 16.7914 7.34329 18 9.00018 18C10.6567 18 12 16.7914 12 15.3002V12H15.3002C16.7914 12 18 10.6567 18 8.99982C18 7.34329 16.7914 6 15.3002 6H12V2.70016C12 1.20896 10.6567 0 8.99982 0C7.34329 0 6 1.20896 6 2.70016V6H2.70016C1.20896 6 0 7.34329 0 9.00018C0 10.6567 1.20896 12 2.70016 12H6V15.3002Z" fill="#9EA9F0"/>
<path d="M12 12V10.6H10.6V12H12ZM12 6H10.6V7.4H12V6ZM6 6V7.4H7.4V6H6ZM6 12H7.4V10.6H6V12ZM9.00018 16.6C7.97387 16.6 7.4 15.8829 7.4 15.3002H4.6C4.6 17.6999 6.71271 19.4 9.00018 19.4V16.6ZM10.6 15.3002C10.6 15.883 10.026 16.6 9.00018 16.6V19.4C11.2874 19.4 13.4 17.6998 13.4 15.3002H10.6ZM10.6 12V15.3002H13.4V12H10.6ZM15.3002 10.6H12V13.4H15.3002V10.6ZM16.6 8.99982C16.6 10.0261 15.8829 10.6 15.3002 10.6V13.4C17.6999 13.4 19.4 11.2873 19.4 8.99982H16.6ZM15.3002 7.4C15.883 7.4 16.6 7.97398 16.6 8.99982H19.4C19.4 6.7126 17.6998 4.6 15.3002 4.6V7.4ZM12 7.4H15.3002V4.6H12V7.4ZM10.6 2.70016V6H13.4V2.70016H10.6ZM8.99982 1.4C10.0259 1.4 10.6 2.11726 10.6 2.70016H13.4C13.4 0.300661 11.2875 -1.4 8.99982 -1.4V1.4ZM7.4 2.70016C7.4 2.11716 7.9742 1.4 8.99982 1.4V-1.4C6.71238 -1.4 4.6 0.300761 4.6 2.70016H7.4ZM7.4 6V2.70016H4.6V6H7.4ZM2.70016 7.4H6V4.6H2.70016V7.4ZM1.4 9.00018C1.4 7.97409 2.11726 7.4 2.70016 7.4V4.6C0.300661 4.6 -1.4 6.71249 -1.4 9.00018H1.4ZM2.70016 10.6C2.11716 10.6 1.4 10.0258 1.4 9.00018H-1.4C-1.4 11.2876 0.300761 13.4 2.70016 13.4V10.6ZM6 10.6H2.70016V13.4H6V10.6ZM7.4 15.3002V12H4.6V15.3002H7.4Z" fill="#1E232C" mask="url(#path-1-inside-1_550_6165)"/>
</svg>
