<svg width="40" height="34" viewBox="0 0 40 42" fill="none" xmlns="http://www.w3.org/2000/svg">
<path fill-rule="evenodd" clip-rule="evenodd" d="M17.6094 11.125V13.2188C17.6094 13.6848 17.2316 14.0625 16.7656 14.0625C16.2997 14.0625 15.9219 13.6848 15.9219 13.2188V10.8438C15.9219 10.0671 16.5515 9.4375 17.3282 9.4375H22.6719C23.4486 9.4375 24.0782 10.0671 24.0782 10.8438V13.2188C24.0782 13.6848 23.7004 14.0625 23.2344 14.0625C22.7684 14.0625 22.3906 13.6848 22.3906 13.2188V11.125H17.6094Z" fill="#1E232C"/>
<rect x="10" y="13.0625" width="20" height="3" rx="1.5" fill="#1E232C"/>
<path d="M27.8615 16.5417C27.9193 15.9536 27.4572 15.4438 26.8663 15.4438H13.1259C12.5378 15.4438 12.0766 15.949 12.1301 16.5347L13.3418 29.8149C13.3684 30.107 13.522 30.3726 13.7618 30.5415L14.6285 31.1521C14.7971 31.2709 14.9982 31.3346 15.2044 31.3346H24.899C25.0397 31.3346 25.1788 31.3049 25.3073 31.2475L25.9357 30.9664C26.2635 30.8198 26.4875 30.5088 26.5227 30.1514L27.8615 16.5417Z" fill="#F86467"/>
<path fill-rule="evenodd" clip-rule="evenodd" d="M24.2394 30.7204C24.971 30.7204 25.5822 30.117 25.65 29.3276L26.8036 15.8982C26.8472 15.3918 27.2613 15.0194 27.7287 15.0665C28.1962 15.1137 28.5398 15.5626 28.4963 16.0691L27.3427 29.4983C27.1935 31.2348 25.8488 32.5625 24.2394 32.5625H15.7605C14.1512 32.5625 12.8065 31.2348 12.6573 29.4983L11.5037 16.0691C11.4602 15.5626 11.8039 15.1137 12.2713 15.0665C12.7387 15.0194 13.1529 15.3918 13.1964 15.8982L14.35 29.3276C14.4178 30.117 15.029 30.7204 15.7605 30.7204H24.2394Z" fill="#1E232C"/>
<path d="M16.554 22.0581L17.4231 28.5108" stroke="#1E232C" stroke-linecap="round"/>
<path d="M23.3206 22.0581L22.4514 28.5108" stroke="#1E232C" stroke-linecap="round"/>
<path d="M19.9375 22.0469L19.9375 28.522" stroke="#1E232C" stroke-linecap="round"/>
</svg>
