<svg width="40" height="42" viewBox="0 0 40 42" fill="none" xmlns="http://www.w3.org/2000/svg">
<path d="M25.1351 11.6529L25.1352 11.6529C26.1753 12.2672 26.5433 13.6416 25.9336 14.722L21.4541 22.6584C20.8493 23.7299 19.5242 24.0844 18.4937 23.4759C18.4937 23.4759 18.4936 23.4758 18.4936 23.4758L18.0348 23.2048L18.0347 23.2047C16.9946 22.5905 16.6265 21.216 17.2363 20.1356L21.7158 12.1993C21.7158 12.1993 21.7158 12.1993 21.7158 12.1993C22.3206 11.1278 23.6457 10.7733 24.6762 11.3818C24.6762 11.3818 24.6762 11.3818 24.6762 11.3819L25.1351 11.6529Z" fill="#90E3FB" stroke="black" stroke-width="1.4"/>
<path d="M13.1475 24.5898V26.0898V28.5898L14.1064 30.5898L16.5037 30.0898L18.901 28.5898L20.3393 27.0898V25.0898L18.901 23.5898L17.4626 22.5898H15.5448L14.1064 23.0898L13.1475 24.5898Z" fill="#F8F8FA"/>
<path fill-rule="evenodd" clip-rule="evenodd" d="M14.1526 24.4628C14.9631 23.0269 16.758 22.5349 18.1618 23.364C19.5654 24.193 20.0464 26.029 19.236 27.4649C19.122 27.6668 18.8815 27.9224 18.4904 28.2115C18.1098 28.4928 17.6379 28.7686 17.1249 29.0282C16.5698 29.3091 15.9866 29.5612 15.4528 29.7733L16.7281 27.537C16.9462 27.1545 16.8199 26.6635 16.4461 26.4404C16.0721 26.2173 15.5921 26.3465 15.374 26.729L14.0913 28.9783C14.0034 28.3968 13.9245 27.7504 13.8846 27.1146C13.8479 26.5303 13.8455 25.9744 13.8933 25.4966C13.9425 25.0056 14.0387 24.6647 14.1526 24.4628ZM13.2843 31.4561C13.0331 31.2388 12.848 30.9352 12.777 30.5732C12.6199 29.7725 12.4 28.4887 12.3201 27.2174C12.2803 26.5819 12.274 25.9303 12.3339 25.3332C12.3924 24.7493 12.5202 24.148 12.795 23.661C14.0383 21.4582 16.7921 20.7034 18.9456 21.9752C21.099 23.2471 21.8369 26.0638 20.5936 28.2667C20.3188 28.7536 19.8735 29.1675 19.4085 29.5113C18.9328 29.8628 18.378 30.1831 17.8201 30.4655C16.7038 31.0304 15.507 31.4775 14.7504 31.7387C14.4017 31.8591 14.0451 31.8442 13.731 31.7238C13.6473 31.707 13.5648 31.6759 13.4869 31.6294C13.4081 31.5823 13.3402 31.5234 13.2843 31.4561Z" fill="black"/>
</svg>
