<svg width="14" height="18" viewBox="0 0 14 18" fill="none" xmlns="http://www.w3.org/2000/svg">
<path d="M12.373 1.04546L12.373 1.04545L11.9341 0.817863C10.8491 0.255281 9.4862 0.608622 8.89309 1.53114L12.373 1.04546ZM12.373 1.04546C13.4296 1.59335 13.7376 2.75169 13.1703 3.63422C13.1703 3.63423 13.1703 3.63423 13.1703 3.63423L8.88637 10.2981L12.373 1.04546ZM4.60917 8.19502L8.89308 1.53115L8.88636 10.2981C8.29326 11.2206 6.93035 11.574 5.84539 11.0115C5.84537 11.0114 5.84536 11.0114 5.84534 11.0114L5.40649 10.7838L5.40644 10.7838C4.34981 10.2359 4.04185 9.07757 4.60916 8.19503C4.60916 8.19502 4.60917 8.19502 4.60917 8.19502Z" fill="#F7D35C" stroke="black" stroke-width="1.09657"/>
<path d="M1.44238 12.0402V13.2151V15.1732L2.19347 16.7397L4.07118 16.3481L5.9489 15.1732L7.07553 13.9983V12.4318L5.9489 11.2569L4.82227 10.4736H3.3201L2.19347 10.8653L1.44238 12.0402Z" fill="#F8F8FA"/>
<path fill-rule="evenodd" clip-rule="evenodd" d="M2.2298 11.9406C2.86461 10.816 4.2705 10.4306 5.37001 11.08C6.46945 11.7293 6.8462 13.1674 6.21138 14.2921C6.12215 14.4502 5.93378 14.6504 5.62741 14.8769C5.3293 15.0972 4.95969 15.3132 4.55786 15.5166C4.12318 15.7366 3.66641 15.934 3.24836 16.1001L4.24726 14.3484C4.41813 14.0488 4.31921 13.6643 4.02636 13.4895C3.73344 13.3148 3.35752 13.416 3.18665 13.7156L2.18181 15.4777C2.1129 15.0222 2.05113 14.5158 2.01987 14.0177C1.9911 13.56 1.98922 13.1246 2.0267 12.7504C2.06523 12.3658 2.14057 12.0988 2.2298 11.9406ZM1.55068 17.4191C1.35336 17.2489 1.20803 17.0107 1.15229 16.7267C1.02926 16.0995 0.857037 15.094 0.794471 14.0982C0.763226 13.6005 0.758344 13.0901 0.805212 12.6224C0.851028 12.165 0.951147 11.6941 1.16641 11.3126C2.14027 9.58724 4.29716 8.99604 5.98395 9.99219C7.67066 10.9884 8.24863 13.1946 7.27477 14.9201C7.05951 15.3015 6.71078 15.6257 6.3465 15.8949C5.97396 16.1703 5.53938 16.4211 5.1024 16.6423C4.22806 17.0848 3.29063 17.435 2.69802 17.6396C2.42464 17.734 2.14498 17.7222 1.89884 17.6277C1.83356 17.6145 1.76929 17.5901 1.70858 17.5539C1.6472 17.5172 1.59433 17.4714 1.55068 17.4191Z" fill="black"/>
</svg>
