<svg width="14" height="18" viewBox="0 0 15 22" fill="none" xmlns="http://www.w3.org/2000/svg">
<path d="M13.1342 1.6529L13.1342 1.65291C14.1743 2.26718 14.5424 3.64159 13.9326 4.722L9.4531 12.6584C8.84828 13.7299 7.52318 14.0844 6.49271 13.4759C6.49269 13.4759 6.49267 13.4758 6.49265 13.4758L6.03377 13.2048L6.03371 13.2047C4.9936 12.5905 4.62555 11.216 5.23533 10.1356L9.71481 2.19927C9.71481 2.19926 9.71481 2.19926 9.71482 2.19925C10.3196 1.12777 11.6448 0.773286 12.6752 1.38184C12.6752 1.38184 12.6753 1.38185 12.6753 1.38185L13.1342 1.6529Z" fill="#F7D35C" stroke="black" stroke-width="1.4"/>
<path d="M1.14648 14.5898V16.0898V18.5898L2.1054 20.5898L4.5027 20.0898L6.89999 18.5898L8.33837 17.0898V15.0898L6.89999 13.5898L5.46162 12.5898H3.54378L2.1054 13.0898L1.14648 14.5898Z" fill="#F8F8FA"/>
<path fill-rule="evenodd" clip-rule="evenodd" d="M2.15215 14.4628C2.96263 13.0269 4.75753 12.5349 6.16129 13.364C7.56496 14.193 8.04595 16.029 7.23547 17.4649C7.12155 17.6668 6.88106 17.9224 6.48991 18.2115C6.10932 18.4928 5.63743 18.7686 5.12441 19.0282C4.56936 19.3091 3.9861 19.5612 3.45231 19.7733L4.72759 17.537C4.94575 17.1545 4.81946 16.6635 4.44558 16.4404C4.0716 16.2173 3.59166 16.3465 3.37351 16.729L2.09085 18.9783C2.00288 18.3968 1.92404 17.7504 1.88413 17.1146C1.84741 16.5303 1.84501 15.9744 1.89286 15.4966C1.94205 15.0056 2.03823 14.6647 2.15215 14.4628ZM1.28383 21.4561C1.03256 21.2388 0.847534 20.9352 0.776485 20.5732C0.619414 19.7725 0.399535 18.4887 0.319657 17.2174C0.279766 16.5819 0.273533 15.9303 0.333369 15.3332C0.391863 14.7493 0.519687 14.148 0.794513 13.661C2.03785 11.4582 4.79157 10.7034 6.94511 11.9752C9.09855 13.2471 9.83644 16.0638 8.59311 18.2667C8.31828 18.7536 7.87306 19.1675 7.40798 19.5113C6.93236 19.8628 6.37753 20.1831 5.81963 20.4655C4.70335 21.0304 3.50653 21.4775 2.74994 21.7387C2.40125 21.8591 2.04458 21.8442 1.73055 21.7238C1.6468 21.707 1.56432 21.6759 1.48645 21.6294C1.40759 21.5823 1.33975 21.5234 1.28383 21.4561Z" fill="black"/>
</svg>
