<svg width="38" height="42" viewBox="0 0 38 42" fill="none" xmlns="http://www.w3.org/2000/svg">
<path d="M27.3 18.3243C27.3 22.4086 25.1815 25.6622 22.996 27.9298C21.9074 29.0592 20.8169 29.9281 19.9987 30.5141C19.5901 30.8067 19.251 31.0277 19.016 31.1745C19.0106 31.1778 19.0053 31.1811 19 31.1844C18.9947 31.1811 18.9894 31.1778 18.984 31.1745C18.749 31.0277 18.4099 30.8067 18.0013 30.5141C17.1831 29.9281 16.0926 29.0592 15.004 27.9298C12.8185 25.6622 10.7 22.4086 10.7 18.3243C10.7 14.164 14.3636 10.7 19 10.7C23.6364 10.7 27.3 14.164 27.3 18.3243Z" fill="#FFEC43" stroke="#1E232C" stroke-width="1.4"/>
<path d="M18.5519 15.9049C18.7356 15.534 19.2644 15.534 19.4481 15.9049L20.0616 17.1439C20.1345 17.291 20.2748 17.3929 20.4372 17.4168L21.8052 17.6174C22.2146 17.6775 22.3781 18.1805 22.0821 18.4697L21.0933 19.4361C20.9759 19.5508 20.9223 19.7158 20.9499 19.8776L21.1818 21.2407C21.2512 21.6486 20.8233 21.9595 20.4568 21.7674L19.2321 21.1256C19.0867 21.0495 18.9133 21.0495 18.7679 21.1256L17.5432 21.7674C17.1767 21.9595 16.7488 21.6486 16.8182 21.2407L17.0501 19.8776C17.0777 19.7158 17.0241 19.5508 16.9067 19.4361L15.9179 18.4697C15.6219 18.1805 15.7854 17.6775 16.1948 17.6174L17.5628 17.4168C17.7252 17.3929 17.8655 17.291 17.9384 17.1439L18.5519 15.9049Z" fill="white"/>
</svg>
