<svg width="21" height="18" viewBox="0 0 21 18" fill="none" xmlns="http://www.w3.org/2000/svg">
<path d="M20.56 3.73C20.27 3 19.84 2.34 19.29 1.78C18.74 1.22 18.1 0.77 17.37 0.47C15.92 -0.14 14.27 -0.14 12.83 0.47C12.11 0.78 11.47 1.22 10.92 1.78C10.76 1.95 10.56 1.97 10.39 1.93C10.26 1.85 10.13 1.76 9.98 1.68C8.89 0.62 7.41 0 5.9 0C3.8 0 2.29 1.22 1.71 1.78C0.61 2.91 0 4.42 0 6.01C0 7.6 0.61 9.11 1.71 10.25L8.4 17.12C8.95 17.68 9.69 17.99 10.49 17.99C11.29 17.99 12.03 17.68 12.58 17.11L19.27 10.24C19.82 9.68 20.24 9.02 20.54 8.29C20.84 7.56 20.99 6.79 20.99 6C20.99 5.21 20.84 4.44 20.55 3.71L20.56 3.73Z" fill="#F9B9B9"/>
</svg>
