<svg width="12" height="12" viewBox="0 0 26 24" fill="none" xmlns="http://www.w3.org/2000/svg">
<path fill-rule="evenodd" clip-rule="evenodd" d="M18.2569 1C17.3646 1 16.4822 1.19306 15.6608 1.56672C14.8395 1.94031 14.0962 2.48659 13.4725 3.17158C13.2188 3.45007 12.7804 3.44988 12.5267 3.17136C11.2663 1.78772 9.54645 1.00062 7.74261 1.00062C5.93877 1.00062 4.21891 1.78772 2.95848 3.17136C1.69957 4.55343 1 6.41786 1 8.35231C1 10.2868 1.69957 12.1512 2.95848 13.5332L10.6062 21.9286C11.9074 23.3571 14.092 23.3571 15.3932 21.9286L23.0407 13.5333C23.6647 12.8487 24.1573 12.0385 24.4927 11.1501C24.8279 10.2618 25 9.31115 25 8.35231C25 7.39337 24.8279 6.44275 24.4927 5.55449C24.1574 4.66624 23.6649 3.85611 23.0411 3.17158C22.4174 2.48651 21.6742 1.94034 20.8529 1.56672C20.0314 1.19306 19.1491 1 18.2569 1Z" fill="#FA9BBD" stroke="#1E232C" stroke-width="1.4" stroke-linejoin="round"/>
</svg>
