<svg width="44" height="42" viewBox="0 0 44 42" fill="none" xmlns="http://www.w3.org/2000/svg">
<path fill-rule="evenodd" clip-rule="evenodd" d="M27.2569 9.99902C26.3646 9.99902 25.4822 10.1921 24.6608 10.5657C23.8395 10.9393 23.0962 11.4856 22.4725 12.1706V12.1706C22.2188 12.4491 21.7804 12.4489 21.5267 12.1704V12.1704C20.2663 10.7867 18.5464 9.99965 16.7426 9.99965C14.9388 9.99965 13.2189 10.7867 11.9585 12.1704C10.6996 13.5524 10 15.4169 10 17.3513C10 19.2858 10.6996 21.1502 11.9585 22.5322L19.6062 30.9276C20.9074 32.3562 23.092 32.3562 24.3932 30.9276L32.0407 22.5323C32.6647 21.8478 33.1573 21.0375 33.4927 20.1491C33.8279 19.2608 34 18.3102 34 17.3513C34 16.3924 33.8279 15.4418 33.4927 14.5535C33.1574 13.6653 32.6649 12.8551 32.0411 12.1706C31.4174 11.4855 30.6742 10.9394 29.8529 10.5657C29.0314 10.1921 28.1491 9.99902 27.2569 9.99902Z" fill="#FA9BBD" stroke="#1E232C" stroke-width="1.4" stroke-linejoin="round"/>
</svg>
