<svg width="39" height="40" viewBox="0 0 39 40" fill="none" xmlns="http://www.w3.org/2000/svg">
<rect x="12" y="11" width="16" height="18" fill="#DEFCF9"/>
<path fill-rule="evenodd" clip-rule="evenodd" d="M18 20.332V11H19.1667V19.1548L21.2002 17.759C21.2908 17.697 21.3944 17.6642 21.5 17.6642C21.6056 17.6642 21.7092 17.697 21.7998 17.759L23.8333 19.1548V11H25V20.332C25 20.4499 24.9727 20.5657 24.9207 20.6676C24.8688 20.7695 24.7941 20.8539 24.7043 20.912C24.6145 20.9702 24.5128 21 24.4096 20.9986C24.3064 20.9972 24.2054 20.9645 24.1168 20.9039L21.5 19.1095L18.8832 20.9052C18.7946 20.9659 18.6934 20.9986 18.5901 21C18.4868 21.0013 18.385 20.9713 18.2952 20.913C18.2054 20.8547 18.1307 20.7702 18.0789 20.6681C18.027 20.566 17.9998 20.45 18 20.332Z" fill="#1E232C"/>
<path d="M13.5714 10H26.4286C27.1106 10 27.7646 10.2634 28.2468 10.7322C28.7291 11.2011 29 11.837 29 12.5V27.5C29 28.163 28.7291 28.7989 28.2468 29.2678C27.7646 29.7366 27.1106 30 26.4286 30H13.5714C12.8894 30 12.2354 29.7366 11.7532 29.2678C11.2709 28.7989 11 28.163 11 27.5V26.25H12.2857V27.5C12.2857 27.8315 12.4212 28.1495 12.6623 28.3839C12.9034 28.6183 13.2304 28.75 13.5714 28.75H26.4286C26.7696 28.75 27.0966 28.6183 27.3377 28.3839C27.5788 28.1495 27.7143 27.8315 27.7143 27.5V12.5C27.7143 12.1685 27.5788 11.8505 27.3377 11.6161C27.0966 11.3817 26.7696 11.25 26.4286 11.25H13.5714C13.2304 11.25 12.9034 11.3817 12.6623 11.6161C12.4212 11.8505 12.2857 12.1685 12.2857 12.5V13.75H11V12.5C11 11.837 11.2709 11.2011 11.7532 10.7322C12.2354 10.2634 12.8894 10 13.5714 10Z" fill="#1E232C"/>
<path d="M11.3333 16.25V15.625C11.3333 15.4592 11.4036 15.3003 11.5286 15.1831C11.6536 15.0658 11.8232 15 12 15C12.1768 15 12.3464 15.0658 12.4714 15.1831C12.5964 15.3003 12.6667 15.4592 12.6667 15.625V16.25H13.3333C13.5101 16.25 13.6797 16.3158 13.8047 16.4331C13.9298 16.5503 14 16.7092 14 16.875C14 17.0408 13.9298 17.1997 13.8047 17.3169C13.6797 17.4342 13.5101 17.5 13.3333 17.5H10.6667C10.4899 17.5 10.3203 17.4342 10.1953 17.3169C10.0702 17.1997 10 17.0408 10 16.875C10 16.7092 10.0702 16.5503 10.1953 16.4331C10.3203 16.3158 10.4899 16.25 10.6667 16.25H11.3333ZM11.3333 20V19.375C11.3333 19.2092 11.4036 19.0503 11.5286 18.9331C11.6536 18.8158 11.8232 18.75 12 18.75C12.1768 18.75 12.3464 18.8158 12.4714 18.9331C12.5964 19.0503 12.6667 19.2092 12.6667 19.375V20H13.3333C13.5101 20 13.6797 20.0658 13.8047 20.1831C13.9298 20.3003 14 20.4592 14 20.625C14 20.7908 13.9298 20.9497 13.8047 21.0669C13.6797 21.1842 13.5101 21.25 13.3333 21.25H10.6667C10.4899 21.25 10.3203 21.1842 10.1953 21.0669C10.0702 20.9497 10 20.7908 10 20.625C10 20.4592 10.0702 20.3003 10.1953 20.1831C10.3203 20.0658 10.4899 20 10.6667 20H11.3333ZM11.3333 23.75V23.125C11.3333 22.9592 11.4036 22.8003 11.5286 22.6831C11.6536 22.5658 11.8232 22.5 12 22.5C12.1768 22.5 12.3464 22.5658 12.4714 22.6831C12.5964 22.8003 12.6667 22.9592 12.6667 23.125V23.75H13.3333C13.5101 23.75 13.6797 23.8158 13.8047 23.9331C13.9298 24.0503 14 24.2092 14 24.375C14 24.5408 13.9298 24.6997 13.8047 24.8169C13.6797 24.9342 13.5101 25 13.3333 25H10.6667C10.4899 25 10.3203 24.9342 10.1953 24.8169C10.0702 24.6997 10 24.5408 10 24.375C10 24.2092 10.0702 24.0503 10.1953 23.9331C10.3203 23.8158 10.4899 23.75 10.6667 23.75H11.3333Z" fill="#1E232C"/>
</svg>
