<svg width="31" height="33" viewBox="0 0 31 33" fill="none" xmlns="http://www.w3.org/2000/svg">
<rect x="12.8906" y="7.73438" width="10.3125" height="17.5312" fill="#FDD5FF"/>
<path d="M13.7212 9.75663C13.7212 9.37726 13.8719 9.01342 14.1402 8.74516C14.4084 8.4769 14.7723 8.3262 15.1517 8.3262H21.4864C21.8658 8.3262 22.2297 8.4769 22.4979 8.74516C22.7662 9.01342 22.9169 9.37726 22.9169 9.75663V23.2436C22.9169 23.623 22.7662 23.9868 22.4979 24.2551C22.2297 24.5233 21.8658 24.674 21.4864 24.674H15.1517C14.7723 24.674 14.4084 24.5233 14.1402 24.2551C13.8719 23.9868 13.7212 23.623 13.7212 23.2436V20.5871C13.7212 20.3161 13.6136 20.0562 13.422 19.8646C13.2303 19.673 12.9705 19.5653 12.6995 19.5653C12.4285 19.5653 12.1686 19.673 11.977 19.8646C11.7854 20.0562 11.6777 20.3161 11.6777 20.5871V23.2436C11.6777 24.165 12.0437 25.0486 12.6952 25.7C13.3467 26.3515 14.2303 26.7175 15.1517 26.7175H21.4864C22.4078 26.7175 23.2914 26.3515 23.9429 25.7C24.5944 25.0486 24.9604 24.165 24.9604 23.2436V9.75663C24.9604 8.83529 24.5944 7.95169 23.9429 7.3002C23.2914 6.64872 22.4078 6.28271 21.4864 6.28271H15.1517C14.6955 6.28271 14.2437 6.37257 13.8222 6.54715C13.4008 6.72173 13.0178 6.97762 12.6952 7.3002C12.3726 7.62279 12.1168 8.00575 11.9422 8.42722C11.7676 8.8487 11.6777 9.30043 11.6777 9.75663V12.4132C11.6777 12.6841 11.7854 12.944 11.977 13.1356C12.1686 13.3273 12.4285 13.4349 12.6995 13.4349C12.9705 13.4349 13.2303 13.3273 13.422 13.1356C13.6136 12.944 13.7212 12.6841 13.7212 12.4132V9.75663Z" fill="#1E232C"/>
<path d="M14.9377 12.7122C15.1293 12.5207 15.3891 12.4131 15.6601 12.4131C15.931 12.4131 16.1908 12.5207 16.3824 12.7122L19.4476 15.7775C19.6392 15.9691 19.7468 16.2289 19.7468 16.4998C19.7468 16.7708 19.6392 17.0306 19.4476 17.2222L16.3824 20.2874C16.1897 20.4735 15.9316 20.5765 15.6637 20.5742C15.3958 20.5719 15.1396 20.4644 14.9501 20.275C14.7607 20.0855 14.6532 19.8293 14.6509 19.5614C14.6486 19.2935 14.7516 19.0354 14.9377 18.8427L16.2588 17.5216H6.99904C6.72805 17.5216 6.46817 17.4139 6.27656 17.2223C6.08494 17.0307 5.97729 16.7708 5.97729 16.4998C5.97729 16.2288 6.08494 15.969 6.27656 15.7774C6.46817 15.5857 6.72805 15.4781 6.99904 15.4781H16.2588L14.9377 14.157C14.7461 13.9654 14.6385 13.7055 14.6385 13.4346C14.6385 13.1637 14.7461 12.9038 14.9377 12.7122Z" fill="#1E232C"/>
</svg>
