<svg width="874" height="814" viewBox="0 0 874 914" fill="none" xmlns="http://www.w3.org/2000/svg">
<path d="M81.5072 877.281L80.823 878.01L81.5072 877.281C80.353 876.198 78.5561 876.198 77.4019 877.281L78.0861 878.01L77.4019 877.281L39.7273 912.629L1 876.293V20C1 9.50659 9.50659 1 20 1H854C864.493 1 873 9.50659 873 20V876.293L834.273 912.629L796.598 877.281C795.444 876.198 793.647 876.198 792.493 877.281L755.502 911.987C755.118 912.348 754.519 912.348 754.134 911.987L717.144 877.281C715.989 876.198 714.192 876.198 713.038 877.281L676.048 911.987C675.663 912.348 675.064 912.348 674.679 911.987L637.689 877.281C636.535 876.198 634.738 876.198 633.584 877.281L596.593 911.987C596.209 912.348 595.61 912.348 595.225 911.987L558.234 877.281C557.08 876.198 555.283 876.198 554.129 877.281L517.139 911.987C516.754 912.348 516.155 912.348 515.77 911.987L478.78 877.281C477.626 876.198 475.829 876.198 474.675 877.281L437.684 911.987C437.299 912.348 436.701 912.348 436.316 911.987L399.325 877.281C398.171 876.198 396.374 876.198 395.22 877.281L358.23 911.987C357.845 912.348 357.246 912.348 356.861 911.987L319.871 877.281C318.717 876.198 316.92 876.198 315.766 877.281L278.775 911.987C278.39 912.348 277.791 912.348 277.407 911.987L240.416 877.281C239.262 876.198 237.465 876.198 236.311 877.281L199.321 911.987C198.936 912.348 198.337 912.348 197.952 911.987L160.962 877.281C159.808 876.198 158.011 876.198 156.856 877.281L119.866 911.987C119.481 912.348 118.882 912.348 118.498 911.987L81.5072 877.281Z" fill="#FBC5DD" stroke="#1E232C" stroke-width="2"/>
</svg>
