<svg width="16" height="16" viewBox="0 0 18 18" fill="none" xmlns="http://www.w3.org/2000/svg">
<path d="M2.33333 17C2.33333 17 1 17 1 15.6667C1 14.3333 2.33333 10.3333 9 10.3333C15.6667 10.3333 17 14.3333 17 15.6667C17 17 15.6667 17 15.6667 17H2.33333ZM9 9C10.0609 9 11.0783 8.57857 11.8284 7.82843C12.5786 7.07828 13 6.06087 13 5C13 3.93913 12.5786 2.92172 11.8284 2.17157C11.0783 1.42143 10.0609 1 9 1C7.93913 1 6.92172 1.42143 6.17157 2.17157C5.42143 2.92172 5 3.93913 5 5C5 6.06087 5.42143 7.07828 6.17157 7.82843C6.92172 8.57857 7.93913 9 9 9Z" fill="#CADEFC" fill-opacity="0.98" stroke="black" stroke-width="1.4"/>
</svg>
