<svg width="40" height="42" viewBox="0 0 40 42" fill="none" xmlns="http://www.w3.org/2000/svg">
<path d="M10.8333 32C10.8333 32 9 32 9 30.1667C9 28.3333 10.8333 22.8333 20 22.8333C29.1667 22.8333 31 28.3333 31 30.1667C31 32 29.1667 32 29.1667 32H10.8333ZM20 21C21.4587 21 22.8576 20.4205 23.8891 19.3891C24.9205 18.3576 25.5 16.9587 25.5 15.5C25.5 14.0413 24.9205 12.6424 23.8891 11.6109C22.8576 10.5795 21.4587 10 20 10C18.5413 10 17.1424 10.5795 16.1109 11.6109C15.0795 12.6424 14.5 14.0413 14.5 15.5C14.5 16.9587 15.0795 18.3576 16.1109 19.3891C17.1424 20.4205 18.5413 21 20 21Z" fill="#CADEFC" fill-opacity="0.98" stroke="black" stroke-width="1.4"/>
</svg>
