<svg width="12" height="12" viewBox="0 0 12 12" fill="none" xmlns="http://www.w3.org/2000/svg">
<path d="M10.924 1.57072L10.9239 1.57069L10.4293 1.07602C9.92796 0.57466 9.11507 0.57466 8.6137 1.07602M10.924 1.57072L8.6137 1.07602M10.924 1.57072C11.4253 2.07209 11.4253 2.88497 10.924 3.38626L3.11322 11.1971L3.53749 11.6213L3.11322 11.1971C3.07654 11.2337 3.02714 11.2549 2.97527 11.2561L1.09095 11.2999L1.09093 11.2999C0.873039 11.305 0.695041 11.127 0.70011 10.909L0.743932 9.02471C0.745137 8.97289 0.766271 8.92349 0.802942 8.88682L0.802962 8.8868L8.6137 1.07602M10.924 1.57072L8.11873 0.581045L8.6137 1.07602" fill="#F7D35C" stroke="#1E232C" stroke-width="1.4"/>
</svg>
