<svg width="42" height="42" viewBox="0 0 42 42" fill="none" xmlns="http://www.w3.org/2000/svg">
<path d="M26.5 11.499L22.5 10.999H16.5L12.5 12.999L11 16.999V24.499L12 26.999C12.5 26.8324 13.6 26.499 14 26.499H22.5C22.9 26.499 28.6667 25.1657 31.5 24.499L31 20.499L31.5 19.499L31 15.999L29.5 13.999L26.5 11.499Z" fill="white"/>
<path d="M13.3601 25.0757C12.1796 26.1509 13.002 25.3405 11.9419 26.2744C11.5425 26.6262 11.4734 27.247 11.7988 27.6682L13.3601 29.6886C13.4441 29.7974 13.5506 29.8866 13.6723 29.9504L16.0968 31.2204C16.2333 31.2919 16.3836 31.3292 16.5378 31.3292H24.89C27.9094 31.3292 30.1628 27.7096 31.1112 25.493C31.1675 25.3614 31.1905 25.2185 31.1818 25.0757L30.9436 21.1459C30.9325 20.963 30.8691 20.7872 30.7607 20.6394L29.6701 19.1523C29.5292 18.9601 29.3215 18.8276 29.0879 18.781L27.7855 18.5205C27.5618 18.4757 27.3295 18.5127 27.1307 18.6245L25.4437 19.5734C25.3437 19.6297 25.2552 19.703 25.1812 19.7906C24.2069 20.9431 22.3827 23.0122 22.073 23.0122C21.6705 23.0122 20.9756 23.8039 19.5 22.999C18.5491 22.4804 17.5239 22.0133 17 21.999C15.3859 22.6662 13.5091 24.9401 13.3601 25.0757Z" fill="#9BF1FD"/>
<path d="M10.7 17.7795C10.7 13.869 13.87 10.699 17.7805 10.699H24.2195C28.13 10.699 31.3 13.869 31.3 17.7795V24.2186C31.3 28.129 28.13 31.299 24.2195 31.299H17.7805C13.87 31.299 10.7 28.129 10.7 24.2186V17.7795ZM17.7805 10.9088C13.9859 10.9088 10.9098 13.9849 10.9098 17.7795V24.2186C10.9098 28.0132 13.9859 31.0894 17.7805 31.0894H24.2195C28.0142 31.0894 31.0903 28.0132 31.0903 24.2186V17.7795C31.0903 13.9849 28.0142 10.9088 24.2195 10.9088H17.7805Z" fill="#9BF1FD" stroke="#1E232C" stroke-width="1.4"/>
<path d="M15.261 16.7066C15.261 15.7596 16.0287 14.992 16.9756 14.992C17.9227 14.992 18.6903 15.7596 18.6903 16.7066C18.6903 17.6535 17.9227 18.4212 16.9756 18.4212C16.0287 18.4212 15.261 17.6536 15.261 16.7066Z" fill="#9BF1FD" stroke="#1E232C" stroke-width="1.4"/>
<path d="M29.165 18.8203L29.1649 18.8203C28.2859 17.9412 26.8605 17.9411 25.9813 18.8203L21.9069 22.8947C21.1097 23.6919 19.8171 23.6919 19.0198 22.8947L18.7016 22.5764C17.8224 21.6972 16.397 21.6973 15.5179 22.5764L15.5179 22.5764L11.6697 26.4246L29.165 18.8203ZM29.165 18.8203L31.135 20.7903L29.165 18.8203ZM29.0166 18.9686L29.0167 18.9686L30.9868 20.9388C31.0278 20.9797 31.0942 20.9797 31.1351 20.9388C31.176 20.8979 31.1761 20.8315 31.1351 20.7904L29.0166 18.9686ZM29.0166 18.9686C28.2194 18.1715 26.9268 18.1714 26.1297 18.9686L22.0552 23.043C21.176 23.9222 19.7507 23.9222 18.8715 23.043L18.5532 22.7247C17.756 21.9275 16.4634 21.9276 15.6662 22.7247L15.6662 22.7247M29.0166 18.9686L15.6662 22.7247M15.6662 22.7247L11.818 26.5729M15.6662 22.7247L11.818 26.5729M11.818 26.5729C11.818 26.5729 11.818 26.5729 11.818 26.5729M11.818 26.5729L11.818 26.5729M11.818 26.5729C11.777 26.6138 11.7106 26.6138 11.6697 26.5729H11.818Z" fill="#9BF1FD" stroke="#1E232C" stroke-width="1.4"/>
</svg>
