<svg width="100" height="100" viewBox="0 0 100 100" fill="none" xmlns="http://www.w3.org/2000/svg">
<path d="M63.0952 27.3809L53.5714 26.1904H39.2857L29.7619 30.9523L26.1904 40.4761V58.3333L28.5714 64.2857C29.7619 63.8888 32.3809 63.0952 33.3333 63.0952H53.5714C54.5238 63.0952 68.2539 59.9206 75 58.3333L73.8095 48.8095L75 46.4285L73.8095 38.0952L70.238 33.3333L63.0952 27.3809Z" fill="#8B8E97"/>
<path d="M31.8095 59.7065C28.9988 62.2664 30.9569 60.337 28.4327 62.5606C27.4819 63.3982 27.3174 64.8763 28.0922 65.8791L31.8095 70.6896C32.0095 70.9486 32.263 71.1609 32.5528 71.3129L38.3254 74.3366C38.6505 74.507 39.0084 74.5958 39.3754 74.5958H59.2617C66.4508 74.5958 71.8159 65.9777 74.074 60.6999C74.208 60.3867 74.2628 60.0465 74.2421 59.7065L73.675 50.3498C73.6486 49.9144 73.4976 49.4958 73.2396 49.144L70.6428 45.6031C70.3074 45.1456 69.8129 44.8301 69.2567 44.7191L66.1557 44.0988C65.6231 43.9923 65.07 44.0802 64.5967 44.3464L60.58 46.6058C60.342 46.7398 60.1312 46.9143 59.9549 47.123C57.6353 49.8669 53.2919 54.7933 52.5545 54.7933C51.5962 54.7933 49.9417 56.6783 46.4283 54.762C44.1643 53.5271 41.7233 52.4151 40.4759 52.381C36.6328 53.9696 32.1643 59.3835 31.8095 59.7065Z" fill="#8F9196"/>
<path d="M25.4762 42.3346C25.4762 33.0239 33.0239 25.4762 42.3346 25.4762H57.6656C66.9763 25.4762 74.5239 33.0239 74.5239 42.3346V57.6656C74.5239 66.9763 66.9763 74.5239 57.6656 74.5239H42.3346C33.0239 74.5239 25.4762 66.9763 25.4762 57.6656V42.3346ZM42.3346 25.9757C33.2998 25.9757 25.9757 33.2998 25.9757 42.3346V57.6656C25.9757 66.7004 33.2998 74.0247 42.3346 74.0247H57.6656C66.7004 74.0247 74.0247 66.7004 74.0247 57.6656V42.3346C74.0247 33.2998 66.7004 25.9757 57.6656 25.9757H42.3346Z" fill="#8F9196" stroke="#EDEDED" stroke-width="3.33333"/>
<path d="M36.3346 39.7798C36.3346 37.5251 38.1624 35.6974 40.417 35.6974C42.6718 35.6974 44.4996 37.5251 44.4996 39.7798C44.4996 42.0345 42.6718 43.8622 40.417 43.8622C38.1624 43.8622 36.3346 42.0345 36.3346 39.7798Z" fill="#8F9196" stroke="#EDEDED" stroke-width="3.33333"/>
<path d="M69.4412 44.8128L69.4411 44.8127C67.3481 42.7196 63.9542 42.7195 61.8609 44.8128L52.1601 54.5136C50.2619 56.4118 47.1843 56.4118 45.286 54.5136L44.5283 53.7559C42.435 51.6626 39.0411 51.6627 36.9481 53.7559L36.9481 53.7559L27.7857 62.9182C27.6882 63.0157 27.6882 63.1737 27.7857 63.2712C27.8832 63.3687 28.0413 63.3687 28.1389 63.2712L37.3011 54.1089L37.3013 54.1088C39.1994 52.211 42.2769 52.2109 44.175 54.1089L44.933 54.8669C47.0262 56.9601 50.4199 56.9601 52.5132 54.8669L62.2142 45.1658C64.1123 43.2678 67.1898 43.2679 69.088 45.1657L69.0881 45.1658L73.7789 49.8567C73.8764 49.9542 74.0345 49.9542 74.132 49.8567C74.2293 49.7593 74.2297 49.6013 74.132 49.5034L69.4412 44.8128ZM69.4412 44.8128L74.1318 49.5032L69.4412 44.8128Z" fill="#8F9196" stroke="#EDEDED" stroke-width="3.33333"/>
</svg>
