<svg width="42" height="42" viewBox="0 0 42 42" fill="none" xmlns="http://www.w3.org/2000/svg">
<path d="M29.4881 12.3765L29.4882 12.3765C30.5706 13.459 30.5706 15.2139 29.4883 16.2962L15.8194 29.9651C15.6597 30.1248 15.4447 30.2168 15.2189 30.222L11.9214 30.2987L11.9213 30.2987C11.2406 30.3145 10.6845 29.7585 10.7003 29.0776L10.777 25.7801C10.7823 25.5544 10.8743 25.3394 11.0339 25.1797L11.034 25.1797L24.7028 11.5108C25.7852 10.4284 27.5401 10.4284 28.6225 11.5108C28.6225 11.5108 28.6225 11.5108 28.6226 11.5108L29.4881 12.3765Z" fill="#79EB85" stroke="#1E232C" stroke-width="1.4"/>
<path fill-rule="evenodd" clip-rule="evenodd" d="M22.8562 13.4265C23.236 13.0466 23.8519 13.0466 24.2318 13.4265L28.5721 17.7669C28.952 18.1467 28.3798 18.1192 28 18.499C27.6202 18.8789 27.5764 19.5223 27.1965 19.1424L22.8562 14.8021C22.4763 14.4221 22.4763 13.8063 22.8562 13.4265Z" fill="#1E232C"/>
</svg>
