<svg width="79" height="81" viewBox="0 0 79 81" fill="none" xmlns="http://www.w3.org/2000/svg">
<path d="M43 70C43 75.6655 39.0618 80 34.5 80C29.9382 80 26 75.6655 26 70C26 64.3345 29.9382 60 34.5 60C39.0618 60 43 64.3345 43 70Z" fill="#FFF0FD" stroke="#1E232C" stroke-width="2"/>
<path d="M71.5116 18.1106C75.5566 24.1644 77.7983 31.2352 77.987 38.5H64.1798C63.9961 33.9653 62.5659 29.5617 60.0373 25.7774C57.3232 21.7155 53.4656 18.5497 48.9523 16.6802C44.439 14.8107 39.4726 14.3216 34.6813 15.2746C29.89 16.2277 25.4888 18.5801 22.0345 22.0345C18.5801 25.4888 16.2277 29.89 15.2746 34.6813C14.3216 39.4726 14.8107 44.439 16.6802 48.9523C18.5497 53.4656 21.7155 57.3232 25.7774 60.0373C28.1861 61.6467 30.7153 62.384 33.3848 62.7206C36.2738 63.0848 38.5 65.2861 38.5 68V69C38.5 74.0647 34.3933 77.9465 29.8568 76.7728C25.6959 75.6963 21.7223 73.9249 18.1106 71.5116C11.7793 67.2812 6.84463 61.2683 3.93066 54.2333C1.01668 47.1984 0.254253 39.4573 1.73978 31.989C3.22532 24.5208 6.89209 17.6607 12.2764 12.2764C17.6607 6.89208 24.5208 3.22532 31.989 1.73978C39.4573 0.254253 47.1984 1.01668 54.2333 3.93066C61.2683 6.84463 67.2812 11.7793 71.5116 18.1106Z" fill="#CBDFFC" stroke="#1E232C" stroke-width="2"/>
</svg>
