<svg width="42" height="42" viewBox="0 0 42 42" fill="none" xmlns="http://www.w3.org/2000/svg">
<path fill-rule="evenodd" clip-rule="evenodd" d="M27.1224 25.6932C30.7022 22.0253 30.6113 16.3013 26.8498 12.7378C22.9951 9.0861 16.7456 9.0861 12.8909 12.7378C9.03635 16.3895 9.03635 22.3101 12.8909 25.9618C16.2308 29.1258 21.3684 29.5484 25.1885 27.2296L29.8537 31.6492C30.3447 32.1144 31.1407 32.1144 31.6316 31.6492C32.1226 31.1842 32.1226 30.4301 31.6316 29.965L27.1224 25.6932Z" fill="#748AFF"/>
<path d="M27.1224 25.6932L26.6215 25.2043L26.1252 25.7127L26.641 26.2014L27.1224 25.6932ZM26.8498 12.7378L27.3312 12.2296L27.3312 12.2296L26.8498 12.7378ZM12.8909 12.7378L12.4095 12.2296L12.4095 12.2296L12.8909 12.7378ZM12.8909 25.9618L12.4095 26.47L12.4095 26.47L12.8909 25.9618ZM25.1885 27.2296L25.6699 26.7214L25.282 26.3539L24.8253 26.6312L25.1885 27.2296ZM29.8537 31.6492L29.3723 32.1574L29.8537 31.6492ZM31.6316 31.6492L31.1502 31.141L31.1501 31.1411L31.6316 31.6492ZM31.6316 29.965L31.1502 30.4731L31.6316 29.965ZM27.6234 26.1821C31.4759 22.2347 31.3764 16.0619 27.3312 12.2296L26.3684 13.246C29.8461 16.5407 29.9285 21.8158 26.6215 25.2043L27.6234 26.1821ZM27.3312 12.2296C23.2065 8.32216 16.5342 8.32216 12.4095 12.2296L13.3724 13.246C16.957 9.85004 22.7837 9.85004 26.3684 13.246L27.3312 12.2296ZM12.4095 12.2296C8.26349 16.1575 8.26349 22.5421 12.4095 26.47L13.3724 25.4536C9.80921 22.078 9.80921 16.6216 13.3724 13.246L12.4095 12.2296ZM12.4095 26.47C15.9867 29.8588 21.4718 30.3045 25.5517 27.828L24.8253 26.6312C21.2651 28.7923 16.4749 28.3928 13.3724 25.4536L12.4095 26.47ZM30.3352 31.1411L25.6699 26.7214L24.7071 27.7378L29.3723 32.1574L30.3352 31.1411ZM31.1501 31.1411C30.9293 31.3504 30.5562 31.3504 30.3352 31.1411L29.3723 32.1574C30.1332 32.8783 31.3522 32.8783 32.1131 32.1573L31.1501 31.1411ZM31.1502 30.4731C31.3497 30.6622 31.3496 30.9521 31.1502 31.141L32.1129 32.1575C32.8955 31.4163 32.8954 30.198 32.113 29.4568L31.1502 30.4731ZM26.641 26.2014L31.1502 30.4731L32.113 29.4568L27.6039 25.185L26.641 26.2014Z" fill="#1E232C"/>
<path d="M15.3343 23.0261C14.9664 23.3747 14.3698 23.3747 14.0019 23.0261C11.9641 21.0957 11.9085 17.9722 13.9375 16.05C14.3054 15.7014 14.902 15.7014 15.2699 16.05C15.6379 16.3986 15.6379 16.9637 15.2699 17.3123C14.0034 18.5121 14.0055 20.5049 15.3343 21.7639C15.7022 22.1124 15.7022 22.6776 15.3343 23.0261Z" fill="white"/>
</svg>
