<svg width="40" height="42" viewBox="0 0 40 42" fill="none" xmlns="http://www.w3.org/2000/svg">
<path d="M26.0919 14.6712L26.0919 14.6712L25.0751 15.2153C25.0751 15.2153 25.075 15.2153 25.075 15.2153C24.6748 15.4295 24.164 15.4052 23.724 15.1718C23.2864 14.9398 22.9614 14.517 22.9635 14.0217L22.9635 14.0216L22.9681 12.9408C22.9732 11.7566 21.9077 10.6948 20.4657 10.7L19.5827 10.7032C18.1573 10.7083 17.1053 11.7551 17.1003 12.9271V12.9271L17.0956 14.0405C17.0956 14.0405 17.0956 14.0406 17.0956 14.0406C17.0935 14.5381 16.7694 14.9596 16.3309 15.1931L26.0919 14.6712ZM26.0919 14.6712C27.3212 14.0134 28.8731 14.4225 29.5453 15.5016L26.0919 14.6712ZM13.9584 14.7142L13.9584 14.7142C12.7329 14.0643 11.1913 14.4704 10.518 15.5416L10.518 15.5416L10.0577 16.2739L10.0577 16.2739C9.40917 17.3057 9.76615 18.6546 10.9615 19.2886L10.9616 19.2886L11.9591 19.8176C11.9592 19.8177 11.9593 19.8177 11.9593 19.8177C12.3782 20.0398 12.6446 20.5046 12.6435 21.033L13.9584 14.7142ZM13.9584 14.7142L14.9559 15.2431C14.956 15.2432 14.956 15.2432 14.9561 15.2432M13.9584 14.7142L14.9561 15.2432M23.5997 29.0759L23.6044 27.9625C23.6052 27.7833 23.7278 27.5688 23.9983 27.4247M23.5997 29.0759L22.8997 29.073M23.5997 29.0759L22.8997 29.073V29.073M23.5997 29.0759C23.5929 30.6865 22.1731 31.9905 20.4198 31.9968M22.8997 29.073L22.9044 27.9596L22.9044 27.9593C22.9067 27.462 23.2304 27.0406 23.6692 26.8069L23.9983 27.4247M22.8997 29.073C22.8948 30.2448 21.8427 31.2917 20.4172 31.2969M23.9983 27.4247L23.6693 26.8068M23.9983 27.4247C24.2769 27.2763 24.5494 27.2868 24.716 27.3752L25.7137 27.9043C27.2406 28.714 29.1931 28.2335 30.0747 26.831M23.6693 26.8068L28.3666 20.386C28.198 20.4762 28.0571 20.6811 28.0565 20.9683M23.6693 26.8068C24.116 26.5689 24.6372 26.541 25.044 26.7568L24.7167 27.3739L25.0441 26.7569L26.0417 27.2859L26.0417 27.2859C27.267 27.9357 28.8087 27.5296 29.482 26.4585L30.0747 26.831M23.6693 26.8068L29.4821 26.4584L30.0747 26.831M30.0747 26.831L30.5349 26.0987C31.4166 24.6962 30.8934 22.9028 29.3664 22.0931L28.3687 21.5639M28.3687 21.5639C28.202 21.4755 28.0559 21.2641 28.0565 20.9683M28.3687 21.5639L28.0408 22.1824L28.0407 22.1823L28.3687 21.5639ZM28.0565 20.9683L27.3565 20.9668M28.0565 20.9683L27.3565 20.967C27.3565 20.9669 27.3565 20.9669 27.3565 20.9668M27.3565 20.9668C27.3576 20.4444 27.6215 19.9908 28.0363 19.7688L28.0364 19.7688L29.0837 19.2084C30.2696 18.5738 30.6244 17.234 29.9838 16.2057L29.9838 16.2056L29.5454 15.5016L27.3565 20.9668ZM20.4172 31.2969H20.4173L20.4198 31.9968M20.4172 31.2969L19.5343 31.3H19.5342C18.0923 31.3052 17.0269 30.2435 17.0319 29.0593V29.0592L17.0365 27.9782C17.0385 27.4834 16.714 27.0604 16.276 26.8282M20.4172 31.2969L20.4198 31.9968M20.4198 31.9968L16.276 26.8282M16.276 26.8282C15.836 26.5948 15.3252 26.5706 14.9249 26.7848L14.9249 26.7848L13.9082 27.3288L14.2384 27.946M16.276 26.8282L12.6435 21.0332C12.6425 21.5558 12.3784 22.0093 11.9637 22.2311M16.276 26.8282L15.9481 27.4466M16.276 26.8282C16.276 26.8282 16.2759 26.8281 16.2759 26.8281L15.9481 27.4466M14.2384 27.946L13.9082 27.3288C12.6787 27.9866 11.1269 27.5775 10.4547 26.4984L9.86052 26.8685M14.2384 27.946C12.7065 28.7657 10.7409 28.2819 9.86052 26.8685M14.2384 27.946L15.2552 27.402C15.4171 27.3153 15.6787 27.3038 15.9481 27.4466M9.86052 26.8685L10.4547 26.4984L10.0162 25.7944L10.0162 25.7944C9.37555 24.7659 9.73044 23.4262 10.9162 22.7917L10.9162 22.7917L11.9637 22.2311M9.86052 26.8685L9.422 26.1645L16.3319 29.0563L16.3365 27.9753C16.3372 27.8033 16.2174 27.5893 15.9481 27.4466M11.9637 22.2311L11.9637 22.2311L11.6335 21.6139L11.9637 22.2311ZM14.9561 15.2432C15.3629 15.459 15.884 15.4311 16.3307 15.1932L14.9561 15.2432Z" fill="#DEFCF9" stroke="#1E232C" stroke-width="1.4"/>
<circle cx="20" cy="21" r="3.3" stroke="#1E232C" stroke-width="1.4"/>
</svg>
