<svg width="22" height="22" viewBox="0 0 22 22" fill="none" xmlns="http://www.w3.org/2000/svg">
<g clip-path="url(#clip0_1303_7193)">
<path d="M11.0004 8.3999C9.56039 8.3999 8.40039 9.5599 8.40039 10.9999C8.40039 12.4399 9.56039 13.5999 11.0004 13.5999C12.4404 13.5999 13.6004 12.4399 13.6004 10.9999C13.6004 9.5599 12.4404 8.3999 11.0004 8.3999Z" fill="#FFD0EC"/>
<path d="M19.7098 13.3302L18.7098 12.8002C18.0598 12.4502 17.6498 11.7502 17.6498 10.9702C17.6498 10.2002 18.0498 9.50016 18.6998 9.16016L19.7498 8.60016C20.1598 8.38016 20.4398 8.04016 20.5498 7.64016C20.6198 7.39016 20.6398 7.00016 20.3798 6.59016L19.9398 5.89016C19.6298 5.39016 19.0198 5.07016 18.3498 5.07016C18.0198 5.07016 17.6898 5.15016 17.4098 5.30016L16.3898 5.84016C16.1098 5.99016 15.7798 6.07016 15.4498 6.07016C15.0898 6.07016 14.7198 5.98016 14.3798 5.80016C13.6798 5.43016 13.2498 4.75016 13.2498 4.03016V2.95016C13.2498 2.48016 13.0198 2.15016 12.8298 1.95016C12.4898 1.61016 11.9898 1.41016 11.4698 1.41016H10.5798C9.59982 1.41016 8.79982 2.10016 8.79982 2.94016V4.05016C8.79982 4.77016 8.35982 5.45016 7.65982 5.82016C7.31982 6.00016 6.93982 6.10016 6.56982 6.10016C6.22982 6.10016 5.90982 6.02016 5.62982 5.87016L4.62982 5.34016C4.34982 5.19016 4.01982 5.11016 3.68982 5.11016C3.02982 5.11016 2.41982 5.42016 2.10982 5.92016L1.64982 6.65016C1.38982 7.07016 1.40982 7.46016 1.47982 7.71016C1.58982 8.11016 1.86982 8.46016 2.28982 8.68016L3.28982 9.21016C3.93982 9.56016 4.34982 10.2602 4.34982 11.0502C4.34982 11.8202 3.94982 12.5202 3.29982 12.8602L2.24982 13.4202C1.83982 13.6402 1.55982 13.9802 1.44982 14.3802C1.37982 14.6302 1.35982 15.0202 1.61982 15.4302L2.05982 16.1302C2.36982 16.6302 2.97982 16.9502 3.64982 16.9502C3.97982 16.9502 4.30982 16.8702 4.58982 16.7202L5.60982 16.1802C5.88982 16.0302 6.21982 15.9502 6.54982 15.9502C6.90982 15.9502 7.27982 16.0402 7.61982 16.2202C8.31982 16.5902 8.75982 17.2702 8.74982 17.9902V19.0702C8.74982 19.5402 8.97982 19.8702 9.16982 20.0702C9.50982 20.4102 10.0098 20.6102 10.5298 20.6102H11.4198C12.3998 20.6102 13.1998 19.9202 13.2098 19.0802V17.9702C13.2098 17.2502 13.6498 16.5702 14.3498 16.2002C14.6898 16.0202 15.0698 15.9202 15.4398 15.9202C15.7798 15.9202 16.0998 16.0002 16.3798 16.1502L17.3798 16.6802C17.6598 16.8302 17.9898 16.9102 18.3198 16.9102C18.9798 16.9102 19.5898 16.6002 19.8998 16.1002L20.3598 15.3702C20.6198 14.9502 20.5998 14.5602 20.5298 14.3102C20.4198 13.9102 20.1398 13.5602 19.7198 13.3402L19.7098 13.3302ZM10.9998 15.0002C8.78982 15.0002 6.99982 13.2102 6.99982 11.0002C6.99982 8.79016 8.78982 7.00016 10.9998 7.00016C13.2098 7.00016 14.9998 8.79016 14.9998 11.0002C14.9998 13.2102 13.2098 15.0002 10.9998 15.0002Z" fill="#FFD0EC"/>
<path d="M20.3698 12.09L19.3698 11.56C19.1998 11.47 19.0598 11.26 19.0598 10.96C19.0598 10.67 19.1998 10.47 19.3698 10.38L20.4198 9.82C21.9398 9.01 22.4498 7.23 21.5798 5.83L21.1398 5.13C20.5498 4.18 19.4698 3.65 18.3698 3.65C17.8198 3.65 17.2698 3.78 16.7698 4.05L15.7498 4.59C15.6798 4.63 15.5798 4.65 15.4698 4.65C15.3398 4.65 15.1998 4.62 15.0598 4.54C14.7898 4.4 14.6698 4.18 14.6698 4.01V2.93C14.6798 1.32 13.2398 0 11.4798 0H10.5798C8.82984 0 7.40984 1.31 7.39984 2.92V4.03C7.39984 4.21 7.26984 4.42 6.99984 4.57C6.84984 4.65 6.69984 4.68 6.56984 4.68C6.45984 4.68 6.35984 4.66 6.27984 4.62L5.27984 4.09C4.77984 3.82 4.22984 3.7 3.68984 3.7C2.58984 3.7 1.50984 4.23 0.919845 5.17L0.459845 5.9C-0.420155 7.3 0.0998446 9.1 1.62984 9.91L2.62984 10.44C2.79984 10.53 2.93984 10.74 2.93984 11.04C2.93984 11.33 2.79984 11.53 2.62984 11.62L1.57984 12.18C0.0598446 12.99 -0.450155 14.77 0.419845 16.17L0.859845 16.87C1.44984 17.82 2.52984 18.35 3.62984 18.35C4.17984 18.35 4.72984 18.22 5.22984 17.95L6.24984 17.41C6.31984 17.37 6.41984 17.35 6.52984 17.35C6.65984 17.35 6.79984 17.38 6.93984 17.46C7.20984 17.6 7.32984 17.82 7.32984 17.99V19.07C7.31984 20.69 8.74985 22.01 10.5198 22.01H11.4198C13.1698 22.01 14.5898 20.7 14.5998 19.09V17.98C14.5998 17.8 14.7298 17.59 14.9998 17.44C15.1498 17.36 15.2998 17.33 15.4298 17.33C15.5398 17.33 15.6398 17.35 15.7198 17.39L16.7198 17.92C17.2198 18.19 17.7698 18.31 18.3098 18.31C19.4098 18.31 20.4898 17.78 21.0798 16.84L21.5398 16.11C22.4198 14.71 21.8998 12.91 20.3698 12.1V12.09ZM20.3498 15.35L19.8898 16.08C19.5798 16.58 18.9698 16.89 18.3098 16.89C17.9798 16.89 17.6598 16.81 17.3698 16.66L16.3698 16.13C16.0898 15.98 15.7598 15.9 15.4298 15.9C15.0598 15.9 14.6798 16 14.3398 16.18C13.6398 16.55 13.2098 17.23 13.1998 17.95V19.06C13.1998 19.9 12.3898 20.58 11.4098 20.59H10.5198C9.99985 20.59 9.49984 20.4 9.15984 20.05C8.95984 19.85 8.72984 19.52 8.72984 19.05V17.97C8.72984 17.25 8.29984 16.57 7.59984 16.2C7.25984 16.02 6.88984 15.93 6.52984 15.93C6.19984 15.93 5.86984 16.01 5.58984 16.16L4.56984 16.7C4.27984 16.85 3.95984 16.93 3.62984 16.93C2.96984 16.93 2.35984 16.62 2.03984 16.11L1.59984 15.41C1.33984 14.99 1.36984 14.61 1.42984 14.36C1.53984 13.96 1.81984 13.62 2.22984 13.4L3.27984 12.84C3.92984 12.49 4.32984 11.8 4.32984 11.03C4.32984 10.24 3.92984 9.54 3.26984 9.19L2.26984 8.66C1.85984 8.44 1.56984 8.1 1.45984 7.69C1.38984 7.44 1.36984 7.05 1.62984 6.63L2.08984 5.9C2.39984 5.4 3.00984 5.09 3.66984 5.09C3.99984 5.09 4.31984 5.17 4.60984 5.32L5.60984 5.85C5.88984 6 6.21984 6.08 6.54984 6.08C6.91984 6.08 7.29984 5.98 7.63984 5.8C8.33984 5.43 8.76984 4.75 8.77984 4.03V2.92C8.77984 2.08 9.58984 1.4 10.5698 1.39H11.4498C11.9698 1.39 12.4698 1.59 12.8098 1.93C13.0098 2.13 13.2398 2.46 13.2398 2.93V4.01C13.2398 4.73 13.6698 5.41 14.3698 5.78C14.7098 5.96 15.0798 6.05 15.4398 6.05C15.7698 6.05 16.0998 5.97 16.3798 5.82L17.3998 5.28C17.6898 5.13 18.0098 5.05 18.3398 5.05C18.9998 5.05 19.6098 5.36 19.9298 5.87L20.3698 6.57C20.6298 6.98 20.5998 7.37 20.5398 7.62C20.4298 8.02 20.1498 8.36 19.7398 8.58L18.6898 9.14C18.0398 9.49 17.6398 10.18 17.6398 10.95C17.6398 11.74 18.0398 12.44 18.6998 12.78L19.6998 13.31C20.1098 13.53 20.3998 13.87 20.5098 14.28C20.5798 14.53 20.5998 14.92 20.3398 15.34L20.3498 15.35Z" fill="#1E232C"/>
<path d="M11 7C8.79 7 7 8.79 7 11C7 13.21 8.79 15 11 15C13.21 15 15 13.21 15 11C15 8.79 13.21 7 11 7ZM11 13.6C9.56 13.6 8.4 12.44 8.4 11C8.4 9.56 9.56 8.4 11 8.4C12.44 8.4 13.6 9.56 13.6 11C13.6 12.44 12.44 13.6 11 13.6Z" fill="#1E232C"/>
</g>
<defs>
<clipPath id="clip0_1303_7193">
<rect width="22" height="22" fill="white"/>
</clipPath>
</defs>
</svg>
