<svg width="22" height="22" viewBox="0 0 22 22" fill="none" xmlns="http://www.w3.org/2000/svg">
<path d="M17.0919 4.67121L17.0919 4.67123L16.0751 5.21528C16.0751 5.21528 16.075 5.21529 16.075 5.21529C15.6748 5.42946 15.164 5.40521 14.724 5.17185C14.2864 4.93975 13.9614 4.51697 13.9635 4.02171V4.02164L13.9681 2.9408C13.9681 2.94078 13.9681 2.94077 13.9681 2.94076C13.9731 1.75656 12.9077 0.69483 11.4657 0.700018L10.5827 0.703184C9.15729 0.708309 8.10529 1.75514 8.10034 2.92706V2.92708L8.09559 4.04045L8.09559 4.04062L7.3956 4.03763L17.0919 4.67121ZM17.0919 4.67121C18.3212 4.01337 19.8731 4.42251 20.5453 5.50156M17.0919 4.67121L20.5453 5.50156M1.91624 12.7917L1.91622 12.7917C0.730443 13.4262 0.375552 14.7659 1.01617 15.7944L1.01617 15.7944L1.45468 16.4984C2.12684 17.5775 3.67871 17.9866 4.90817 17.3288C4.90818 17.3288 4.90819 17.3288 4.90819 17.3288L5.92489 16.7848L6.2446 17.3822L5.9249 16.7848C6.32512 16.5706 6.83591 16.5948 7.27588 16.8281C7.71392 17.0603 8.03854 17.4833 8.03646 17.9782L8.03192 19.0592V19.0593C8.0269 20.2435 9.09227 21.3052 10.5342 21.3H10.5343L11.4172 21.2969C12.8427 21.2917 13.8948 20.2448 13.8997 19.073L13.9044 17.9596L13.9044 17.9593C13.9067 17.4619 14.2305 17.0405 14.6693 16.8068C15.1161 16.5689 15.6373 16.541 16.0441 16.7569L17.0417 17.2859L17.0417 17.2859C18.267 17.9357 19.8087 17.5296 20.482 16.4585C20.482 16.4585 20.482 16.4585 20.482 16.4585C20.4821 16.4585 20.4821 16.4585 20.4821 16.4584L20.9423 15.7262L20.9423 15.7261C21.5909 14.6943 21.234 13.3454 20.0385 12.7115L20.0384 12.7115L19.0408 12.1824C18.6219 11.9603 18.3554 11.4954 18.3565 10.9668M1.91624 12.7917L18.3565 10.9668M1.91624 12.7917L2.96369 12.2311C2.96371 12.2311 2.96373 12.2311 2.96374 12.2311C3.3784 12.0092 3.64251 11.5558 3.64352 11.0332L1.91624 12.7917ZM18.3565 10.9668C18.3576 10.4444 18.6215 9.99084 19.0363 9.76883L19.0364 9.76882L20.0837 9.20837C21.2696 8.57377 21.6244 7.23404 20.9838 6.2057L20.9838 6.20561L20.5454 5.50162M18.3565 10.9668L20.5454 5.50162M20.5454 5.50162C20.5453 5.5016 20.5453 5.50158 20.5453 5.50156M20.5454 5.50162L20.5453 5.50156M5.95611 5.24324C6.36287 5.459 6.884 5.43112 7.33066 5.19324L3.64352 11.033C3.64455 10.5045 3.37811 10.0397 2.95914 9.81765L1.96156 9.28857L1.96154 9.28856C0.766155 8.65463 0.409169 7.3057 1.05774 6.27387L1.05774 6.27386L1.51803 5.54157L1.51803 5.54156C2.19126 4.47042 3.73287 4.06427 4.95836 4.71416L4.95837 4.71416L5.95593 5.24315C5.95599 5.24318 5.95605 5.24321 5.95611 5.24324Z" fill="#FFD0EC" stroke="#1E232C" stroke-width="1.4"/>
<circle cx="11" cy="11" r="3.3" stroke="#1E232C" stroke-width="1.4"/>
</svg>
