<svg width="42" height="42" viewBox="0 0 42 42" fill="none" xmlns="http://www.w3.org/2000/svg">
<path fill-rule="evenodd" clip-rule="evenodd" d="M23.5029 11.4167C22.332 9.52646 19.6679 9.52646 18.4972 11.4167L16.5322 14.5893C16.349 14.885 16.0656 15.0986 15.7379 15.1878L12.2211 16.1454C10.1258 16.7161 9.30256 19.3437 10.6743 21.0825L12.9767 24.001C13.1912 24.273 13.2995 24.6185 13.28 24.9693L13.0715 28.7338C12.9473 30.9767 15.1026 32.6007 17.1212 31.7851L20.5091 30.4161C20.8248 30.2886 21.1752 30.2886 21.4908 30.4161L24.8788 31.7851C26.8973 32.6007 29.0527 30.9767 28.9285 28.7338L28.7199 24.9693C28.7005 24.6185 28.8088 24.273 29.0234 24.001L31.3257 21.0825C32.6974 19.3437 31.8742 16.7161 29.7788 16.1454L26.2621 15.1878C25.9344 15.0986 25.6509 14.885 25.4679 14.5893L23.5029 11.4167Z" fill="#FDE078" stroke="#1E232C" stroke-width="1.4"/>
</svg>
