<svg width="42" height="42" viewBox="0 0 42 42" fill="none" xmlns="http://www.w3.org/2000/svg">
<rect x="11" y="11" width="17" height="17" rx="3" fill="#F7DB47"/>
<rect x="16" y="16" width="12" height="12" rx="3" fill="#FFFBE7"/>
<path fill-rule="evenodd" clip-rule="evenodd" d="M13.6712 26.6593C12.5376 26.6593 11.6185 25.7289 11.6185 24.5811V14.9842C11.6185 13.1365 13.098 11.6386 14.923 11.6386C14.923 11.6386 23.0004 11.6386 24.2295 11.6386C25.4587 11.6386 26.455 12.6474 26.455 13.8918H28.0735C28.0735 11.7424 26.3525 10 24.2295 10H14.923C12.2041 10 10 12.2315 10 14.9842V24.5811C10 26.6339 11.6437 28.2979 13.6712 28.2979H14.4805V26.6593H13.6712Z" fill="#1E232C"/>
<path fill-rule="evenodd" clip-rule="evenodd" d="M27.8897 28.2314L26.1243 29.5547V28.7624C26.1243 28.0083 26.7282 27.3969 27.4731 27.3969H28.9068L27.8897 28.2314ZM18.8493 13.7021C16.1303 13.7021 13.9263 15.9336 13.9263 18.6863V27.016C13.9263 29.7686 16.1303 32.0001 18.8493 32.0001H25.315C25.4884 32.0001 25.6572 31.9437 25.7966 31.8393L28.8813 29.527L31.7001 27.214C31.8896 27.0585 31.9998 26.8246 31.9998 26.5775V18.6863C31.9998 15.9336 29.7957 13.7021 27.0767 13.7021H18.8493ZM22.6662 17.4801C22.1565 16.5245 20.8022 16.5245 20.2926 17.4801L19.5313 18.9075C18.9158 19.0216 18.5707 19.0855 17.9552 19.1995C16.8999 19.395 16.4815 20.6989 17.2216 21.4849L18.3273 22.659L18.1145 24.2669C17.9721 25.3433 19.0676 26.1491 20.0348 25.6793L21.4794 24.9777L22.924 25.6793C23.8911 26.1491 24.9867 25.3433 24.8443 24.2669L24.6315 22.659L25.737 21.4849C26.4773 20.6989 26.0588 19.395 25.0036 19.1995L23.4275 18.9075L22.6662 17.4801Z" fill="#FDE97E" stroke="#1E232C" stroke-width="1.4"/>
</svg>
