<svg width="79" height="87" viewBox="0 0 79 87" fill="none" xmlns="http://www.w3.org/2000/svg">
<path d="M42.0316 51.5346C41.4292 50.6353 41.7133 49.4141 42.6506 48.8729C43.588 48.3317 44.7876 48.6964 45.2652 49.6677L51.4338 62.6638C51.5993 63.0004 51.4755 63.4078 51.1506 63.5954C50.8257 63.7829 50.411 63.6865 50.2023 63.3748L42.0316 51.5346Z" fill="#F8F8FA"/>
<path fill-rule="evenodd" clip-rule="evenodd" d="M45.2652 49.6677C44.7876 48.6964 43.588 48.3317 42.6506 48.8729C41.7133 49.4141 41.4292 50.6353 42.0316 51.5346L50.2023 63.3748C50.411 63.6865 50.8257 63.7829 51.1506 63.5954C51.4755 63.4078 51.5993 63.0004 51.4338 62.6638L45.2652 49.6677ZM45.5601 46.187L53.2286 61.7812C53.8588 63.0627 53.3875 64.6133 52.1507 65.3274C50.9139 66.0414 49.3354 65.6743 48.5407 64.4877L38.87 50.0495C37.6238 48.189 38.2114 45.6624 40.1507 44.5427C42.09 43.4231 44.5719 44.1775 45.5601 46.187Z" fill="#1E232C"/>
<path d="M25.4544 31.0884C23.7975 28.2186 24.7808 24.5491 27.6505 22.8922C30.5203 21.2354 34.1898 22.2186 35.8467 25.0884L46.3467 43.2749L42.6506 48.8729L35.9544 49.2749L25.4544 31.0884Z" fill="#FFD0EC"/>
<path fill-rule="evenodd" clip-rule="evenodd" d="M49.0787 44.0069L35.2223 52.0069L23.7223 32.0884C21.5132 28.262 22.8242 23.3693 26.6505 21.1602C30.4769 18.951 35.3696 20.262 37.5787 24.0884L49.0787 44.0069ZM27.6505 22.8922C24.7808 24.5491 23.7975 28.2186 25.4544 31.0884L35.9544 49.2749L42.6506 48.8729L46.3467 43.2749L35.8467 25.0884C34.1898 22.2186 30.5203 21.2354 27.6505 22.8922Z" fill="#1E232C"/>
<path d="M28.8922 51.0428C27.5115 48.6514 28.3309 45.5934 30.7223 44.2127L44.5787 36.2127C46.9702 34.832 50.0282 35.6514 51.4089 38.0428C52.7896 40.4343 51.9702 43.4923 49.5787 44.873L35.7223 52.873C33.3309 54.2537 30.2729 53.4343 28.8922 51.0428Z" fill="#F7BBDF"/>
<path fill-rule="evenodd" clip-rule="evenodd" d="M29.7223 42.4807L43.5787 34.4807C46.9268 32.5477 51.2079 33.6948 53.1409 37.0428C55.0739 40.3909 53.9268 44.672 50.5787 46.605L36.7223 54.605C33.3743 56.538 29.0932 55.3909 27.1602 52.0428C25.2272 48.6948 26.3743 44.4137 29.7223 42.4807ZM30.7223 44.2127C28.3309 45.5934 27.5115 48.6514 28.8922 51.0428C30.2729 53.4343 33.3309 54.2537 35.7223 52.873L49.5787 44.873C51.9702 43.4923 52.7896 40.4343 51.4089 38.0428C50.0282 35.6514 46.9702 34.832 44.5787 36.2127L30.7223 44.2127Z" fill="#1E232C"/>
</svg>
