<svg width="40" height="43" viewBox="0 0 40 43" fill="none" xmlns="http://www.w3.org/2000/svg">
<path d="M10.8333 32.6119C10.8333 32.6119 9 32.6119 9 30.7786C9 28.9453 10.8333 23.4453 20 23.4453C29.1667 23.4453 31 28.9453 31 30.7786C31 32.6119 29.1667 32.6119 29.1667 32.6119H10.8333ZM20 21.6119C21.4587 21.6119 22.8576 21.0325 23.8891 20.001C24.9205 18.9696 25.5 17.5706 25.5 16.1119C25.5 14.6532 24.9205 13.2543 23.8891 12.2229C22.8576 11.1914 21.4587 10.6119 20 10.6119C18.5413 10.6119 17.1424 11.1914 16.1109 12.2229C15.0795 13.2543 14.5 14.6532 14.5 16.1119C14.5 17.5706 15.0795 18.9696 16.1109 20.001C17.1424 21.0325 18.5413 21.6119 20 21.6119Z" fill="#CADEFC" fill-opacity="0.98" stroke="black" stroke-width="1.4"/>
</svg>
