<svg width="43" height="42" viewBox="0 0 43 42" fill="none" xmlns="http://www.w3.org/2000/svg">
<g id="Emoji">
<path id="Vector" d="M29.4004 8.77832C25.4004 8.77832 25.4004 9.88942 21.4004 9.88942C17.4004 9.88942 17.4004 8.77832 13.4004 8.77832C8.06706 8.77832 1.40039 11.0005 1.40039 18.7782C1.40039 31.0004 9.40039 41.0003 14.7337 41.0003C18.7337 41.0003 18.7337 39.8892 21.4004 39.8892C24.0671 39.8892 24.0671 41.0003 28.0671 41.0003C33.4004 41.0003 41.4004 31.0004 41.4004 18.7782C41.4004 10.9994 34.7337 8.77832 29.4004 8.77832Z" fill="#77B255" stroke="#1E232C" stroke-width="1.4" stroke-linejoin="round"/>
<path id="Vector_2" d="M20.8819 9.75593C20.8819 9.75593 18.5152 4.56263 12.1086 3.02264C6.98457 1.79154 3.68457 3.31153 3.68457 3.31153C3.68457 3.31153 7.70057 7.74594 11.5446 8.66927C15.3872 9.59149 20.8819 9.75593 20.8819 9.75593Z" fill="#3E721D" stroke="#1E232C" stroke-width="1.4" stroke-linejoin="round"/>
<path id="Vector_3" d="M21.8001 12.1113C21.0641 12.1113 20.4668 11.6135 20.4668 11.0002C20.4668 7.1769 22.0668 3.65026 24.8575 1.32583C25.3788 0.89139 26.2215 0.89139 26.7428 1.32583C27.2641 1.76027 27.2641 2.4636 26.7428 2.89693C24.4481 4.80803 23.1335 7.76134 23.1335 11.0002C23.1335 11.6135 22.5361 12.1113 21.8001 12.1113Z" fill="#662113" stroke="#1E232C" stroke-width="1.4" stroke-linejoin="round"/>
</g>
</svg>
