<svg width="42" height="42" viewBox="0 0 42 42" fill="none" xmlns="http://www.w3.org/2000/svg">
<g id="Emoji">
<path id="Vector" d="M29 8.77881C25 8.77881 25 9.88991 21 9.88991C17 9.88991 17 8.77881 13 8.77881C7.66667 8.77881 1 11.001 1 18.7787C1 31.0009 9 41.0008 14.3333 41.0008C18.3333 41.0008 18.3333 39.8897 21 39.8897C23.6667 39.8897 23.6667 41.0008 27.6667 41.0008C33 41.0008 41 31.0009 41 18.7787C41 10.9999 34.3333 8.77881 29 8.77881Z" fill="#DD2E44" stroke="#1E232C" stroke-width="1.4" stroke-linejoin="round"/>
<path id="Vector_2" d="M22.334 8.77889C22.334 8.77889 26.334 4.33447 33.0007 4.33447C38.334 4.33447 41.0007 6.55668 41.0007 6.55668C41.0007 6.55668 35.6673 9.88999 31.6673 9.88999C27.6673 9.88999 22.334 8.77889 22.334 8.77889Z" fill="#77B255" stroke="#1E232C" stroke-width="1.4" stroke-linejoin="round"/>
<path id="Vector_3" d="M21.0003 12.1118C20.2643 12.1118 19.667 11.614 19.667 11.0007C19.667 7.17739 21.267 3.65075 24.0577 1.32632C24.579 0.891878 25.4217 0.891878 25.943 1.32632C26.4643 1.76076 26.4643 2.46409 25.943 2.89742C23.6483 4.80852 22.3337 7.76183 22.3337 11.0007C22.3337 11.614 21.7363 12.1118 21.0003 12.1118Z" fill="#662113" stroke="#1E232C" stroke-width="1.4" stroke-linejoin="round"/>
</g>
</svg>
