<svg width="42" height="42" viewBox="0 0 42 42" fill="none" xmlns="http://www.w3.org/2000/svg">
<g id="Emoji">
<path id="Vector" d="M36.7558 9.88938H30.0891V5.44493C30.0891 2.99049 28.0991 1.00049 25.6446 1.00049H16.7558C14.3013 1.00049 12.3113 2.99049 12.3113 5.44493V9.88938H5.64464C3.1902 9.88938 1.2002 11.8794 1.2002 14.3338V36.556C1.2002 39.0105 3.1902 41.0005 5.64464 41.0005H36.7558C39.2102 41.0005 41.2002 39.0105 41.2002 36.556V14.3338C41.2002 11.8794 39.2102 9.88938 36.7558 9.88938ZM14.5335 7.66716C14.5335 6.44049 15.5291 5.44493 16.7558 5.44493H25.6446C26.8713 5.44493 27.8669 6.44049 27.8669 7.66716V9.88938H14.5335V7.66716Z" fill="#9A4E1C" stroke="#1E232C" stroke-width="1.4" stroke-linejoin="round"/>
<path id="Vector_2" d="M39.0917 23.2225C39.0917 25.6769 37.3228 27.6669 35.1411 27.6669H7.48675C5.30502 27.6669 3.53613 25.6769 3.53613 23.2225V14.3336C3.53613 11.8792 5.30502 9.88916 7.48675 9.88916H35.1411C37.3228 9.88916 39.0917 11.8792 39.0917 14.3336V23.2225Z" fill="#662113"/>
<path id="Vector_3" d="M41.2002 21.0003C41.2002 23.4547 39.2102 25.4447 36.7558 25.4447H5.64464C3.1902 25.4447 1.2002 23.4547 1.2002 21.0003V14.3336C1.2002 11.8792 3.1902 9.88916 5.64464 9.88916H36.7558C39.2102 9.88916 41.2002 11.8792 41.2002 14.3336V21.0003Z" fill="#9A4E1C" stroke="#1E232C" stroke-width="1.4" stroke-linejoin="round"/>
<path id="Vector_4" d="M25.6447 21.0005C25.6447 22.2272 24.6492 23.2228 23.4225 23.2228H18.9781C17.7514 23.2228 16.7559 22.2272 16.7559 21.0005C16.7559 19.7739 17.7514 18.7783 18.9781 18.7783H23.4225C24.6492 18.7783 25.6447 19.7739 25.6447 21.0005Z" fill="#CCD6DD" stroke="#1E232C" stroke-width="1.4" stroke-linejoin="round"/>
</g>
</svg>
