<svg width="38" height="42" viewBox="0 0 38 42" fill="none" xmlns="http://www.w3.org/2000/svg">
<g id="Emoji">
<path id="Vector" d="M3.4 41.0005C2.0752 41.0005 1 39.9765 1 38.7148V3.2862C1 2.02449 2.0752 1.00049 3.4 1.00049C4.7248 1.00049 5.8 2.02449 5.8 3.2862V38.7148C5.8 39.9765 4.7248 41.0005 3.4 41.0005Z" fill="#8899A6" stroke="#1E232C" stroke-width="1.4" stroke-linejoin="round"/>
<path id="Vector_2" d="M3.4 1.00049C2.074 1.00049 1 2.02335 1 3.2862V38.7148C1 39.0302 1.2688 39.2862 1.6 39.2862C1.9312 39.2862 2.2 39.0302 2.2 38.7148V4.9022C2.2 4.00963 2.9596 3.2862 3.8968 3.2862H5.8C5.8 2.02335 4.726 1.00049 3.4 1.00049Z" fill="#AAB8C2" stroke="#1E232C" stroke-width="1.4" stroke-linejoin="round"/>
<path id="Vector_3" d="M3.4 41.0005C2.0752 41.0005 1 39.9765 1 38.7148V3.2862C1 2.02449 2.0752 1.00049 3.4 1.00049C4.7248 1.00049 5.8 2.02449 5.8 3.2862V38.7148C5.8 39.9765 4.7248 41.0005 3.4 41.0005Z" fill="#8899A6" stroke="#1E232C" stroke-width="1.4" stroke-linejoin="round"/>
<path id="Vector_4" d="M3.4 1.00049C2.074 1.00049 1 2.02335 1 3.2862V38.7148C1 39.0302 1.2688 39.2862 1.6 39.2862C1.9312 39.2862 2.2 39.0302 2.2 38.7148V4.9022C2.2 4.00963 2.9596 3.2862 3.8968 3.2862H5.8C5.8 2.02335 4.726 1.00049 3.4 1.00049Z" fill="#AAB8C2" stroke="#1E232C" stroke-width="1.4" stroke-linejoin="round"/>
<path id="Vector_5" d="M36.2748 3.38006C34.278 2.55834 32.1504 2.15034 29.7996 2.11377L28.1496 2.54806L22.5996 3.28634L21.3996 3.14006C21.1152 3.19834 20.8284 3.2532 20.5464 3.31148C17.9436 3.84748 15.4704 4.3332 12.9996 4.43377L11.7996 5.57206L4.59961 4.4292V26.1435H11.7996L12.9996 28.4292H13.092C15.7848 28.3195 18.4584 27.7938 21.0516 27.2612L21.3996 27.1915L22.1748 26.4543L28.7004 25.6452L29.7996 26.1138C31.8156 26.1503 33.6312 26.4966 35.3244 27.1926C35.6952 27.3446 36.1224 27.3103 36.4584 27.0989C36.7968 26.8863 36.9996 26.5286 36.9996 26.1435V4.4292C36.9996 3.9732 36.7152 3.56063 36.2748 3.38006Z" fill="#31373D" stroke="#1E232C" stroke-width="1.4" stroke-linejoin="round"/>
<g id="Vector_6">
<path d="M12.9996 4.43349C12.7128 4.44492 12.426 4.47349 12.1392 4.47349C9.98281 4.47349 8.06401 4.11578 6.27481 3.37978C5.90521 3.22549 5.47681 3.26206 5.14081 3.47463C4.80241 3.68492 4.59961 4.04492 4.59961 4.42892V11.2861C4.59961 11.2861 8.55001 12.4289 12.9996 12.4289V4.43349ZM21.3996 11.2861C21.3996 11.2861 16.8996 12.4289 12.9996 12.4289V20.4289C16.5996 20.4289 21.3996 19.2861 21.3996 19.2861V11.2861ZM29.7996 10.1432V2.11349C29.6844 2.1112 29.5764 2.09863 29.46 2.09863C26.7396 2.09863 24.0348 2.60378 21.3996 3.13978V11.2861C21.3996 11.2861 24 10.1432 29.7996 10.1432ZM5.32441 27.1923C7.12441 27.9329 9.03241 28.3272 11.1084 28.4289H12.9996V20.4289C7.99921 20.4289 4.59961 19.2861 4.59961 19.2861V26.1432C4.59961 26.5992 4.88401 27.0118 5.32441 27.1923ZM21.3996 19.2861V27.1901C24.1752 26.6198 26.8128 26.0986 29.46 26.0986C29.5764 26.0986 29.6844 26.1112 29.7996 26.1135V18.1432C24.3996 18.1432 21.3996 19.2861 21.3996 19.2861ZM29.7996 18.1432C33.0108 18.1432 35.5836 18.7832 36.9996 19.2335V11.1809C35.6232 10.7455 33.1224 10.1432 29.7996 10.1432V18.1432Z" fill="#E1E8ED"/>
<path d="M12.9996 12.4289C8.55001 12.4289 4.59961 11.2861 4.59961 11.2861V4.42892C4.59961 4.04492 4.80241 3.68492 5.14081 3.47463C5.47681 3.26206 5.90521 3.22549 6.27481 3.37978C8.06401 4.11578 9.98281 4.47349 12.1392 4.47349C12.426 4.47349 12.7128 4.44492 12.9996 4.43349V12.4289ZM12.9996 12.4289C16.8996 12.4289 21.3996 11.2861 21.3996 11.2861M12.9996 12.4289V20.4289M21.3996 11.2861V19.2861M21.3996 11.2861V3.13978C24.0348 2.60378 26.7396 2.09863 29.46 2.09863C29.5764 2.09863 29.6844 2.1112 29.7996 2.11349V10.1432M21.3996 11.2861C21.3996 11.2861 24 10.1432 29.7996 10.1432M12.9996 20.4289C16.5996 20.4289 21.3996 19.2861 21.3996 19.2861M12.9996 20.4289V28.4289H11.1084C9.03241 28.3272 7.12441 27.9329 5.32441 27.1923C4.88401 27.0118 4.59961 26.5992 4.59961 26.1432V19.2861C4.59961 19.2861 7.99921 20.4289 12.9996 20.4289ZM21.3996 19.2861V27.1901C24.1752 26.6198 26.8128 26.0986 29.46 26.0986C29.5764 26.0986 29.6844 26.1112 29.7996 26.1135V18.1432M21.3996 19.2861C21.3996 19.2861 24.3996 18.1432 29.7996 18.1432M29.7996 10.1432C33.1224 10.1432 35.6232 10.7455 36.9996 11.1809V19.2335C35.5836 18.7832 33.0108 18.1432 29.7996 18.1432M29.7996 10.1432V18.1432" stroke="#1E232C" stroke-width="1.4" stroke-linejoin="round"/>
</g>
</g>
</svg>
