<svg width="43" height="42" viewBox="0 0 43 42" fill="none" xmlns="http://www.w3.org/2000/svg">
<g id="Emoji">
<path id="Vector" d="M41.4004 29.8894C41.4004 32.3438 39.2933 34.3338 36.6945 34.3338H6.10627C3.50745 34.3338 1.40039 32.3438 1.40039 29.8894V8.01493C1.40039 5.56049 8.21333 1.00049 10.8122 1.00049H35.0769C38.7169 1.00049 41.4004 3.56938 41.4004 6.97271V29.8894Z" fill="#C1694F" stroke="#1E232C" stroke-width="1.4" stroke-linejoin="round"/>
<path id="Vector_2" d="M39.048 34.3337C39.048 36.7881 36.941 38.7781 34.3421 38.7781H8.45979C5.86097 38.7781 3.75391 36.7881 3.75391 34.3337V7.66701C3.75391 3.09034 3.7292 3.22256 9.63626 3.22256H34.3421C36.941 3.22256 39.048 5.21256 39.048 7.66701V34.3337Z" fill="#CCD6DD" stroke="#1E232C" stroke-width="1.4" stroke-linejoin="round"/>
<path id="Vector_3" d="M36.6945 35.4448C36.6945 37.2859 35.1145 38.7782 33.1651 38.7782H4.9298C2.98039 38.7782 1.40039 37.2859 1.40039 35.4448V8.77816C1.40039 6.93705 2.98039 5.44482 4.9298 5.44482H33.1651C35.1145 5.44482 36.6945 6.93705 36.6945 8.77816V35.4448Z" fill="#E1E8ED" stroke="#1E232C" stroke-width="1.4" stroke-linejoin="round"/>
<path id="Vector_4" d="M36.6938 36.5559C36.6938 39.0103 34.5868 41.0003 31.9879 41.0003H7.28205C4.68323 41.0003 2.57617 39.0103 2.57617 36.5559V12.1114C2.57617 9.65699 4.68323 7.66699 7.28205 7.66699H31.9879C34.5868 7.66699 36.6938 9.65699 36.6938 12.1114V36.5559Z" fill="#C1694F" stroke="#1E232C" stroke-width="1.4" stroke-linejoin="round"/>
<path id="Vector_5" d="M34.3409 36.5558C34.3409 39.0103 32.2338 41.0003 29.635 41.0003H7.28205C4.68323 41.0003 2.57617 39.0103 2.57617 36.5558V14.3336C2.57617 11.8792 4.68323 9.88916 7.28205 9.88916H30.0291C32.6279 9.88916 34.3409 11.5069 34.3409 13.9614V36.5558Z" fill="#D99E82" stroke="#1E232C" stroke-width="1.4" stroke-linejoin="round"/>
<path id="Vector_6" d="M7.28274 7.66716C5.29686 7.66716 5.24627 5.5316 6.10627 4.6116C7.0851 3.56604 8.60627 3.22271 11.3274 3.22271H13.1651V1.00049H9.96627C5.29686 1.00049 1.40039 3.77827 1.40039 6.97271V36.556C1.40039 39.0105 3.50745 41.0005 6.10627 41.0005H8.45921V7.66716H7.28274Z" fill="#C1694F" stroke="#1E232C" stroke-width="1.4" stroke-linejoin="round"/>
<path id="Vector_7" d="M29.6356 21.0006C29.6356 22.2273 28.5815 23.2228 27.2827 23.2228H15.518C14.2192 23.2228 13.165 22.2273 13.165 21.0006V18.7784C13.165 17.5517 14.2192 16.5562 15.518 16.5562H27.2827C28.5815 16.5562 29.6356 17.5517 29.6356 18.7784V21.0006Z" fill="#E1E8ED" stroke="#1E232C" stroke-width="1.4" stroke-linejoin="round"/>
</g>
</svg>
