<svg width="42" height="42" viewBox="0 0 42 42" fill="none" xmlns="http://www.w3.org/2000/svg">
<g id="Emoji">
<path id="Vector" d="M41 29.8894C41 32.3438 38.8929 34.3338 36.2941 34.3338H5.70588C3.10706 34.3338 1 32.3438 1 29.8894V8.01493C1 5.56049 7.81294 1.00049 10.4118 1.00049H34.6765C38.3165 1.00049 41 3.56938 41 6.97271V29.8894Z" fill="#A0041E" stroke="#1E232C" stroke-width="1.4" stroke-linejoin="round"/>
<path id="Vector_2" d="M38.6476 34.3337C38.6476 36.7881 36.5406 38.7781 33.9418 38.7781H8.0594C5.46058 38.7781 3.35352 36.7881 3.35352 34.3337V7.66701C3.35352 3.09034 3.32881 3.22256 9.23587 3.22256H33.9418C36.5406 3.22256 38.6476 5.21256 38.6476 7.66701V34.3337Z" fill="#CCD6DD" stroke="#1E232C" stroke-width="1.4" stroke-linejoin="round"/>
<path id="Vector_3" d="M36.2941 35.4448C36.2941 37.2859 34.7141 38.7782 32.7647 38.7782H4.52941C2.58 38.7782 1 37.2859 1 35.4448V8.77816C1 6.93705 2.58 5.44482 4.52941 5.44482H32.7647C34.7141 5.44482 36.2941 6.93705 36.2941 8.77816V35.4448Z" fill="#E1E8ED" stroke="#1E232C" stroke-width="1.4" stroke-linejoin="round"/>
<path id="Vector_4" d="M36.2934 36.5559C36.2934 39.0103 34.1864 41.0003 31.5875 41.0003H6.88166C4.28284 41.0003 2.17578 39.0103 2.17578 36.5559V12.1114C2.17578 9.65699 4.28284 7.66699 6.88166 7.66699H31.5875C34.1864 7.66699 36.2934 9.65699 36.2934 12.1114V36.5559Z" fill="#BE1931" stroke="#1E232C" stroke-width="1.4" stroke-linejoin="round"/>
<path id="Vector_5" d="M33.9405 36.5558C33.9405 39.0103 31.8334 41.0003 29.2346 41.0003H6.88166C4.28284 41.0003 2.17578 39.0103 2.17578 36.5558V14.3336C2.17578 11.8792 4.28284 9.88916 6.88166 9.88916H29.6287C32.2275 9.88916 33.9405 11.5069 33.9405 13.9614V36.5558Z" fill="#DD2E44" stroke="#1E232C" stroke-width="1.4" stroke-linejoin="round"/>
<path id="Vector_6" d="M6.88235 7.66716C4.89647 7.66716 4.84588 5.5316 5.70588 4.6116C6.68471 3.56604 8.20588 3.22271 10.9271 3.22271H12.7647V1.00049H9.56588C4.89647 1.00049 1 3.77827 1 6.97271V36.556C1 39.0105 3.10706 41.0005 5.70588 41.0005H8.05882V7.66716H6.88235Z" fill="#A0041E" stroke="#1E232C" stroke-width="1.4" stroke-linejoin="round"/>
</g>
</svg>
