<svg width="42" height="42" viewBox="0 0 42 42" fill="none" xmlns="http://www.w3.org/2000/svg">
<g id="Emoji">
<path id="Vector" d="M41 29.8894C41 32.3438 39.0054 34.3338 36.5453 34.3338H9.81702C7.3569 34.3338 5.3623 32.3438 5.3623 29.8894V8.01493C5.3623 5.56049 11.8116 1.00049 14.2717 1.00049H35.014C38.4597 1.00049 41 3.56938 41 6.97271V29.8894Z" fill="#F4900C" stroke="#1E232C" stroke-width="1.4" stroke-linejoin="round"/>
<path id="Vector_2" d="M38.7729 34.3337C38.7729 36.7881 36.7783 38.7781 34.3181 38.7781H12.0446C9.58444 38.7781 7.58985 36.7881 7.58985 34.3337V7.66701C7.58985 3.09034 7.56646 3.22256 13.1582 3.22256H34.3181C36.7783 3.22256 38.7729 5.21256 38.7729 7.66701V34.3337Z" fill="#CCD6DD" stroke="#1E232C" stroke-width="1.4" stroke-linejoin="round"/>
<path id="Vector_3" d="M36.5453 35.4448C36.5453 37.2859 35.0496 38.7782 33.2043 38.7782H8.70334C6.85798 38.7782 5.3623 37.2859 5.3623 35.4448V8.77816C5.3623 6.93705 6.85798 5.44482 8.70334 5.44482H33.2043C35.0496 5.44482 36.5453 6.93705 36.5453 8.77816V35.4448Z" fill="#E1E8ED" stroke="#1E232C" stroke-width="1.4" stroke-linejoin="round"/>
<path id="Vector_4" d="M36.5459 36.5559C36.5459 39.0103 34.5513 41.0003 32.0912 41.0003H10.9313C8.47116 41.0003 6.47656 39.0103 6.47656 36.5559V12.1114C6.47656 9.65699 8.47116 7.66699 10.9313 7.66699H32.0912C34.5513 7.66699 36.5459 9.65699 36.5459 12.1114V36.5559Z" fill="#FFAC33" stroke="#1E232C" stroke-width="1.4" stroke-linejoin="round"/>
<path id="Vector_5" d="M34.4318 34.6511C34.4318 36.9302 32.4372 38.778 29.9771 38.778H11.0446C8.58444 38.778 6.58984 36.9302 6.58984 34.6511V14.0161C6.58984 11.737 8.58444 9.88916 11.0446 9.88916H30.3502C32.8103 9.88916 34.4318 11.3914 34.4318 13.6705V34.6511Z" fill="#FFCC4D"/>
<path id="Vector_6" d="M10.9307 7.66716C9.05081 7.66716 9.00292 5.5316 9.81702 4.6116C10.7436 3.56604 12.1836 3.22271 14.7595 3.22271H16.4991V1.00049H13.471C9.05081 1.00049 5.3623 3.77827 5.3623 6.97271V36.556C5.3623 39.0105 7.3569 41.0005 9.81702 41.0005H12.0444V7.66716H10.9307Z" fill="#F4900C" stroke="#1E232C" stroke-width="1.4" stroke-linejoin="round"/>
<path id="Vector_7" d="M10.4212 37.6437C10.4212 38.4237 9.67834 39.0559 8.76178 39.0559C7.84634 39.0559 7.10352 38.4237 7.10352 37.6437C7.10352 36.8648 7.84634 36.2314 8.76178 36.2314C9.67834 36.2314 10.4212 36.8637 10.4212 37.6437Z" fill="#662113" stroke="#1E232C" stroke-width="1.4" stroke-linejoin="round"/>
<path id="Vector_8" d="M8.58527 36.8571C8.0507 36.9182 7.70323 37.2737 7.45265 37.6671C7.11076 38.2059 6.33118 38.7782 5.36228 38.7782C4.13278 38.7782 3.13492 38.0326 3.13492 37.1115C3.13492 36.1904 4.13278 35.4448 5.36228 35.4448V33.2271C2.94894 33.2504 1 34.9771 1 37.1115C1 39.2604 2.97344 41.0004 5.40794 41.0004C7.4727 41.0004 9.13542 39.8393 9.7524 38.1459C10.0609 37.3026 9.23009 36.7859 8.58527 36.8571Z" fill="#66757F" stroke="#1E232C" stroke-width="1.4" stroke-linejoin="round"/>
<path id="Vector_9" d="M10.4212 28.755C10.4212 29.535 9.67834 30.1672 8.76178 30.1672C7.84634 30.1672 7.10352 29.535 7.10352 28.755C7.10352 27.9761 7.84634 27.3428 8.76178 27.3428C9.67834 27.3428 10.4212 27.975 10.4212 28.755Z" fill="#662113" stroke="#1E232C" stroke-width="1.4" stroke-linejoin="round"/>
<path id="Vector_10" d="M8.58527 27.9684C8.0507 28.0295 7.70323 28.385 7.45265 28.7784C7.11076 29.3173 6.33118 29.8895 5.36228 29.8895C4.13278 29.8895 3.13492 29.1439 3.13492 28.2228C3.13492 27.3017 4.13278 26.5562 5.36228 26.5562V24.3384C2.94894 24.3617 1 26.0884 1 28.2228C1 30.3717 2.97344 32.1117 5.40794 32.1117C7.4727 32.1117 9.13542 30.9506 9.7524 29.2573C10.0609 28.4139 9.23009 27.8973 8.58527 27.9684Z" fill="#66757F" stroke="#1E232C" stroke-width="1.4" stroke-linejoin="round"/>
<path id="Vector_11" d="M10.4212 19.8658C10.4212 20.6458 9.67834 21.2781 8.76178 21.2781C7.84634 21.2781 7.10352 20.6458 7.10352 19.8658C7.10352 19.0869 7.84634 18.4536 8.76178 18.4536C9.67834 18.4536 10.4212 19.0858 10.4212 19.8658Z" fill="#662113" stroke="#1E232C" stroke-width="1.4" stroke-linejoin="round"/>
<path id="Vector_12" d="M8.58527 19.0792C8.0507 19.1403 7.70323 19.4959 7.45265 19.8892C7.11076 20.4281 6.33118 21.0003 5.36228 21.0003C4.13278 21.0003 3.13492 20.2548 3.13492 19.3337C3.13492 18.4126 4.13278 17.667 5.36228 17.667V15.4492C2.94894 15.4726 1 17.1992 1 19.3337C1 21.4826 2.97344 23.2226 5.40794 23.2226C7.4727 23.2226 9.13542 22.0614 9.7524 20.3681C10.0609 19.5248 9.23009 19.0081 8.58527 19.0792Z" fill="#66757F" stroke="#1E232C" stroke-width="1.4" stroke-linejoin="round"/>
<path id="Vector_13" d="M10.4212 10.9772C10.4212 11.7572 9.67834 12.3894 8.76178 12.3894C7.84634 12.3894 7.10352 11.7572 7.10352 10.9772C7.10352 10.1983 7.84634 9.56494 8.76178 9.56494C9.67834 9.56494 10.4212 10.1972 10.4212 10.9772Z" fill="#662113" stroke="#1E232C" stroke-width="1.4" stroke-linejoin="round"/>
<path id="Vector_14" d="M8.58527 10.1905C8.0507 10.2517 7.70323 10.6072 7.45265 11.0005C7.11076 11.5394 6.33118 12.1117 5.36228 12.1117C4.13278 12.1117 3.13492 11.3661 3.13492 10.445C3.13492 9.52388 4.13278 8.77832 5.36228 8.77832V6.56055C2.95005 6.58277 1 8.31055 1 10.445C1 12.5939 2.97344 14.3339 5.40794 14.3339C7.4727 14.3339 9.13542 13.1728 9.7524 11.4794C10.0609 10.6361 9.23009 10.1194 8.58527 10.1905Z" fill="#66757F" stroke="#1E232C" stroke-width="1.4" stroke-linejoin="round"/>
</g>
</svg>
