<svg width="43" height="42" viewBox="0 0 43 42" fill="none" xmlns="http://www.w3.org/2000/svg">
<g id="Emoji">
<path id="Vector" d="M41.5996 29.8894C41.5996 32.3438 39.4926 34.3338 36.8937 34.3338H6.30549C3.70667 34.3338 1.59961 32.3438 1.59961 29.8894V8.01493C1.59961 5.56049 8.41255 1.00049 11.0114 1.00049H35.2761C38.9161 1.00049 41.5996 3.56938 41.5996 6.97271V29.8894Z" fill="#F4900C" stroke="#1E232C" stroke-width="1.4" stroke-linejoin="round"/>
<path id="Vector_2" d="M39.2472 34.3337C39.2472 36.7881 37.1402 38.7781 34.5414 38.7781H8.65901C6.06019 38.7781 3.95313 36.7881 3.95313 34.3337V7.66701C3.95313 3.09034 3.92842 3.22256 9.83548 3.22256H34.5414C37.1402 3.22256 39.2472 5.21256 39.2472 7.66701V34.3337Z" fill="#CCD6DD" stroke="#1E232C" stroke-width="1.4" stroke-linejoin="round"/>
<path id="Vector_3" d="M36.8937 35.4448C36.8937 37.2859 35.3137 38.7782 33.3643 38.7782H5.12902C3.17961 38.7782 1.59961 37.2859 1.59961 35.4448V8.77816C1.59961 6.93705 3.17961 5.44482 5.12902 5.44482H33.3643C35.3137 5.44482 36.8937 6.93705 36.8937 8.77816V35.4448Z" fill="#E1E8ED" stroke="#1E232C" stroke-width="1.4" stroke-linejoin="round"/>
<path id="Vector_4" d="M36.893 36.5559C36.893 39.0103 34.786 41.0003 32.1872 41.0003H7.48127C4.88245 41.0003 2.77539 39.0103 2.77539 36.5559V12.1114C2.77539 9.65699 4.88245 7.66699 7.48127 7.66699H32.1872C34.786 7.66699 36.893 9.65699 36.893 12.1114V36.5559Z" fill="#F4900C" stroke="#1E232C" stroke-width="1.4" stroke-linejoin="round"/>
<path id="Vector_5" d="M34.6612 34.6511C34.6612 36.9302 32.5541 38.778 29.9553 38.778H7.60237C5.00354 38.778 2.89648 36.9302 2.89648 34.6511V14.0161C2.89648 11.737 5.00354 9.88916 7.60237 9.88916H30.3494C32.9482 9.88916 34.6612 11.3914 34.6612 13.6705V34.6511Z" fill="#FFAC33"/>
<path id="Vector_6" d="M7.48196 7.66716C5.49608 7.66716 5.44549 5.5316 6.30549 4.6116C7.28432 3.56604 8.80549 3.22271 11.5267 3.22271H13.3643V1.00049H10.1655C5.49608 1.00049 1.59961 3.77827 1.59961 6.97271V36.556C1.59961 39.0105 3.70667 41.0005 6.30549 41.0005H8.65843V7.66716H7.48196Z" fill="#F4900C" stroke="#1E232C" stroke-width="1.4" stroke-linejoin="round"/>
</g>
</svg>
