<svg width="43" height="38" viewBox="0 0 43 38" fill="none" xmlns="http://www.w3.org/2000/svg">
<g id="Emoji">
<path id="Vector" d="M41.4004 11.2005C41.4004 5.73089 36.4726 1.28009 30.2893 1.02569V1.00049H12.5115V1.02569C6.32817 1.28009 1.40039 5.73089 1.40039 11.2005C1.40039 13.4337 2.23039 15.4917 3.62261 17.1717V32.2005C3.62261 34.8513 5.61261 37.0005 8.06706 37.0005H34.7337C37.1882 37.0005 39.1782 34.8513 39.1782 32.2005V17.1717C40.5704 15.4917 41.4004 13.4337 41.4004 11.2005Z" fill="#D99E82" stroke="#1E232C" stroke-width="1.4" stroke-linejoin="round"/>
<path id="Vector_2" d="M24.7344 17.8006C24.7344 17.1378 25.2716 16.6006 25.9344 16.6006H35.7566C36.4193 16.6006 36.9566 17.1378 36.9566 17.8006C36.9566 18.4633 36.4193 19.0006 35.7566 19.0006H25.9344C25.2716 19.0006 24.7344 18.4633 24.7344 17.8006Z" fill="#B67D65"/>
<path id="Vector_3" d="M24.7342 11.2004C24.7342 7.04719 20.803 3.65119 15.8453 3.41359C15.6619 3.40519 13.2542 3.40039 13.0675 3.40039C7.85194 3.40039 3.62305 6.89239 3.62305 11.2004C3.62305 13.1144 4.46082 14.864 5.84527 16.2212V31.0004C5.84527 32.9888 7.33749 34.6004 9.1786 34.6004H19.1786C21.0197 34.6004 22.5119 32.9888 22.5119 31.0004V16.2152C23.8942 14.858 24.7342 13.112 24.7342 11.2004Z" fill="#FFE8B6"/>
</g>
</svg>
