<svg width="43" height="42" viewBox="0 0 43 42" fill="none" xmlns="http://www.w3.org/2000/svg">
<g id="Emoji">
<path id="Vector" d="M15.9562 4.98153C15.3506 0.333624 9.53814 0.0769906 8.82984 2.55777L7.76567 7.16689L3.15656 8.23106C0.675781 8.93937 0.933554 14.7518 5.58031 15.3575L9.06366 15.8126C13.7104 16.4182 17.017 13.1128 16.4102 8.46603L15.9562 4.98153ZM37.6194 26.6425C42.2662 27.2481 42.5228 33.0628 40.0432 33.77L35.434 34.8342L34.3687 39.4444C33.6616 41.9241 27.848 41.6663 27.2423 37.0195L26.7884 33.535C26.1827 28.8883 29.4882 25.5817 34.1349 26.1885L37.6194 26.6425Z" fill="#DD2E44" stroke="#1E232C" stroke-width="1.4" stroke-linejoin="round"/>
<path id="Vector_2" d="M35.5656 26.3746L34.1353 26.1875C29.4886 25.5818 26.182 28.8873 26.7888 33.534L26.888 34.2948C28.7381 33.9891 30.8231 32.885 32.6069 31.1012C34.0783 29.6321 35.0843 27.9554 35.5656 26.3746ZM8.66602 15.7602L9.06408 15.8127C13.7108 16.4184 17.0174 13.1129 16.4106 8.46616L16.2749 7.42822C14.7727 7.93807 13.1987 8.91555 11.8095 10.3059C10.11 12.0043 9.02986 13.9775 8.66602 15.7602Z" fill="#BE1931" stroke="#1E232C" stroke-width="1.4" stroke-linejoin="round"/>
<path id="Vector_3" d="M22.208 32.853C28.9173 32.853 34.3564 27.414 34.3564 20.7046C34.3564 13.9952 28.9173 8.55615 22.208 8.55615C15.4986 8.55615 10.0596 13.9952 10.0596 20.7046C10.0596 27.414 15.4986 32.853 22.208 32.853Z" fill="#DD2E44" stroke="#1E232C" stroke-width="1.4" stroke-linejoin="round"/>
<g id="Group">
<path id="Vector_4" d="M22.1753 20.3362C22.6201 23.693 21.4545 28.0238 19.2178 30.7065C20.1759 30.9916 21.1796 31.141 22.2073 31.141C23.041 31.141 23.8577 31.0327 24.6481 30.8433C25.2903 27.8938 24.9401 24.0831 22.1753 20.3362ZM22.1753 20.3362C26.0613 21.0605 29.2835 24.0842 29.9074 27.7318C31.4198 26.078 32.3516 24.0238 32.5843 21.8122C30.4617 19.6576 26.9932 18.1531 22.1753 20.3362ZM22.1753 20.3362C23.3718 17.7482 27.3182 15.3884 31.113 15.2743C30.6852 14.5751 30.1822 13.917 29.588 13.3227C28.7132 12.4479 27.7163 11.7738 26.6555 11.2754C23.9489 12.6909 21.5776 15.4351 22.1753 20.3362Z" fill="#F5F8FA"/>
<path id="Vector_5" d="M22.2233 20.3842C19.0183 18.695 17.0029 14.6356 17.8697 11.2241C16.7679 11.726 15.7323 12.4183 14.8278 13.3228C14.1856 13.965 13.6564 14.6767 13.2173 15.4261C14.6852 17.6605 17.499 19.7934 22.2233 20.3842ZM22.1275 20.3842C19.1962 22.1601 15.0205 23.1113 11.9102 22.3038C12.1782 24.0615 12.8933 25.7598 14.0613 27.2186C16.7691 26.4088 19.8384 24.3637 22.1275 20.3842Z" fill="#F5F8FA"/>
</g>
</g>
</svg>
