<svg width="42" height="42" viewBox="0 0 42 42" fill="none" xmlns="http://www.w3.org/2000/svg">
<g id="Emoji">
<path id="Vector" d="M30.6766 27.6668C30.4211 27.6668 30.1644 27.6013 29.9386 27.4657C21.496 22.3769 14.2405 13.7258 10.0715 8.08924C12.2637 19.7869 11.3579 26.3757 11.3128 26.6935C11.225 27.3024 10.5876 27.7268 9.87404 27.6579C9.16695 27.5824 8.66501 27.0279 8.75275 26.419C8.76437 26.3313 9.96049 17.4936 6.19017 2.34375C6.05469 1.80264 6.40436 1.25709 7.00824 1.06821C7.60953 0.877096 8.28695 1.09932 8.59017 1.5882C8.69211 1.75264 18.9218 18.1136 31.4173 25.6457C32.0018 25.9968 32.1424 26.6902 31.7347 27.1924C31.4844 27.5024 31.0844 27.6668 30.6766 27.6668Z" fill="#77B255" stroke="#1E232C" stroke-width="1.4" stroke-linejoin="round"/>
<path id="Vector_2" d="M31.3829 10.798C26.8977 11.8646 24.8655 13.6268 17.5132 11.5391C11.4229 9.80908 8.43322 6.86467 9.32612 4.53358C10.219 2.2025 13.4293 1.01918 19.5197 2.74916C25.6474 4.49025 24.8397 6.60023 31.3829 10.798Z" fill="#5C913B" stroke="#1E232C" stroke-width="1.4" stroke-linejoin="round"/>
<path id="Vector_3" d="M30.678 41.0002C36.3791 41.0002 41.0006 37.0206 41.0006 32.1115C41.0006 27.2023 36.3791 23.2227 30.678 23.2227C24.977 23.2227 20.3555 27.2023 20.3555 32.1115C20.3555 37.0206 24.977 41.0002 30.678 41.0002Z" fill="#BE1931" stroke="#1E232C" stroke-width="1.4" stroke-linejoin="round"/>
<path id="Vector_4" d="M11.3226 41.0002C17.0236 41.0002 21.6452 37.0206 21.6452 32.1115C21.6452 27.2023 17.0236 23.2227 11.3226 23.2227C5.62158 23.2227 1 27.2023 1 32.1115C1 37.0206 5.62158 41.0002 11.3226 41.0002Z" fill="#BE1931" stroke="#1E232C" stroke-width="1.4" stroke-linejoin="round"/>
</g>
</svg>
