<svg width="42" height="42" viewBox="0 0 42 42" fill="none" xmlns="http://www.w3.org/2000/svg">
<g id="Emoji">
<path id="Vector" d="M21.2002 41.0005C32.2459 41.0005 41.2002 32.0462 41.2002 21.0005C41.2002 9.95479 32.2459 1.00049 21.2002 1.00049C10.1545 1.00049 1.2002 9.95479 1.2002 21.0005C1.2002 32.0462 10.1545 41.0005 21.2002 41.0005Z" fill="#C1694F" stroke="#1E232C" stroke-width="1.4" stroke-linejoin="round"/>
<path id="Vector_2" d="M32.4422 30.8111C31.8926 31.1996 31.1414 31.0557 30.7658 30.4879C30.3891 29.9224 30.5297 29.1468 31.0782 28.7596L33.0694 27.3534C33.6179 26.9662 34.3678 27.1101 34.7446 27.6767C35.1202 28.2421 34.9807 29.0178 34.431 29.4037L32.4422 30.8111ZM35.3491 22.0901C34.7386 21.8356 34.4453 21.1165 34.6945 20.4884C34.9437 19.8603 35.64 19.5579 36.2493 19.8136L38.4575 20.7416C39.0667 20.9973 39.3601 21.7139 39.1121 22.3433C38.8641 22.9726 38.1677 23.275 37.5573 23.0181L35.3491 22.0901ZM29.9908 15.6295C29.372 15.3713 29.0763 14.6449 29.3291 14.0094C29.5783 13.3739 30.2841 13.0678 30.8982 13.326L33.1338 14.2651C33.749 14.5244 34.0459 15.2496 33.7943 15.8851C33.5427 16.5206 32.8405 16.8267 32.2228 16.5673L29.9908 15.6295ZM4.95094 24.2338C4.33451 23.9756 4.03763 23.2492 4.2904 22.6137C4.54078 21.9782 5.24545 21.6721 5.86068 21.9303L8.09389 22.8694C8.71151 23.1287 9.00721 23.8539 8.75682 24.4894C8.50524 25.1262 7.80058 25.4322 7.18535 25.1729L4.95094 24.2338ZM9.19202 16.6755C8.64236 17.0639 7.8912 16.9201 7.51562 16.351C7.14004 15.7856 7.27954 15.0112 7.82801 14.624L9.81918 13.2178C10.3676 12.8306 11.1176 12.9744 11.4944 13.5411C11.87 14.1065 11.7305 14.8821 11.1808 15.2693L9.19202 16.6755ZM19.9563 21.2714C19.0418 20.8879 18.6006 19.8111 18.9738 18.8671C19.3482 17.9256 20.3915 17.472 21.306 17.8555L24.6182 19.2494C25.5327 19.6329 25.9727 20.7072 25.6007 21.65C25.2287 22.594 24.1842 23.0476 23.2685 22.6629L19.9563 21.2714ZM12.583 28.7105C13.2054 28.4658 13.9017 28.7867 14.1401 29.4308C14.375 30.0687 14.0614 30.789 13.4391 31.0324L11.1832 31.9186C10.5644 32.1632 9.86687 31.8412 9.63079 31.1983C9.39233 30.5542 9.70472 29.8376 10.3283 29.5918L12.583 28.7105Z" fill="#E29386"/>
<path id="Vector_3" d="M28.7002 20.0005H13.7002C12.3202 20.0005 11.2002 21.1205 11.2002 22.5005V37.498C14.1814 39.0917 17.5827 40.0005 21.2002 40.0005C24.8164 40.0005 28.2189 39.0917 31.2002 37.498V22.5005C31.2002 21.1205 30.0802 20.0005 28.7002 20.0005Z" fill="#292F33" stroke="#1E232C" stroke-width="1.4" stroke-linejoin="round"/>
</g>
</svg>
