<svg width="42" height="38" viewBox="0 0 42 38" fill="none" xmlns="http://www.w3.org/2000/svg">
<g id="Emoji">
<path id="Vector" d="M15.2442 1.00049H8.57758L0.799805 11.8005H11.9109L15.2442 1.00049Z" fill="#BDDDF4" stroke="#1E232C" stroke-width="1.4" stroke-linejoin="round"/>
<path id="Vector_2" d="M40.7999 11.8005L33.0221 1.00049H26.3555L29.6888 11.8005H40.7999Z" fill="#5DADEC" stroke="#1E232C" stroke-width="1.4" stroke-linejoin="round"/>
<path id="Vector_3" d="M29.6887 11.8003H40.7998L20.7998 37.0003L29.6887 11.8003Z" fill="#4289C1" stroke="#1E232C" stroke-width="1.4" stroke-linejoin="round"/>
<g id="Vector_4">
<path d="M11.9109 11.8005H0.799805L20.7998 37.0005L11.9109 11.8005ZM15.2442 1.00049L11.9109 11.8005H29.6887L26.3554 1.00049H15.2442Z" fill="#8CCAF7"/>
<path d="M11.9109 11.8005H0.799805L20.7998 37.0005L11.9109 11.8005ZM11.9109 11.8005L15.2442 1.00049H26.3554L29.6887 11.8005H11.9109Z" stroke="#1E232C" stroke-width="1.4" stroke-linejoin="round"/>
</g>
<path id="Vector_5" d="M20.8 37.0003L11.9111 11.8003H29.6889L20.8 37.0003Z" fill="#5DADEC" stroke="#1E232C" stroke-width="1.4" stroke-linejoin="round"/>
</g>
</svg>
