<svg width="42" height="34" viewBox="0 0 42 34" fill="none" xmlns="http://www.w3.org/2000/svg">
<g id="Emoji">
<path id="Vector" d="M1 28.0773C1 29.383 1.46825 30.6352 2.30175 31.5584C3.13524 32.4817 4.2657 33.0004 5.44444 33.0004H36.5556C37.7343 33.0004 38.8648 32.4817 39.6983 31.5584C40.5317 30.6352 41 29.383 41 28.0773V27.4619H1V28.0773Z" fill="#880082" stroke="#1E232C" stroke-width="1.4" stroke-linejoin="round"/>
<path id="Vector_2" d="M1 22.0093H41V27.6708H1V22.0093Z" fill="#3558A0" stroke="#1E232C" stroke-width="1.4" stroke-linejoin="round"/>
<path id="Vector_3" d="M1 16.7915H41V22.33H1V16.7915Z" fill="#138F3E" stroke="#1E232C" stroke-width="1.4" stroke-linejoin="round"/>
<path id="Vector_4" d="M1 11.4619H41V17.0004H1V11.4619Z" fill="#FAD220" stroke="#1E232C" stroke-width="1.4" stroke-linejoin="round"/>
<path id="Vector_5" d="M1 6.13281H41V11.6713H1V6.13281Z" fill="#FF7300" stroke="#1E232C" stroke-width="1.4" stroke-linejoin="round"/>
<path id="Vector_6" d="M36.5556 1.00049H5.44444C4.2657 1.00049 3.13524 1.51917 2.30175 2.44242C1.46825 3.36568 1 4.61788 1 5.92357L1 6.32972H41V5.92357C41 4.61788 40.5317 3.36568 39.6983 2.44242C38.8648 1.51917 37.7343 1.00049 36.5556 1.00049Z" fill="#FF000E" stroke="#1E232C" stroke-width="1.4" stroke-linejoin="round"/>
</g>
</svg>
