<svg width="42" height="38" viewBox="0 0 42 38" fill="none" xmlns="http://www.w3.org/2000/svg">
<g id="Emoji">
<path id="Vector" d="M18.7782 7.52325C20.0004 7.52325 20.1816 6.98002 19.1793 6.31573L11.7104 1.36145C10.7082 0.697158 9.39378 0.976139 8.78712 1.98152L6.54712 5.69566C5.94045 6.70104 6.44489 7.52325 7.66712 7.52325H18.7782ZM23.2227 7.52325C22.0004 7.52325 21.8193 6.98002 22.8216 6.31573L30.2916 1.36145C31.2927 0.697158 32.6082 0.976139 33.2149 1.98152L35.4549 5.6946C36.0604 6.70104 35.556 7.52325 34.3338 7.52325H23.2227Z" fill="#DA2F47" stroke="#1E232C" stroke-width="1.4" stroke-linejoin="round"/>
<path id="Vector_2" d="M37.6673 32.7896C37.6673 35.1056 35.6673 37.0006 33.2229 37.0006H8.77843C6.33398 37.0006 4.33398 35.1056 4.33398 32.7896V14.8927C4.33398 12.5766 6.33398 10.6816 8.77843 10.6816H33.2229C35.6673 10.6816 37.6673 12.5766 37.6673 14.8927V32.7896Z" fill="#FDD888" stroke="#1E232C" stroke-width="1.4" stroke-linejoin="round"/>
<path id="Vector_3" d="M6.5166 16.792C6.5166 16.2106 6.98794 15.7393 7.56936 15.7393H34.3527C34.9342 15.7393 35.4055 16.2106 35.4055 16.792C35.4055 17.3734 34.9342 17.8448 34.3527 17.8448H7.56936C6.98794 17.8448 6.5166 17.3734 6.5166 16.792Z" fill="#FCAB40"/>
<path id="Vector_4" d="M41 11.734C41 14.0501 39 15.945 36.5556 15.945H5.44444C3 15.945 1 14.0501 1 11.734C1 9.41791 3 7.52295 5.44444 7.52295H36.5556C39 7.52295 41 9.41791 41 11.734Z" fill="#FDD888" stroke="#1E232C" stroke-width="1.4" stroke-linejoin="round"/>
<path id="Vector_5" d="M22.1112 3.31201H19.889C18.0479 3.31201 16.5557 4.72587 16.5557 6.47029V37.0003H25.4446V6.47029C25.4446 4.72692 23.9523 3.31201 22.1112 3.31201Z" fill="#DA2F47" stroke="#1E232C" stroke-width="1.4" stroke-linejoin="round"/>
</g>
</svg>
