<svg width="49" height="48" viewBox="0 0 49 48" fill="none" xmlns="http://www.w3.org/2000/svg">
<path d="M44.7998 33.2584C44.7998 44.462 35.848 43.9978 24.7998 43.9978C13.7516 43.9978 4.7998 44.462 4.7998 33.2584C4.7998 23.7123 14.2116 10.5863 20.0939 5.81328C23.3292 3.42675 26.128 3.36589 29.5057 5.81328C37.741 11.7796 44.7998 27.2921 44.7998 33.2584Z" fill="#EEEEEE" stroke="#1E232C" stroke-width="1.4" stroke-linejoin="round"/>
<path d="M35.6918 37.6041C35.1495 37.9812 34.4083 37.8416 34.0377 37.2903C33.666 36.7414 33.8048 35.9884 34.346 35.6126L36.3107 34.2475C36.8518 33.8716 37.5918 34.0112 37.9636 34.5613C38.3342 35.1102 38.1966 35.8632 37.6542 36.2378L35.6918 37.6041ZM38.5601 29.1379C37.9577 28.8909 37.6683 28.1928 37.9142 27.5831C38.1601 26.9721 38.8471 26.6786 39.4483 26.928L41.6271 27.8289C42.2283 28.0771 42.5177 28.7728 42.273 29.3837C42.0283 29.9947 41.3413 30.2882 40.7389 30.0388L38.5601 29.1379ZM33.273 22.8661C32.6624 22.6155 32.3707 21.9103 32.6201 21.2934C32.866 20.6765 33.5624 20.3793 34.1683 20.6299L36.3742 21.5416C36.9813 21.7934 37.2742 22.4974 37.026 23.1143C36.7777 23.7312 36.0848 24.0283 35.4754 23.7766L33.273 22.8661ZM8.56596 31.219C7.95773 30.9684 7.66479 30.2632 7.9142 29.6462C8.16126 29.0293 8.85655 28.7322 9.46361 28.9828L11.6671 29.8944C12.2766 30.1462 12.5683 30.8502 12.3213 31.4672C12.073 32.0853 11.3777 32.3824 10.7707 32.1306L8.56596 31.219ZM12.7507 23.8816C12.2083 24.2586 11.4671 24.119 11.0966 23.5666C10.726 23.0177 10.8636 22.2659 11.4048 21.89L13.3695 20.5249C13.9107 20.149 14.6507 20.2887 15.0224 20.8387C15.393 21.3876 15.2554 22.1406 14.713 22.5165L12.7507 23.8816ZM23.3718 28.3432C22.4695 27.9709 22.0342 26.9256 22.4024 26.0092C22.7718 25.0951 23.8013 24.6548 24.7036 25.0271L27.9718 26.3803C28.8742 26.7526 29.3083 27.7955 28.9413 28.7107C28.5742 29.6271 27.5436 30.0675 26.6401 29.694L23.3718 28.3432ZM16.0966 35.5648C16.7107 35.3274 17.3977 35.6388 17.633 36.2641C17.8648 36.8834 17.5554 37.5826 16.9413 37.8189L14.7154 38.6793C14.1048 38.9167 13.4166 38.6041 13.1836 37.98C12.9483 37.3547 13.2566 36.6591 13.8718 36.4204L16.0966 35.5648Z" fill="#CCD6DD"/>
<path d="M31.8583 27.292H17.7406C16.4418 27.292 15.3877 28.3612 15.3877 29.6785V43.7734C18.1924 44.0407 21.3959 43.9977 24.7995 43.9977C28.203 43.9977 31.4065 44.0407 34.2112 43.7734V29.6785C34.2112 28.3612 33.1571 27.292 31.8583 27.292Z" fill="#292F33" stroke="#1E232C" stroke-width="1.4" stroke-linejoin="round"/>
</svg>
