<svg width="43" height="42" viewBox="0 0 43 42" fill="none" xmlns="http://www.w3.org/2000/svg">
<g id="Emoji">
<path id="Vector" d="M11.8843 14.3341C11.7129 14.3341 11.538 14.2963 11.3746 14.2163C6.36891 11.7831 2.8215 5.85437 1.65922 2.46336C1.45808 1.88116 1.78265 1.25229 2.3815 1.05785C2.9815 0.862298 3.62836 1.17896 3.82721 1.76005C4.82949 4.68441 8.04205 10.112 12.3975 12.2286C12.962 12.5031 13.1906 13.1708 12.9083 13.7197C12.7072 14.1097 12.3037 14.3341 11.8843 14.3341Z" fill="#77B255" stroke="#1E232C" stroke-width="1.4" stroke-linejoin="round"/>
<path id="Vector_2" d="M22.1709 40.9999C26.5891 40.9999 30.1708 37.5178 30.1708 33.2224C30.1708 28.927 26.5891 25.4448 22.1709 25.4448C17.7526 25.4448 14.1709 28.927 14.1709 33.2224C14.1709 37.5178 17.7526 40.9999 22.1709 40.9999Z" fill="#553788" stroke="#1E232C" stroke-width="1.4" stroke-linejoin="round"/>
<path id="Vector_3" d="M11.8847 25.4447C16.303 25.4447 19.8847 21.9626 19.8847 17.6672C19.8847 13.3718 16.303 9.88965 11.8847 9.88965C7.46647 9.88965 3.88477 13.3718 3.88477 17.6672C3.88477 21.9626 7.46647 25.4447 11.8847 25.4447Z" fill="#9266CC" stroke="#1E232C" stroke-width="1.4" stroke-linejoin="round"/>
<path id="Vector_4" d="M22.1709 22.1117C26.5891 22.1117 30.1708 18.6296 30.1708 14.3342C30.1708 10.0388 26.5891 6.55664 22.1709 6.55664C17.7526 6.55664 14.1709 10.0388 14.1709 14.3342C14.1709 18.6296 17.7526 22.1117 22.1709 22.1117Z" fill="#AA8DD8" stroke="#1E232C" stroke-width="1.4" stroke-linejoin="round"/>
<path id="Vector_5" d="M31.3144 28.7782C35.7327 28.7782 39.3144 25.2961 39.3144 21.0007C39.3144 16.7053 35.7327 13.2231 31.3144 13.2231C26.8962 13.2231 23.3145 16.7053 23.3145 21.0007C23.3145 25.2961 26.8962 28.7782 31.3144 28.7782Z" fill="#744EAA" stroke="#1E232C" stroke-width="1.4" stroke-linejoin="round"/>
<path id="Vector_6" d="M10.7422 37.6664C15.1604 37.6664 18.7421 34.1843 18.7421 29.8889C18.7421 25.5935 15.1604 22.1113 10.7422 22.1113C6.32389 22.1113 2.74219 25.5935 2.74219 29.8889C2.74219 34.1843 6.32389 37.6664 10.7422 37.6664Z" fill="#744EAA" stroke="#1E232C" stroke-width="1.4" stroke-linejoin="round"/>
<path id="Vector_7" d="M21.0283 32.1112C25.4465 32.1112 29.0282 28.6291 29.0282 24.3337C29.0282 20.0383 25.4465 16.5562 21.0283 16.5562C16.61 16.5562 13.0283 20.0383 13.0283 24.3337C13.0283 28.6291 16.61 32.1112 21.0283 32.1112Z" fill="#9266CC" stroke="#1E232C" stroke-width="1.4" stroke-linejoin="round"/>
<path id="Vector_8" d="M33.5996 40.9999C38.0178 40.9999 41.5995 37.5178 41.5995 33.2224C41.5995 28.927 38.0178 25.4448 33.5996 25.4448C29.1813 25.4448 25.5996 28.927 25.5996 33.2224C25.5996 37.5178 29.1813 40.9999 33.5996 40.9999Z" fill="#9266CC" stroke="#1E232C" stroke-width="1.4" stroke-linejoin="round"/>
</g>
</svg>
