<svg width="42" height="40" viewBox="0 0 42 40" fill="none" xmlns="http://www.w3.org/2000/svg">
<g id="Emoji">
<path id="Vector" d="M40.9868 37.0005C40.9868 37.0005 40.0959 37.7712 38.0431 37.7712H22.7515C18.55 37.7712 17.6762 32.6339 13.9625 24.7343C10.2488 16.8336 5.98036 20.9874 5.98036 20.9874L4.57603 39.0005H3.09194C3.09194 39.0005 2.09421 23.5005 1.64715 21.0575C0.538764 15.0005 1.8409 11.0005 1.8409 11.0005L10.1922 11.668L21.8661 30.7518L40.9868 37.0005Z" fill="#292F33" stroke="#1E232C" stroke-width="1.4" stroke-linejoin="round"/>
<path id="Vector_2" d="M35.5898 29.9571C34.3191 29.5688 33.4954 29.1742 33.4954 29.1742C32.9232 29.8431 32.1197 29.9571 31.401 29.9571C27.1262 29.9571 24.91 28.008 22.3239 21.3479C16.737 6.96792 7.54366 1.00049 4.86701 1.00049C2.01602 1.00049 0.437969 15.8702 2.07413 15.8702C7.22291 15.8702 11.4787 17.0326 14.5007 20.5663C19.0192 25.8485 20.662 37.0005 23.5723 37.0005H41.1767C41.1767 37.0005 41.8741 31.9136 35.5898 29.9571Z" fill="#DD2E44" stroke="#1E232C" stroke-width="1.4" stroke-linejoin="round"/>
</g>
</svg>
