<svg width="32" height="42" viewBox="0 0 32 42" fill="none" xmlns="http://www.w3.org/2000/svg">
<g id="Emoji">
<path id="Vector" d="M15.2905 26.5H4.95508C4.95508 26.5 6.85403 33.7503 8.25473 37.3777C9.65543 41.0073 14.7165 41.0006 15.8646 41.0006C18.1593 41.0006 22.0737 41.0073 23.4744 37.3777C24.8737 33.7503 27.9235 26.5 27.9235 26.5H15.2905Z" fill="#FFCC4D" stroke="#1E232C" stroke-width="1.4" stroke-linejoin="round"/>
<path id="Vector_2" d="M16.6387 32.2329C20.5952 32.2329 23.3064 31.3952 24.7541 30.3088C25.1532 29.1264 25.5008 28.1036 25.7261 27.4433C25.5546 27.1644 25.2996 26.9 24.9599 26.6558H8.31751C7.92757 26.9369 7.64856 27.2425 7.48047 27.5671C7.60511 28.1337 7.78006 28.9212 7.99161 29.8392C9.23688 31.1443 12.1276 32.2329 16.6387 32.2329Z" fill="#FFAC33"/>
<path id="Vector_3" d="M3.80762 23.1538V26.5001C3.80762 28.3484 9.46376 29.8464 16.4392 29.8464C23.4146 29.8464 29.0708 28.3484 29.0708 26.5001V23.1538H3.80762Z" fill="#FFCC4D" stroke="#1E232C" stroke-width="1.4" stroke-linejoin="round"/>
<path id="Vector_4" d="M27.9235 23.7119C27.9235 25.2523 22.781 26.5005 16.4386 26.5005C10.0961 26.5005 4.95508 25.2523 4.95508 23.7119C4.95508 22.1715 10.0961 20.9233 16.4386 20.9233C22.781 20.9233 27.9235 22.1715 27.9235 23.7119Z" fill="#F4900C"/>
<path id="Vector_5" d="M28.9326 16.3588C29.2386 15.3115 29.1558 14.1938 28.5705 13.0772C28.0035 11.9964 27.0182 11.152 25.8253 10.5798C26.0919 9.78896 26.0414 8.94123 25.574 8.09462C24.8709 6.81746 23.3439 5.97196 21.6246 5.73772C21.8379 5.35736 21.9249 4.88999 21.6793 4.30105C20.8442 2.31335 17.5109 3.64963 15.0112 1.00049C12.9396 1.98764 12.5172 3.46336 12.6154 4.69814C10.7179 4.96696 9.62316 5.29155 9.62316 5.29155C8.48912 5.65629 7.68772 6.54083 7.68772 7.5726C7.68772 8.11916 7.9193 8.61999 8.29965 9.02824L7.62596 9.2279L7.62737 9.23013C5.68491 9.80681 4.31509 11.2011 4.31509 12.8319C4.31509 13.5257 4.58316 14.167 5.01684 14.7303C2.65053 15.5669 1 17.3962 1 19.5334C1 22.3164 3.79158 24.5729 7.32702 24.7893C11.0646 25.7106 18.5411 25.4585 24.2758 24.6878C27.6035 24.2416 31 22.6577 31 19.9751C31 18.5306 30.1916 17.2478 28.9326 16.3588Z" fill="#FFE8B6" stroke="#1E232C" stroke-width="1.4" stroke-linejoin="round"/>
<path id="Vector_6" d="M12.9362 19.6007C10.8575 20.1003 7.73744 20.2279 6.07812 19.8481C6.75094 21.2224 8.37777 22.1939 10.2867 22.1939C15.9894 22.1939 21.81 18.8978 21.81 18.8978C23.6373 17.9317 24.5681 16.4077 24.2684 14.8097C22.3733 17.0854 15.1097 19.0782 12.9362 19.6007ZM11.4375 16.4637C15.8354 16.4637 20.3233 14.0453 20.3233 14.0453C21.7924 13.307 22.5246 12.1242 22.1979 10.8981C16.6056 13.9855 11.4662 14.8932 8.35364 14.9941C8.94109 15.864 10.0946 16.4637 11.4375 16.4637ZM10.2292 10.4151C10.4482 11.1747 11.25 11.7397 12.2114 11.7397C12.8193 11.7397 13.429 11.6522 14.0081 11.5214C14.3645 11.43 14.7171 11.3323 15.0688 11.2259C16.42 10.7807 17.4047 10.2086 17.4047 10.2086C18.3847 9.67515 19.3934 8.73272 19.3934 8.73272C19.3934 8.73272 19.7359 8.0779 19.1614 7.69336C17.542 9.07077 12.3748 10.434 10.2292 10.4151Z" fill="#FFD983"/>
</g>
</svg>
