<svg width="42" height="42" viewBox="0 0 42 42" fill="none" xmlns="http://www.w3.org/2000/svg">
<g id="Emoji">
<path id="Vector" d="M19.446 25.9106H3.43359C3.43359 25.9106 6.21042 34.1389 10.5782 38.0975C13.5527 40.7919 18.5554 41.0003 20.3354 41.0003C23.8929 41.0003 28.4262 40.7792 31.4007 38.0826C36.5863 33.387 39.016 25.9106 39.016 25.9106H19.446Z" fill="#55ACEE" stroke="#1E232C" stroke-width="1.4" stroke-linejoin="round"/>
<path id="Vector_2" d="M37.1379 30.2666C37.9075 28.7651 38.4324 27.4881 38.7277 26.7109C38.5609 26.4346 38.3126 26.1674 38.0013 25.9106H4.4497C4.13965 26.1674 3.89137 26.4334 3.72461 26.7097C4.01736 27.4835 4.52999 28.7547 5.22296 30.2113C7.80091 31.9465 13.1557 33.3375 21.2268 33.3375C29.2089 33.3375 34.5278 31.9753 37.1379 30.2666Z" fill="#3B88C3" stroke="#1E232C" stroke-width="1.4" stroke-linejoin="round"/>
<path id="Vector_3" d="M1.20312 20.1533V25.2807C1.20312 27.9497 10.1599 30.1145 20.967 30.1145C31.7766 30.1145 40.7309 27.9497 40.7309 25.2807V20.1533H1.20312Z" fill="#55ACEE" stroke="#1E232C" stroke-width="1.4" stroke-linejoin="round"/>
<path id="Vector_4" d="M3.49701 22.7823C4.60997 23.1635 11.7645 25.5262 20.7892 25.5262C30.9503 25.5262 38.3963 23.4675 40.101 22.3264C41.8056 21.183 41.7414 11.2783 33.9803 7.46124C27.3532 4.2015 27.168 1.00049 20.8522 1.00049C11.3853 1.00164 -5.33867 19.7529 3.49701 22.7823Z" fill="#F9D2DC" stroke="#1E232C" stroke-width="1.4" stroke-linejoin="round"/>
<path id="Vector_5" d="M13.3683 14.1303C16.9628 18.6209 25.0821 16.1522 28.5531 13.0076C31.3806 10.4445 34.9504 11.1273 38.9934 12.1049C37.8915 10.2822 36.2758 8.60336 33.9672 7.46804C27.3426 4.2106 27.1573 1.01074 20.844 1.01074C15.8425 1.01074 8.81641 6.24751 4.60547 11.6328C6.94502 10.9224 10.5371 10.5942 13.3683 14.1303Z" fill="#F98097" stroke="#1E232C" stroke-width="1.4" stroke-linejoin="round"/>
<path id="Vector_6" d="M13.5556 9.79019C14.2378 9.79019 14.7908 9.27467 14.7908 8.63875C14.7908 8.00282 14.2378 7.4873 13.5556 7.4873C12.8733 7.4873 12.3203 8.00282 12.3203 8.63875C12.3203 9.27467 12.8733 9.79019 13.5556 9.79019Z" fill="#EA596E"/>
<path id="Vector_7" d="M20.9677 13.2448C21.6499 13.2448 22.2029 12.7293 22.2029 12.0933C22.2029 11.4574 21.6499 10.9419 20.9677 10.9419C20.2855 10.9419 19.7324 11.4574 19.7324 12.0933C19.7324 12.7293 20.2855 13.2448 20.9677 13.2448Z" fill="#EA596E"/>
<path id="Vector_8" d="M25.9081 7.48746C26.5903 7.48746 27.1433 6.97194 27.1433 6.33601C27.1433 5.70009 26.5903 5.18457 25.9081 5.18457C25.2259 5.18457 24.6729 5.70009 24.6729 6.33601C24.6729 6.97194 25.2259 7.48746 25.9081 7.48746Z" fill="#EA596E"/>
</g>
</svg>
