<svg width="42" height="42" viewBox="0 0 42 42" fill="none" xmlns="http://www.w3.org/2000/svg">
<g id="Emoji">
<path id="Vector" d="M30.7802 17.741C33.2556 28.2848 28.7926 38.5317 20.8121 40.6241C12.8327 42.7178 4.35831 35.8647 1.88292 25.3209C-0.591258 14.7758 3.87049 4.53012 11.8523 2.43645C19.8292 0.342788 28.306 7.19455 30.7802 17.741Z" fill="#C1694F" stroke="#1E232C" stroke-width="1.4" stroke-linejoin="round"/>
<path id="Vector_2" d="M40.7132 15.1341C43.6074 27.4645 33.0934 37.4043 22.6193 40.1506C12.1452 42.897 5.26132 35.6306 2.78593 25.0842C0.311752 14.539 3.18296 4.71059 13.6558 1.96425C24.1287 -0.784648 37.6241 1.97065 40.7132 15.1341Z" fill="#C1694F" stroke="#1E232C" stroke-width="1.4" stroke-linejoin="round"/>
<path id="Vector_3" d="M27.7644 18.2142C29.9299 27.4424 26.0237 36.4058 19.043 38.2371C12.0611 40.0723 4.6446 34.0741 2.47788 24.8471C0.313586 15.6201 4.21852 6.65551 11.2017 4.82291C18.1812 2.99287 25.5976 8.98721 27.7644 18.2142Z" fill="#77B255" stroke="#1E232C" stroke-width="2.4" stroke-linejoin="round"/>
<path id="Vector_4" d="M13.8598 6.08955C19.3362 6.08955 24.5198 11.3258 26.1849 18.5391C27.1272 22.6219 26.8356 26.7634 25.3633 30.2001C23.933 33.5418 21.5521 35.8063 18.6611 36.5774C17.9523 36.7673 17.2225 36.8623 16.4905 36.8623C11.0153 36.8623 5.83286 31.6261 4.16775 24.4127C2.24584 16.0872 5.62254 7.9941 11.6927 6.37448C12.4003 6.18578 13.1289 6.08955 13.8598 6.08955ZM13.8598 4.83984C13.0441 4.83984 12.2261 4.94482 11.4127 5.16102C4.70923 6.9506 0.960696 15.7048 3.03947 24.7152C4.8661 32.6321 10.583 38.1133 16.4893 38.1133C17.305 38.1133 18.1266 38.0083 18.9399 37.7909C25.6399 36.0025 29.3908 27.2496 27.312 18.2379C25.4842 10.3211 19.7661 4.83984 13.8598 4.83984Z" fill="#A6D388"/>
<g id="Group">
<path id="Vector_5" d="M22.348 22.0026L18.9599 23.6803L20.9644 28.9938L17.3875 26.0171L16.5438 31.355L14.8758 26.1106L11.6669 28.3437L12.8846 23.2554L9.20117 21.0786L12.5905 19.3957L10.5847 14.0861L14.1641 16.7927L15.0077 11.4536L16.677 16.9693L19.8786 14.7362L18.667 19.8206L22.348 22.0026Z" fill="#A6D388"/>
<path id="Vector_6" d="M16.5429 32.6345C16.0272 32.6345 15.5624 32.2877 15.3966 31.7618L14.2297 28.0914L12.3329 29.4121C11.9177 29.7039 11.3742 29.695 10.9663 29.3853C10.5596 29.0807 10.3719 28.5406 10.4942 28.0287L11.4831 23.8926L8.61072 22.1956C8.21369 21.9602 7.97523 21.5123 7.99097 21.0336C8.0067 20.5537 8.27543 20.125 8.68577 19.9203L11.0425 18.7506L9.45925 14.5607C9.25953 14.0321 9.41326 13.4294 9.83692 13.0787C10.2606 12.7294 10.8513 12.7153 11.2883 13.0455L13.2891 14.5594L13.8121 11.2448C13.9041 10.6613 14.3616 10.2211 14.9184 10.1788C15.4898 10.1507 15.9897 10.5026 16.1591 11.0657L17.3418 14.9728L19.2107 13.6687C19.6271 13.3782 20.1718 13.3871 20.5773 13.693C20.984 13.9989 21.1729 14.5376 21.0506 15.0495L20.0665 19.1844L22.9389 20.8865C23.3335 21.1219 23.572 21.5711 23.5562 22.0498C23.5393 22.5297 23.2718 22.9584 22.8614 23.1619L20.5071 24.329L22.0892 28.5214C22.2925 29.0589 22.1279 29.6732 21.6897 30.02C21.2503 30.3668 20.6463 30.3592 20.2166 30.0008L18.246 28.3602L17.7388 31.5672C17.6468 32.1457 17.1941 32.5859 16.6409 32.632L16.5429 32.6345ZM14.8761 24.8306C15.0092 24.8306 15.1424 24.8537 15.2707 24.901C15.6253 25.0316 15.9037 25.3272 16.0236 25.7034L16.1482 26.095L16.1942 25.8071C16.2645 25.3605 16.5525 24.9881 16.9508 24.8242C17.349 24.663 17.7993 24.7334 18.1358 25.0111L18.1685 25.038L17.8356 24.1537C17.5984 23.5253 17.8659 22.8086 18.4457 22.522L19.6997 21.9013L18.0753 20.9389C17.5984 20.6561 17.3599 20.07 17.4931 19.5095L17.9434 17.6193L17.343 18.0377C17.027 18.2579 16.6312 18.3103 16.2741 18.1772C15.917 18.0441 15.6399 17.7421 15.5236 17.3595L15.3784 16.8796L15.359 17.0037C15.29 17.4388 15.014 17.8061 14.6279 17.975C14.243 18.1452 13.8012 18.0902 13.461 17.8343L13.2419 17.6692L13.7152 18.9221C13.9525 19.5517 13.6862 20.2671 13.1064 20.555L11.8499 21.1782L13.4756 22.1381C13.9537 22.4209 14.1934 23.0083 14.0578 23.5688L13.6051 25.4616L14.2103 25.0405C14.4112 24.901 14.6424 24.8306 14.8761 24.8306Z" fill="#A6D388"/>
</g>
<g id="Group_2">
<path id="Vector_7" d="M19.701 21.3635L17.6324 22.4027L18.9348 25.6507L16.7003 24.0024L16.2428 27.2734L15.1412 23.9025L13.1972 25.2808L13.8824 22.1621L11.5801 20.8388L13.6451 19.7984L12.3402 16.5491L14.582 18.1949L15.0335 14.9238L16.1362 18.2985L18.0851 16.9177L17.3988 20.0377L19.701 21.3635Z" fill="#C6E5B3"/>
<path id="Vector_8" d="M16.2437 27.9133C15.9883 27.9133 15.7571 27.7418 15.6724 27.482L14.8275 24.8957L13.5371 25.812C13.3314 25.9579 13.0602 25.9578 12.8556 25.8068C12.6511 25.6584 12.553 25.3922 12.6099 25.1363L13.1909 22.4923L11.2917 21.4019C11.092 21.2868 10.9697 21.0628 10.9758 20.8222C10.9819 20.5816 11.115 20.3654 11.3208 20.2617L12.8629 19.4849L11.7844 16.7987C11.6791 16.5363 11.7505 16.2318 11.9599 16.0526C12.1693 15.8722 12.4647 15.8619 12.6874 16.0245L14.1254 17.0815L14.4353 14.833C14.4752 14.5412 14.6992 14.316 14.9776 14.2891C15.2536 14.2533 15.515 14.4376 15.607 14.7165L16.4543 17.3068L17.7507 16.3879C17.9577 16.242 18.2277 16.2446 18.431 16.393C18.6356 16.5427 18.7336 16.8089 18.6767 17.0649L18.0957 19.7101L19.9937 20.803C20.1934 20.9182 20.3157 21.1422 20.3096 21.3828C20.3036 21.6233 20.1692 21.8396 19.9647 21.9433L18.4189 22.7201L19.4962 25.4037C19.6015 25.6661 19.5301 25.9706 19.3195 26.1511C19.1101 26.3315 18.8135 26.3392 18.592 26.178L17.1588 25.1209L16.8441 27.3694C16.8029 27.6612 16.579 27.8851 16.3018 27.9133H16.2437ZM15.1422 23.2627C15.2064 23.2627 15.2717 23.2742 15.3347 23.296C15.5126 23.3587 15.653 23.5059 15.7135 23.694L16.0077 24.5911L16.1033 23.909C16.1336 23.6901 16.2703 23.5033 16.4616 23.415C16.6541 23.3292 16.8744 23.3497 17.0475 23.4777L17.5571 23.8539L17.0753 22.6535C16.9494 22.3374 17.0801 21.9727 17.3731 21.8268L18.3693 21.3252L17.1104 20.6008C16.8719 20.4639 16.7485 20.1747 16.8102 19.8944L17.1491 18.3523L16.4737 18.8309C16.3176 18.941 16.1202 18.9666 15.9435 18.9064C15.7656 18.8437 15.6252 18.6966 15.5646 18.5084L15.2729 17.6165L15.1797 18.2883C15.1495 18.5072 15.0139 18.694 14.8226 18.7823C14.629 18.8706 14.4087 18.8476 14.2368 18.7209L13.7175 18.3395L14.2029 19.5489C14.3288 19.8637 14.1993 20.2284 13.9063 20.3756L12.9125 20.876L14.1726 21.599C14.4111 21.736 14.5345 22.0265 14.4728 22.3067L14.1351 23.8463L14.8045 23.3715C14.9049 23.2998 15.0224 23.2627 15.1422 23.2627Z" fill="#C6E5B3"/>
</g>
<path id="Vector_9" d="M10.6455 17.4456C10.9227 18.0817 10.8234 18.7561 10.4216 18.9532C10.0197 19.149 9.47015 18.7907 9.19175 18.1546C8.91455 17.5186 9.01381 16.8442 9.41568 16.6484C9.81634 16.4513 10.3671 16.8096 10.6455 17.4456ZM18.7532 13.6883C18.597 14.3691 18.1225 14.8324 17.6928 14.7236C17.2619 14.6123 17.0416 13.9698 17.1977 13.289C17.3539 12.6082 17.8284 12.1449 18.2593 12.2563C18.6878 12.365 18.9093 13.0062 18.7532 13.6883ZM15.5527 26.3757C15.3966 27.0565 14.9233 27.5198 14.4936 27.411C14.0614 27.2997 13.8411 26.6585 13.9973 25.9777C14.1534 25.2982 14.6279 24.8323 15.0588 24.9437C15.4873 25.0537 15.7089 25.6949 15.5527 26.3757ZM19.4455 29.163C19.7227 29.799 19.6235 30.4722 19.2216 30.6718C18.8209 30.8651 18.2702 30.508 17.9918 29.872C17.7158 29.2372 17.8126 28.5628 18.2157 28.3644C18.6176 28.1699 19.1683 28.527 19.4455 29.163ZM20.8025 19.3307C20.4345 19.7044 19.9794 19.8311 19.782 19.6187C19.5872 19.4011 19.7276 18.925 20.0943 18.5501C20.4611 18.1764 20.9187 18.0471 21.1148 18.2634C21.3109 18.4797 21.1717 18.957 20.8025 19.3307ZM14.4185 16.3041C14.6376 16.7904 14.6098 17.287 14.3544 17.4188C14.0977 17.5442 13.7128 17.2537 13.4949 16.7674C13.277 16.2811 13.3061 15.782 13.5627 15.6527C13.8169 15.5235 14.2018 15.8165 14.4185 16.3041ZM9.60088 25.3826C9.2329 25.7563 8.77898 25.8843 8.58047 25.6706C8.38679 25.4543 8.526 24.977 8.89276 24.6033C9.25953 24.2309 9.71588 24.1003 9.91318 24.3153C10.1093 24.5316 9.97007 25.0089 9.60088 25.3826ZM22.4584 24.195C22.8566 24.6506 22.9208 25.2726 22.5988 25.5938C22.2756 25.9086 21.6885 25.7973 21.2891 25.3442C20.8896 24.8887 20.8243 24.2654 21.1487 23.9442C21.4718 23.6268 22.0577 23.7394 22.4584 24.195Z" fill="#292F33"/>
</g>
</svg>
