<svg width="42" height="42" viewBox="0 0 42 42" fill="none" xmlns="http://www.w3.org/2000/svg">
<g id="Emoji">
<path id="Vector" d="M13.4573 3.68445C20.6485 2.22111 22.8381 5.13632 26.3916 3.78086C29.945 2.4254 26.4948 7.01744 25.5648 7.80707C24.6326 8.5967 16.5302 13.3265 13.0167 11.5923C9.50318 9.85805 9.48543 4.49245 13.4573 3.68445Z" fill="#5C913B" stroke="#1E232C" stroke-width="1.4" stroke-linejoin="round"/>
<path id="Vector_2" d="M17.4475 18.2156C17.1101 18.2156 16.7761 18.0573 16.5585 17.7566C15.7961 16.7052 15.107 15.5128 14.3779 14.2491C11.8609 9.89351 9.00771 4.95486 1.66885 3.26771C1.07069 3.12998 0.69337 2.5171 0.826541 1.89848C0.959713 1.27871 1.55233 0.890778 2.15049 1.02736C10.4227 2.92799 13.672 8.55297 16.2833 13.0727C16.9825 14.2824 17.6417 15.4244 18.3342 16.3793C18.7026 16.8866 18.6027 17.6062 18.1122 17.9861C17.9125 18.141 17.6794 18.2156 17.4475 18.2156Z" fill="#77B255" stroke="#1E232C" stroke-width="1.4" stroke-linejoin="round"/>
<path id="Vector_3" d="M38.8645 36.0444C38.8668 36.0249 38.8612 36.0122 38.8612 35.995C41.9397 29.8719 41.7988 18.6495 35.148 11.77C28.7102 5.11325 19.9664 5.08915 14.321 7.10226C12.5687 7.80696 11.0839 7.17801 10.0873 8.20981C9.10958 9.22095 9.69776 11.3305 9.29491 12.593C5.77808 18.5634 5.51617 27.542 12.278 34.534C17.7846 40.229 23.8617 42.3867 34.451 40.1039C34.4532 40.1016 34.4566 40.1027 34.4599 40.1016C35.7339 39.8514 37.7337 40.7018 38.4173 39.9937C39.6214 38.7484 38.7602 37.2873 38.8645 36.0444Z" fill="#FFCC4D" stroke="#1E232C" stroke-width="1.4" stroke-linejoin="round"/>
<path id="Vector_4" d="M9.90942 7.40752C9.90942 7.40752 5.17073 6.73037 2.29977 12.6859C-0.571183 18.6403 2.94566 23.1589 2.6216 27.208C2.29644 31.2595 4.35949 28.6599 5.53029 26.6973C6.70109 24.7347 10.2246 21.0792 11.0103 16.059C11.7949 11.0366 10.9326 8.64706 9.90942 7.40752Z" fill="#77B255" stroke="#1E232C" stroke-width="1.4" stroke-linejoin="round"/>
</g>
</svg>
