<svg width="49" height="48" viewBox="0 0 49 48" fill="none" xmlns="http://www.w3.org/2000/svg">
<path d="M44.4004 34.3851C44.4004 36.934 42.4104 39.0005 39.9559 39.0005H8.84484C6.39039 39.0005 4.40039 36.934 4.40039 34.3851V13.6159C4.40039 11.067 6.39039 9.00049 8.84484 9.00049H39.9559C42.4104 9.00049 44.4004 11.067 44.4004 13.6159V34.3851Z" fill="#CCD6DD" stroke="#1E232C" stroke-width="1.4" stroke-linejoin="round"/>
<path d="M18.2266 23.1571L6.68427 35.1305C6.65672 35.1612 6.64652 35.1983 6.62305 35.2279C6.96997 35.8312 7.45362 36.3319 8.03523 36.6928C8.06482 36.6685 8.09951 36.6579 8.12706 36.6293L19.6714 24.6538C20.0694 24.2399 20.0694 23.5709 19.6714 23.1571C19.2715 22.7432 18.6266 22.7432 18.2266 23.1571ZM42.1786 35.2279C42.1572 35.1983 42.1449 35.1612 42.1174 35.1326L30.575 23.1571C30.1751 22.7432 29.5302 22.7432 29.1312 23.1571C28.7323 23.572 28.7323 24.241 29.1312 24.6538L40.6746 36.6293C40.7011 36.6568 40.7379 36.6685 40.7664 36.6928C41.349 36.333 41.8317 35.8312 42.1786 35.2279Z" fill="#99AAB5"/>
<path d="M39.092 9.00049H9.70925C7.39116 9.00049 5.51172 11.0724 5.51172 13.6278V14.8194L20.7561 31.5888C22.7447 33.7787 25.9904 33.7787 27.9811 31.5888L43.2895 14.7951V13.6278C43.2895 11.0724 41.41 9.00049 39.092 9.00049Z" fill="#99AAB5"/>
<path d="M39.9561 9.00049H8.84503C7.08059 9.00049 5.56836 10.0782 4.85059 11.6255L21.2573 28.6643C22.9928 30.4666 25.8084 30.4666 27.5428 28.6643L43.9506 11.6255C43.2328 10.0782 41.7217 9.00049 39.9561 9.00049Z" fill="#E1E8ED" stroke="#1E232C" stroke-width="1.4" stroke-linejoin="round"/>
<path d="M34.4004 22.9238C34.4004 20.205 31.931 18.0005 28.884 18.0005C27.0341 18.0005 25.4011 18.8159 24.3998 20.0608C23.3975 18.8159 21.7656 18.0005 19.9179 18.0005C16.8709 18.0005 14.4004 20.205 14.4004 22.9238C14.4004 23.3098 14.4557 23.683 14.5486 24.0423C15.3154 28.2894 20.6072 32.7704 24.3998 34.0005C28.1925 32.7704 33.4854 28.2894 34.251 24.0433C34.3451 23.683 34.4004 23.3088 34.4004 22.9238Z" fill="#DD2E44" stroke="#1E232C" stroke-width="1.4" stroke-linejoin="round"/>
</svg>
