<svg width="42" height="42" viewBox="0 0 42 42" fill="none" xmlns="http://www.w3.org/2000/svg">
<g id="Emoji">
<path id="Vector" d="M21 9.88938L13.2222 1.00049H1L16.5556 19.8894L29.3567 14.6116L21 9.88938Z" fill="#55ACEE" stroke="#1E232C" stroke-width="1.4" stroke-linejoin="round"/>
<path id="Vector_2" d="M28.7778 1.00049L21 9.88938L26.9889 18.0138L28.3522 16.3594L41 1.00049H28.7778Z" fill="#3B88C3" stroke="#1E232C" stroke-width="1.4" stroke-linejoin="round"/>
<path id="Vector_3" d="M26.7826 18.8072C26.8715 18.5661 26.9282 18.3094 26.9282 18.0372C26.9282 16.8105 25.9326 15.8149 24.7059 15.8149H17.2982C16.0704 15.8149 15.0759 16.8105 15.0759 18.0372C15.0759 18.3094 15.1315 18.5661 15.2215 18.8072C11.6015 20.8361 9.15039 24.7038 9.15039 29.1483C9.14928 35.6938 14.4559 41.0005 21.0015 41.0005C27.5471 41.0005 32.8537 35.6938 32.8537 29.1483C32.8537 24.7038 30.4026 20.8361 26.7826 18.8072Z" fill="#FF8A3B" stroke="#1E232C" stroke-width="1.4" stroke-linejoin="round"/>
<path id="Vector_4" d="M16.69 33.6117L17.9989 32.3028C18.1433 32.1561 18.3522 32.1361 18.5177 32.2606C18.5177 32.2606 19.8055 33.2172 20.8022 33.2172C21.6966 33.2172 22.6111 32.4695 22.6111 31.555C22.6111 30.6406 21.6755 29.8728 20.1389 29.8728H19.4289C19.2222 29.8728 19.0355 29.6861 19.0355 29.4783V27.7539C19.0355 27.525 19.2222 27.3595 19.4289 27.3595H20.1389C21.5933 27.3595 22.3611 26.6539 22.3611 25.7606C22.3611 24.8661 21.5933 24.2028 20.6989 24.2028C19.7844 24.2028 19.2033 24.6806 18.8922 25.0328C18.7455 25.1995 18.4977 25.1995 18.3322 25.055L17.0644 23.8083C16.8966 23.6617 16.9177 23.4139 17.0644 23.2683C17.0644 23.2683 18.7677 21.4395 21.0311 21.4395C23.4411 21.4395 25.5189 22.915 25.5189 25.2417C25.5189 26.8406 24.3133 28.025 23.3789 28.4606V28.5239C24.3555 28.9395 25.8922 30.2272 25.8922 32.0139C25.8922 34.2783 23.9189 35.9828 21.0511 35.9828C18.4355 35.9828 17.1044 34.6939 16.6689 34.1339C16.5433 33.985 16.5655 33.7561 16.69 33.6117Z" fill="#7C4119"/>
</g>
</svg>
