<svg width="42" height="42" viewBox="0 0 42 42" fill="none" xmlns="http://www.w3.org/2000/svg">
<path d="M20.7998 9.88938L13.022 1.00049H0.799805L16.3554 19.8894L29.1565 14.6116L20.7998 9.88938Z" fill="#55ACEE" stroke="#1E232C" stroke-width="1.4" stroke-linejoin="round"/>
<path d="M28.5776 1.00049L20.7998 9.88938L26.7887 18.0138L28.152 16.3594L40.7998 1.00049H28.5776Z" fill="#3B88C3" stroke="#1E232C" stroke-width="1.4" stroke-linejoin="round"/>
<path d="M26.5834 18.8072C26.6723 18.5661 26.7289 18.3094 26.7289 18.0372C26.7289 16.8105 25.7334 15.8149 24.5067 15.8149H17.0989C15.8712 15.8149 14.8767 16.8105 14.8767 18.0372C14.8767 18.3094 14.9323 18.5661 15.0223 18.8072C11.4023 20.8361 8.95117 24.7038 8.95117 29.1483C8.95006 35.6938 14.2567 41.0005 20.8023 41.0005C27.3478 41.0005 32.6545 35.6938 32.6545 29.1483C32.6545 24.7038 30.2034 20.8361 26.5834 18.8072Z" fill="#FFAC33" stroke="#1E232C" stroke-width="1.4" stroke-linejoin="round"/>
<path d="M22.3591 21.6675H20.4468L17.4135 24.0364C17.3513 24.0986 17.2891 24.2653 17.2891 24.3475V25.6564C17.2891 25.863 17.4557 26.0497 17.6635 26.0497H19.658V35.3986C19.658 35.6075 19.8246 35.793 20.0524 35.793H22.3591C22.5657 35.793 22.7324 35.6064 22.7324 35.3986V22.0608C22.7324 21.8541 22.5668 21.6675 22.3591 21.6675Z" fill="#9E5200"/>
</svg>
