<svg width="43" height="42" viewBox="0 0 43 42" fill="none" xmlns="http://www.w3.org/2000/svg">
<g id="Emoji">
<path id="Vector" d="M21.4004 9.88938L13.6226 1.00049H1.40039L16.9559 19.8894L29.7571 14.6116L21.4004 9.88938Z" fill="#55ACEE" stroke="#1E232C" stroke-width="1.4" stroke-linejoin="round"/>
<path id="Vector_2" d="M29.1782 1.00049L21.4004 9.88938L27.3893 18.0138L28.7526 16.3594L41.4004 1.00049H29.1782Z" fill="#3B88C3" stroke="#1E232C" stroke-width="1.4" stroke-linejoin="round"/>
<path id="Vector_3" d="M27.183 18.8072C27.2719 18.5661 27.3286 18.3094 27.3286 18.0372C27.3286 16.8105 26.333 15.8149 25.1063 15.8149H17.6986C16.4708 15.8149 15.4763 16.8105 15.4763 18.0372C15.4763 18.3094 15.5319 18.5661 15.6219 18.8072C12.0019 20.8361 9.55078 24.7038 9.55078 29.1483C9.54967 35.6938 14.8563 41.0005 21.4019 41.0005C27.9474 41.0005 33.2541 35.6938 33.2541 29.1483C33.2541 24.7038 30.803 20.8361 27.183 18.8072Z" fill="#CCD6DD" stroke="#1E232C" stroke-width="1.4" stroke-linejoin="round"/>
<path id="Vector_4" d="M25.8469 33.135H21.9102C22.8858 31.7639 24.5902 29.5417 25.2547 28.3561C25.7536 27.3795 26.0647 26.7573 26.0647 25.6561C26.0647 23.3495 24.3202 21.4595 21.3491 21.4595C18.8769 21.4595 17.1936 23.495 17.1936 23.495C17.048 23.6617 17.0691 23.9106 17.2147 24.0361L18.4824 25.3239C18.648 25.4906 18.898 25.4906 19.0636 25.3239C19.458 24.8873 20.2269 24.285 21.078 24.285C22.2413 24.285 22.9069 24.9906 22.9069 25.7806C22.9069 26.3617 22.6369 26.9439 22.3669 27.3595C21.1402 29.2284 18.0658 33.405 16.8613 34.9839V35.3995C16.8613 35.6084 17.0269 35.7939 17.2558 35.7939H25.8469C26.0536 35.7939 26.2413 35.6072 26.2413 35.3995V33.5306C26.2424 33.3217 26.0536 33.135 25.8469 33.135Z" fill="#627077"/>
</g>
</svg>
