<svg width="42" height="42" viewBox="0 0 42 42" fill="none" xmlns="http://www.w3.org/2000/svg">
<g id="Emoji">
<path id="Vector" d="M4.5332 22.5808C4.5332 12.409 12.7412 4.16162 22.866 4.16162C32.9919 4.16162 41.1999 12.4078 41.1999 22.5808C41.1999 32.7538 32.9919 41 22.866 41C12.7412 41 4.5332 32.7538 4.5332 22.5808Z" fill="#F4900C" stroke="#1E232C" stroke-width="1.4" stroke-linejoin="round"/>
<path id="Vector_2" d="M13.8827 9.28019C13.586 8.98213 12.9971 9.06027 12.3771 9.41415C8.71027 6.36437 2.7623 5.33736 2.4934 5.29271C1.88672 5.19336 1.3167 5.60193 1.21558 6.20921C1.11447 6.81648 1.52226 7.3925 2.12783 7.49408C2.18673 7.50413 7.61023 8.44742 10.8181 11.0216C10.5125 11.6077 10.4581 12.1547 10.7403 12.4371C11.1737 12.8736 12.2293 12.5197 13.0971 11.6479C13.9649 10.7772 14.316 9.71667 13.8827 9.28019Z" fill="#662113" stroke="#1E232C" stroke-width="1.4" stroke-linejoin="round"/>
<path id="Vector_3" d="M24.5341 1.92896C24.5341 1.92896 21.0829 6.74921 16.7328 7.81529C13.4227 8.62685 9.02363 8.705 8.58473 7.67799C8.14694 6.65209 10.3315 3.28305 14.106 1.6577C17.8806 0.0334573 24.5341 1.92896 24.5341 1.92896Z" fill="#5C913B" stroke="#1E232C" stroke-width="1.4" stroke-linejoin="round"/>
</g>
</svg>
