<svg width="49" height="48" viewBox="0 0 49 48" fill="none" xmlns="http://www.w3.org/2000/svg">
<path d="M24.2002 6.00049C13.1546 6.00049 4.2002 14.0599 4.2002 23.9999C4.2002 25.2436 4.3402 26.4581 4.60797 27.6306C6.58464 31.2018 7.95242 28.9478 14.2002 25.6671C20.5635 22.3257 14.2002 30.3338 11.978 35.0005C11.2946 36.4355 11.6646 37.65 12.6002 38.6451C15.8735 40.7498 19.8713 42.0005 24.2002 42.0005C35.2458 42.0005 44.2002 33.9423 44.2002 23.9999C44.2002 14.0599 35.2458 6.00049 24.2002 6.00049ZM27.3658 34.5221C26.9269 36.0925 24.6324 36.7668 22.2402 36.0283C19.848 35.291 18.2646 33.4219 18.7035 31.8504C19.1424 30.2801 21.4369 29.6058 23.8291 30.3454C26.2213 31.0816 27.8046 32.9506 27.3658 34.5221Z" fill="#D99E82" stroke="#1E232C" stroke-width="1.4" stroke-linejoin="round"/>
<path d="M15.3109 18.667C17.1518 18.667 18.6442 17.1 18.6442 15.167C18.6442 13.234 17.1518 11.667 15.3109 11.667C13.4699 11.667 11.9775 13.234 11.9775 15.167C11.9775 17.1 13.4699 18.667 15.3109 18.667Z" fill="#5C913B" stroke="#1E232C" stroke-width="1.4" stroke-linejoin="round"/>
<path d="M26.4222 16.3335C28.2631 16.3335 29.7555 14.7665 29.7555 12.8335C29.7555 10.9005 28.2631 9.3335 26.4222 9.3335C24.5813 9.3335 23.0889 10.9005 23.0889 12.8335C23.0889 14.7665 24.5813 16.3335 26.4222 16.3335Z" fill="#226699" stroke="#1E232C" stroke-width="1.4" stroke-linejoin="round"/>
<path d="M36.4222 23.3335C38.2631 23.3335 39.7555 21.7665 39.7555 19.8335C39.7555 17.9005 38.2631 16.3335 36.4222 16.3335C34.5813 16.3335 33.0889 17.9005 33.0889 19.8335C33.0889 21.7665 34.5813 23.3335 36.4222 23.3335Z" fill="#DD2E44" stroke="#1E232C" stroke-width="1.4" stroke-linejoin="round"/>
<path d="M35.3109 33.834C37.1518 33.834 38.6442 32.267 38.6442 30.334C38.6442 28.401 37.1518 26.834 35.3109 26.834C33.4699 26.834 31.9775 28.401 31.9775 30.334C31.9775 32.267 33.4699 33.834 35.3109 33.834Z" fill="#FFCC4D" stroke="#1E232C" stroke-width="1.4" stroke-linejoin="round"/>
</svg>
