<svg width="42" height="42" viewBox="0 0 42 42" fill="none" xmlns="http://www.w3.org/2000/svg">
<g id="Emoji">
<path id="Vector" d="M0.871094 6.58911C0.871094 6.58911 6.44252 1.00049 12.2997 1.00049C19.3008 1.00049 21.3717 6.51869 21.3717 6.51869C21.3717 6.51869 22.086 2.0478 27.086 2.0478C32.086 2.0478 35.0151 5.54068 35.0151 5.54068C35.0151 5.54068 30.9442 7.91585 29.7294 8.40429C26.5282 9.69303 16.7294 12.3856 12.158 11.2679C7.58652 10.1502 0.871094 6.58911 0.871094 6.58911Z" fill="#5C913B" stroke="#1E232C" stroke-width="1.4" stroke-linejoin="round"/>
<path id="Vector_2" d="M20.2284 7.56694C20.2284 7.56694 21.4192 6.56546 27.0855 6.56546C34.5621 6.56546 40.7998 11.944 40.7998 21.0143C40.7998 33.9028 23.7049 41.0003 23.7049 41.0003C23.7049 41.0003 0.799805 39.7943 0.799805 20.9539C0.799805 9.82251 8.51409 6.44922 13.3712 6.44922C19.0375 6.44922 20.2284 7.56694 20.2284 7.56694Z" fill="#FF886C" stroke="#1E232C" stroke-width="1.4" stroke-linejoin="round"/>
<path id="Vector_3" d="M0.871094 6.58911C0.871094 6.58911 6.44252 1.00049 12.2997 1.00049C19.3008 1.00049 21.3717 6.51869 21.3717 6.51869C21.3717 6.51869 16.7294 12.3867 12.1579 11.269C7.58652 10.1513 0.871094 6.58911 0.871094 6.58911Z" fill="#77B255" stroke="#1E232C" stroke-width="1.4" stroke-linejoin="round"/>
<path id="Vector_4" d="M25.9416 34.3927C25.7244 34.3927 25.5038 34.3313 25.3084 34.205C24.7827 33.8618 24.641 33.1688 24.9918 32.6547C25.009 32.6301 27.0856 29.4055 27.0856 22.0978C27.0856 14.894 21.8536 10.7171 21.7998 10.6758C21.3073 10.2901 21.2273 9.58709 21.6216 9.10535C22.017 8.62361 22.7358 8.54537 23.2284 8.93098C23.4787 9.12659 29.3713 13.8311 29.3713 22.0978C29.3713 30.1677 26.9953 33.7467 26.8936 33.8954C26.6741 34.2184 26.3107 34.3927 25.9416 34.3927Z" fill="#DD2E44"/>
</g>
</svg>
