<svg width="49" height="48" viewBox="0 0 49 48" fill="none" xmlns="http://www.w3.org/2000/svg">
<path d="M26.2009 10.2392C26.2009 10.701 23.2384 10.701 23.2384 10.2392C23.2384 9.21294 4.59961 -1.04841 4.59961 7.16044V22.553C4.59961 25.3889 8.94461 24.7731 13.5909 22.9647C11.8046 26.9841 7.96836 34.0025 4.77836 38.8533C4.49211 39.2889 4.55586 39.843 4.93336 40.2148C5.31211 40.5854 5.91211 40.688 6.40961 40.4599L12.9821 37.4621C13.5334 38.29 14.1459 39.5922 14.7021 40.7758C15.1184 41.6629 15.5496 42.5797 15.9821 43.3699C16.1621 43.6972 16.5034 43.9264 16.8996 43.9857C16.9659 43.9959 17.0334 44.0005 17.0996 44.0005C17.4284 44.0005 17.7471 43.8819 17.9834 43.6664C19.7584 42.0483 22.2696 34.0938 23.9746 27.5965C25.6796 34.0938 28.1909 42.0483 29.9659 43.6664C30.2009 43.8819 30.5209 44.0005 30.8496 44.0005C30.9159 44.0005 30.9821 43.9959 31.0496 43.9857C31.4459 43.9264 31.7884 43.6972 31.9671 43.3699C32.4009 42.5797 32.8309 41.6629 33.2471 40.7758C33.8034 39.5922 34.4159 38.2888 34.9671 37.4621L41.5396 40.4599C42.0371 40.6857 42.6384 40.5865 43.0159 40.2148C43.3946 39.843 43.4559 39.2889 43.1709 38.8533C39.7521 33.6559 35.5946 25.9727 34.0109 22.1562C39.1646 24.5394 44.5996 25.7789 44.5996 22.5519V7.1593C44.5996 -1.04841 26.2009 9.21294 26.2009 10.2392Z" fill="#DD2E44" stroke="#1E232C" stroke-width="1.4" stroke-linejoin="round"/>
<path d="M4.74219 23.3259C6.21344 26.9737 19.0772 21.2883 23.3172 17.4204C23.7047 17.067 24.0034 16.734 24.2647 16.4113C11.2072 16.6986 6.08719 20.8093 4.74219 23.3259ZM25.3447 16.4067C25.6097 16.7317 25.9109 17.0658 26.3009 17.4216C30.8009 21.5266 44.5997 27.6829 44.5997 22.5528V22.3145C42.5109 19.807 37.0534 16.588 25.3447 16.4067Z" fill="#A0041E" stroke="#1E232C" stroke-width="1.4" stroke-linejoin="round"/>
<path d="M30.5645 16.0732C30.5645 18.2419 28.4165 20.0005 25.7658 20.0005H23.3631C20.7125 20.0005 18.5645 18.2419 18.5645 16.0732V11.9278C18.5645 9.75903 20.7125 8.00049 23.3631 8.00049H25.7658C28.4165 8.00049 30.5645 9.75903 30.5645 11.9278V16.0732Z" fill="#EA596E" stroke="#1E232C" stroke-width="1.4" stroke-linejoin="round"/>
</svg>
