<svg width="43" height="42" viewBox="0 0 43 42" fill="none" xmlns="http://www.w3.org/2000/svg">
<g id="Emoji">
<path id="Vector" d="M28.3999 10.4732L27.6357 8.03823C27.4842 7.6767 27.0817 7.52347 26.7527 7.70902C25.7148 8.29202 23.4243 9.28683 22.5877 9.59449C24.192 10.199 26.5435 11.3938 27.6877 11.2657C28.1218 11.2178 28.5774 10.897 28.3999 10.4732ZM39.9429 39.8913C39.4919 40.1607 32.5841 41.9168 18.8908 29.2297C14.745 25.3881 2.44112 13.721 2.60053 13.3235C2.60053 13.3235 2.22858 13.7545 1.91993 14.2046C1.69721 14.529 1.55929 14.8738 1.61016 15.2198C1.96063 17.5745 5.12847 19.7916 9.48112 23.3375L10.1018 23.8427L10.5122 24.1767C11.177 24.7178 13.1306 26.3494 15.4064 28.2505C18.5188 30.8494 24.772 36.0198 24.954 36.1635C27.3508 38.0477 30.1941 39.5358 33.622 40.5593C37.9611 41.8534 39.9429 39.8913 39.9429 39.8913Z" fill="#8899A6" stroke="#1E232C" stroke-width="1.4" stroke-linejoin="round"/>
<path id="Vector_2" d="M39.9428 39.8909C39.9428 39.8909 40.4821 39.6287 41.0395 38.7919C41.5968 37.9551 41.9326 36.4887 41.0904 34.9037C40.2481 33.3199 37.1831 28.7732 36.1781 26.9177C35.6885 26.0138 35.8423 25.1854 34.9062 23.5238C34.9062 23.5238 31.3291 16.9121 30.5377 15.4756C28.8452 12.4025 29.588 10.8044 28.4609 9.88738C27.709 9.27565 20.201 10.0861 17.9161 8.22458C16.3367 6.93887 16.313 2.92371 15.6516 1.60927C15.1248 0.561789 13.3679 1.04064 12.1616 1.74096C10.9553 2.44127 7.66985 6.27686 6.8762 7.36983C6.08254 8.46281 5.06617 9.65514 4.97799 10.875L4.88867 12.0937C4.88867 12.0937 22.8205 30.2301 27.9238 33.8885C36.6258 40.1267 39.9428 39.8909 39.9428 39.8909Z" fill="#BE1931" stroke="#1E232C" stroke-width="1.4" stroke-linejoin="round"/>
<path id="Vector_3" d="M27.6019 11.7744C27.4928 11.4537 27.3381 11.1871 27.0457 10.9696C26.3413 10.4477 19.3063 11.1402 17.1655 9.551C15.6856 8.45411 15.6633 5.02761 15.0436 3.90723C14.8508 3.55896 14.4801 3.41189 14.0352 3.39453C14.7661 4.82437 14.693 9.08733 16.4843 10.415C18.6432 12.0175 24.9758 11.5722 27.6019 11.7744Z" fill="#A0041E"/>
<path id="Vector_4" d="M16.0813 19.6989C16.6523 17.9367 17.2616 13.815 16.165 11.3645C15.1373 9.06961 11.1442 4.23562 10.3856 3.31982C8.98367 4.64265 7.11034 6.95669 6.54506 7.73482C5.79889 8.76195 4.90009 9.91598 4.856 11.088C4.84017 11.5093 4.95436 11.6985 4.95436 11.6985C4.95436 11.6985 16.0587 19.7683 16.0813 19.6989Z" fill="#DD2E44" stroke="#1E232C" stroke-width="1.4" stroke-linejoin="round"/>
<path id="Vector_5" d="M27.2086 15.3693C26.8298 15.3693 26.4737 15.1274 26.3267 14.7312C26.1357 14.2152 26.3754 13.6334 26.8626 13.4299L28.9236 12.574C29.4098 12.3741 29.9626 12.6255 30.1526 13.1426C30.3436 13.6586 30.104 14.2404 29.6167 14.4439L27.5557 15.2998C27.4415 15.3465 27.325 15.3693 27.2086 15.3693ZM28.7315 19.0361C28.4025 19.0361 28.0836 18.8553 27.9084 18.5321C27.6472 18.052 27.8033 17.4379 28.2577 17.1614L30.2848 15.9271C30.7393 15.6506 31.3193 15.817 31.5793 16.297C31.8405 16.7771 31.6845 17.3912 31.23 17.6677L29.2029 18.902C29.0537 18.993 28.892 19.0361 28.7315 19.0361ZM30.7902 22.3305C30.5008 22.3305 30.2147 22.1905 30.0293 21.9259C29.7162 21.4818 29.8032 20.8533 30.2227 20.5217L31.9343 19.1701C32.3538 18.8385 32.9484 18.9295 33.2605 19.3748C33.5736 19.8202 33.4866 20.4487 33.0672 20.7803L31.3555 22.1306C31.1859 22.2659 30.9869 22.3305 30.7902 22.3305ZM32.9891 25.4083C32.7155 25.4083 32.4442 25.2838 32.2565 25.0408C31.9242 24.6123 31.9841 23.979 32.3877 23.627L33.6935 22.4921C34.0971 22.1414 34.6963 22.2024 35.0287 22.631C35.3611 23.0596 35.3011 23.6929 34.8975 24.0448L33.5917 25.1797C33.4142 25.3329 33.2006 25.4083 32.9891 25.4083ZM4.70252 11.1841C4.70252 11.1841 5.46565 11.9168 6.31357 12.0532C7.16149 12.1897 8.664 13.1905 9.69733 14.0321C10.7307 14.8737 14.6707 17.973 17.0844 20.5492C19.4982 23.1254 23.2968 28.4263 24.7734 29.9622C26.2499 31.4969 28.632 33.7846 30.6681 35.1661C32.7042 36.5476 34.5742 37.7172 35.7737 38.3816C37.3203 39.2387 38.7493 39.7511 39.9432 39.8911C39.5272 40.1497 37.3282 41.0236 33.5103 39.6457C29.8609 38.3277 27.4822 36.8995 25.5161 35.3528C23.5501 33.8062 12.8448 24.8086 11.0913 23.3804C9.33782 21.9522 4.09541 17.7204 3.26784 16.4527C2.09205 14.6522 2.14858 13.8645 2.37696 13.5508C2.93319 12.7835 4.10784 10.6993 4.70252 11.1841Z" fill="#CCD6DD" stroke="#1E232C" stroke-width="1.4" stroke-linejoin="round"/>
<path id="Vector_6" d="M41.0906 34.9038C40.2483 33.32 37.1833 28.7733 36.1783 26.9177C35.9816 26.5538 35.8877 26.2007 35.786 25.8032C35.6831 25.8439 35.5723 25.8679 35.4818 25.9337C34.1772 26.8818 34.184 29.7465 36.1274 32.7418C37.6853 35.1432 40.1861 36.9939 41.5903 37.0227C41.6197 36.3786 41.4908 35.6556 41.0906 34.9038Z" fill="#DD2E44" stroke="#1E232C" stroke-width="1.4" stroke-linejoin="round"/>
</g>
</svg>
