<svg width="42" height="42" viewBox="0 0 42 42" fill="none" xmlns="http://www.w3.org/2000/svg">
<g id="Emoji">
<path id="Vector" d="M32.3519 9.39279C41.2743 18.0502 43.6853 29.7498 37.7373 35.5202C31.7894 41.293 19.7372 38.9531 10.816 30.2957C10.5129 30.0016 10.2366 29.6957 9.94807 29.3945L15.302 24.1982C22.2403 30.9321 31.0791 33.2732 35.0428 29.4239C39.0077 25.5758 36.5967 16.9973 29.6597 10.2634L29.6864 10.2881L29.6609 10.2622C21.7324 2.56595 10.8838 0.616596 5.43289 5.90702C2.79651 8.46576 1.92135 12.2515 2.59893 16.3455C1.55892 11.5421 2.41711 7.09169 5.43289 4.1659C11.3796 -1.60569 23.4318 0.734239 32.3519 9.39279Z" fill="#FDD888" stroke="#1E232C" stroke-width="1.4" stroke-linejoin="round"/>
<path id="Vector_2" d="M20.8824 40.9991C20.577 40.9991 20.2727 40.9085 20.0109 40.7273L13.8581 36.4439L7.70537 40.7273C7.18052 41.092 6.47749 41.092 5.95627 40.7215C5.43505 40.3544 5.21566 39.705 5.41081 39.1109L7.70658 31.9229L1.60836 27.7524C1.08957 27.3819 0.875024 26.7301 1.0726 26.1348C1.2726 25.5419 1.84109 25.1384 2.48473 25.1337L9.93569 25.1196L12.4412 18.1116C12.6448 17.5186 13.2157 17.1187 13.8594 17.1187C14.503 17.1187 15.0739 17.5186 15.2775 18.1116L17.5394 25.1196L25.2328 25.1337C25.8776 25.1384 26.4473 25.5419 26.6449 26.1348C26.8437 26.7301 26.6279 27.3819 26.1091 27.7524L20.0109 31.9229L22.3055 39.1109C22.5018 39.705 22.28 40.3556 21.7612 40.7215C21.4982 40.9073 21.1903 40.9991 20.8824 40.9991Z" fill="#FFAC33" stroke="#1E232C" stroke-width="1.4" stroke-linejoin="round"/>
</g>
</svg>
