<svg width="43" height="36" viewBox="0 0 43 36" fill="none" xmlns="http://www.w3.org/2000/svg">
<g id="Emoji">
<path id="Vector" d="M40.831 16.3448L30.3615 12.951L26.4521 1.72994C26.3015 1.29722 25.8439 1.00049 25.3274 1.00049C24.811 1.00049 24.3533 1.29722 24.2027 1.72994L20.2945 12.951L9.8239 16.3448C9.36155 16.4952 9.05566 16.8795 9.05566 17.3112C9.05566 17.7419 9.36155 18.1282 9.8239 18.2776L20.2886 21.6704L24.1992 33.2335C24.3474 33.6704 24.8063 33.9702 25.3274 33.9702C25.8474 33.9702 26.3074 33.6704 26.4557 33.2325L30.3663 21.6694L40.8321 18.2766C41.2921 18.1282 41.5992 17.7429 41.5992 17.3112C41.5992 16.8806 41.2921 16.4952 40.831 16.3448Z" fill="#FFAC33" stroke="#1E232C" stroke-width="1.4" stroke-linejoin="round"/>
<path id="Vector_2" d="M17.302 27.6791L14.5796 26.7971L13.5208 23.3971C13.382 22.9479 12.9173 22.6368 12.3867 22.6368C11.8561 22.6368 11.3914 22.9479 11.2514 23.3961L10.1926 26.7961L7.47137 27.678C7.00902 27.8274 6.70314 28.2138 6.70314 28.6445C6.70314 29.0751 7.00902 29.4615 7.47137 29.6109L10.1784 30.4897L11.2455 34.2215C11.3773 34.6789 11.8467 35.0004 12.3867 35.0004C12.9267 35.0004 13.3961 34.6789 13.5278 34.2205L14.5949 30.4887L17.302 29.6098C17.7643 29.4615 18.0702 29.0751 18.0702 28.6445C18.0702 28.2138 17.7643 27.8274 17.302 27.6791ZM12.1984 5.3596L9.41726 4.45809L8.38667 2.02142C8.21608 1.61651 7.77608 1.34863 7.28314 1.34863C6.79137 1.34863 6.35137 1.61651 6.17961 2.02142L5.1502 4.45809L2.36784 5.3596C1.90549 5.51003 1.59961 5.89536 1.59961 6.32603C1.59961 6.75669 1.90549 7.14306 2.36784 7.29245L5.1502 8.19397L6.17961 10.6306C6.35137 11.0355 6.79137 11.3034 7.28314 11.3034C7.7749 11.3034 8.2149 11.0355 8.38667 10.6306L9.41608 8.19397L12.1984 7.29245C12.6608 7.14203 12.9667 6.75669 12.9667 6.32603C12.9667 5.89536 12.6608 5.51003 12.1984 5.3596Z" fill="#FFCC4D" stroke="#1E232C" stroke-width="1.4" stroke-linejoin="round"/>
</g>
</svg>
