<svg width="42" height="42" viewBox="0 0 42 42" fill="none" xmlns="http://www.w3.org/2000/svg">
<path id="Vector" d="M34.6559 24.2507C33.408 25.627 32.5912 28.2938 32.8377 30.1735L33.9656 38.6643C34.2146 40.5454 33.0792 41.4154 31.4418 40.6007L24.0438 36.915C22.4064 36.0977 19.7348 36.1095 18.1012 36.9387L10.7348 40.6851C9.10246 41.5143 7.96198 40.6508 8.19716 38.771L9.26304 30.2698C9.49822 28.3887 8.66245 25.7298 7.40438 24.3628L1.72218 18.1829C0.462843 16.8159 0.894002 15.412 2.6768 15.0653L10.731 13.4993C12.5138 13.1526 14.6709 11.4982 15.5269 9.82274L19.3845 2.26006C20.238 0.584594 21.6465 0.58064 22.5114 2.2482L26.4247 9.77924C27.2921 11.4468 29.4592 13.084 31.2471 13.4149L39.3114 14.919C41.0968 15.2512 41.538 16.6512 40.2901 18.0287L34.6559 24.2507Z" fill="#FFAC33" stroke="#1E232C" stroke-width="1.4" stroke-linejoin="round"/>
</svg>
