<svg width="43" height="42" viewBox="0 0 43 42" fill="none" xmlns="http://www.w3.org/2000/svg">
<g id="Emoji">
<path id="Vector" d="M27.7539 39.9202C32.3699 38.6217 35.9099 36.5062 35.9139 29.3732C35.9166 24.8598 41.6019 19.84 41.6006 15.2501C41.5993 10.8379 35.4473 3.56536 21.4673 4.80089C7.09792 6.07131 1.60192 9.71265 1.60059 17.6716C1.60059 23.2158 8.67259 27.1024 12.4366 32.8829C14.9353 36.7189 22.3366 43.6809 27.7539 39.9202Z" fill="#BE1931" stroke="#1E232C" stroke-width="1.4" stroke-linejoin="round"/>
<path id="Vector_2" d="M32.6042 4.72973C30.9002 3.55496 28.2309 2.98558 25.4709 2.84267C25.8349 2.80104 26.1936 2.75715 26.5642 2.7369C27.8616 2.66601 31.3829 1.35058 28.4309 1.51374C27.1389 1.58463 25.8962 1.80518 24.6482 1.98973C24.9642 1.81644 25.2869 1.6454 25.6349 1.49236C25.6016 0.710306 20.2682 0.710306 17.5762 2.60974C16.8936 2.48372 16.2682 1.83557 12.2682 1.83557C9.60156 1.83557 6.02156 2.87756 8.26823 2.96083C9.4909 3.00696 10.9349 2.96083 10.7456 3.37155C9.87223 3.43906 5.60156 4.08609 5.60156 5.21134C5.60156 5.60856 9.28156 5.01667 9.60156 5.21134C7.30556 5.93601 5.60156 7.46186 5.60156 8.58712C5.60156 9.06311 8.54956 7.65878 9.60156 7.46186C8.26823 8.58712 7.7349 9.37593 7.81223 10.1929C7.8629 10.7274 10.9962 10.0916 11.3216 10.0027C12.4176 9.69888 16.2682 8.58712 17.4549 6.93749C17.6109 7.25819 21.4056 8.44647 22.9349 8.58712C23.6402 8.65239 26.4282 8.89545 25.7896 7.78706C25.6016 7.46186 24.2682 6.3366 23.8616 5.23948C24.4562 5.2181 34.9349 6.3366 32.6042 4.72973Z" fill="#77B255" stroke="#1E232C" stroke-width="1.4" stroke-linejoin="round"/>
<path id="Vector_3" d="M10.0539 20.1842C9.87254 18.5413 6.6672 16.5248 6.94587 19.0589C7.1272 20.7018 10.3325 22.7183 10.0539 20.1842ZM19.9979 20.8065C19.9059 20.1065 19.6219 19.4663 19.0819 18.9261C18.4605 18.3072 17.6485 18.5188 17.4365 19.2817C17.1872 20.1808 17.5459 21.2532 18.2445 21.9508L18.2992 22.0049C18.0152 21.4141 17.7299 20.8233 17.4432 20.2337L17.4512 20.2866C17.5459 21.0067 17.9805 22.2333 18.9659 22.4313C19.9712 22.6361 20.0672 21.3196 19.9979 20.8065ZM27.6672 15.3591C28.3019 14.2844 27.8939 10.9008 26.5592 13.1603C25.9245 14.2338 26.3312 17.6186 27.6672 15.3591ZM37.2819 13.7196C37.2419 13.3178 37.1845 12.8419 36.7605 12.5831C35.1752 11.6176 33.5859 15.2375 34.9139 16.0489C34.9405 16.0624 34.9619 16.077 34.9872 16.0927L34.5459 15.0586C34.5459 15.0789 34.5472 15.098 34.5499 15.1171C34.6152 15.7518 35.0512 16.6666 35.9952 16.1839C36.8845 15.727 37.3659 14.559 37.2819 13.7196ZM35.4885 23.3597C36.8432 21.5941 34.7619 19.4764 33.1152 21.6245C31.7605 23.3889 33.8432 25.5067 35.4885 23.3597ZM27.8245 26.6162C28.0552 24.4354 24.7459 23.5195 24.4779 26.058C24.2472 28.2388 27.5565 29.1548 27.8245 26.6162ZM14.6299 25.2524L14.5645 25.2569L16.3805 26.0614C16.3725 26.0569 16.3659 26.049 16.3565 26.0423C15.9485 25.7272 14.5525 24.8236 13.9725 25.3761C13.3859 25.9354 14.6365 26.9751 15.0445 27.2924C15.5005 27.6458 16.2819 28.151 16.9499 28.1139C18.8659 28.0092 15.9059 25.1826 14.6299 25.2524ZM32.2659 31.8993C33.5579 30.6997 33.2325 27.342 31.2019 29.2256C29.9099 30.4252 30.2365 33.7829 32.2659 31.8993ZM14.4005 16.1861C14.5245 16.1805 14.6499 16.1726 14.7739 16.1648C15.7112 16.113 16.1125 14.5286 16.1632 13.9682C16.2219 13.3257 16.1059 12.3299 15.1165 12.385L14.7419 12.4064C13.8059 12.4593 13.4032 14.0425 13.3525 14.6029C13.2939 15.2454 13.4112 16.2424 14.4005 16.1861ZM24.8619 33.3542C25.3885 34.2139 25.1979 35.1805 24.4352 35.5136C23.6725 35.8467 22.6259 35.4224 22.0979 34.5639C21.5712 33.7042 21.7619 32.7376 22.5245 32.4045C23.2885 32.0714 24.3339 32.4956 24.8619 33.3542Z" fill="#F4ABBA"/>
</g>
</svg>
