<svg width="43" height="42" viewBox="0 0 43 42" fill="none" xmlns="http://www.w3.org/2000/svg">
<path d="M19.1782 3.22271C19.1782 3.22271 19.1782 1.00049 21.4004 1.00049C23.6226 1.00049 23.6226 3.22271 23.6226 3.22271V5.44493C23.6226 5.44493 23.6226 7.66716 21.4004 7.66716C19.1782 7.66716 19.1782 5.44493 19.1782 5.44493V3.22271ZM39.1782 18.7783C39.1782 18.7783 41.4004 18.7783 41.4004 21.0005C41.4004 23.2227 39.1782 23.2227 39.1782 23.2227H36.9559C36.9559 23.2227 34.7337 23.2227 34.7337 21.0005C34.7337 18.7783 36.9559 18.7783 36.9559 18.7783H39.1782ZM5.84484 18.7783C5.84484 18.7783 8.06706 18.7783 8.06706 21.0005C8.06706 23.2227 5.84484 23.2227 5.84484 23.2227H3.62261C3.62261 23.2227 1.40039 23.2227 1.40039 21.0005C1.40039 18.7783 3.62261 18.7783 3.62261 18.7783H5.84484ZM11.5348 9.10382C11.5348 9.10382 13.1059 10.6749 11.5348 12.246C9.96373 13.8172 8.39261 12.246 8.39261 12.246L6.82039 10.676C6.82039 10.676 5.24928 9.10493 6.82039 7.53271C8.39261 5.9616 9.96372 7.53271 9.96372 7.53271L11.5348 9.10382ZM34.8682 32.4372C34.8682 32.4372 36.4393 34.0083 34.8682 35.5794C33.2971 37.1505 31.7259 35.5794 31.7259 35.5794L30.1548 34.0083C30.1548 34.0083 28.5837 32.4372 30.1548 30.866C31.7259 29.2949 33.2971 30.866 33.2971 30.866L34.8682 32.4372ZM34.4093 12.246C34.4093 12.246 32.8382 13.8172 31.2671 12.246C29.6959 10.6749 31.2671 9.10382 31.2671 9.10382L32.8382 7.53271C32.8382 7.53271 34.4093 5.9616 35.9804 7.53271C37.5515 9.10382 35.9804 10.6749 35.9804 10.6749L34.4093 12.246ZM11.0759 35.5794C11.0759 35.5794 9.50484 37.1505 7.93372 35.5794C6.36261 34.0083 7.93372 32.4372 7.93372 32.4372L9.50484 30.866C9.50484 30.866 11.0759 29.2949 12.6471 30.866C14.2182 32.4372 12.6471 34.0083 12.6471 34.0083L11.0759 35.5794ZM19.1782 36.556C19.1782 36.556 19.1782 34.3338 21.4004 34.3338C23.6226 34.3338 23.6226 36.556 23.6226 36.556V38.7783C23.6226 38.7783 23.6226 41.0005 21.4004 41.0005C19.1782 41.0005 19.1782 38.7783 19.1782 38.7783V36.556Z" fill="#FFAC33" stroke="#1E232C" stroke-width="1.4" stroke-linejoin="round"/>
<path d="M21.4004 32.0005C27.4755 32.0005 32.4004 27.0756 32.4004 21.0005C32.4004 14.9254 27.4755 10.0005 21.4004 10.0005C15.3253 10.0005 10.4004 14.9254 10.4004 21.0005C10.4004 27.0756 15.3253 32.0005 21.4004 32.0005Z" fill="#FFAC33" stroke="#1E232C" stroke-width="1.4" stroke-linejoin="round"/>
</svg>
