<?xml version="1.0" standalone="no"?>
<!DOCTYPE svg PUBLIC "-//W3C//DTD SVG 20010904//EN"
 "http://www.w3.org/TR/2001/REC-SVG-20010904/DTD/svg10.dtd">
<svg version="1.0" xmlns="http://www.w3.org/2000/svg"
 width="512.000000pt" height="512.000000pt" viewBox="0 0 512.000000 512.000000"
 preserveAspectRatio="xMidYMid meet">
<metadata>
Created by potrace 1.14, written by Peter Selinger 2001-2017
</metadata>
<g transform="translate(0.000000,512.000000) scale(0.100000,-0.100000)"
fill="#000000" stroke="none">
<path d="M1435 5043 c-374 -84 -676 -430 -787 -902 -29 -127 -36 -405 -13
-543 31 -189 115 -401 220 -558 60 -88 1598 -2048 1636 -2082 35 -33 89 -37
131 -10 23 14 1437 1807 1627 2062 105 140 184 326 228 530 26 123 26 479 -1
600 -59 270 -174 491 -346 660 -331 326 -813 334 -1146 18 -40 -39 -151 -169
-245 -289 -94 -120 -173 -219 -174 -219 -1 0 -75 92 -163 204 -216 273 -334
383 -495 460 -119 57 -204 76 -337 75 -63 -1 -124 -3 -135 -6z"/>
<path d="M1650 1154 c-14 -3 -86 -14 -160 -25 -822 -125 -1224 -400 -961 -658
67 -66 138 -110 263 -161 253 -104 617 -179 1103 -227 260 -25 1070 -25 1330
0 486 48 850 123 1103 227 279 114 393 259 321 407 -71 148 -365 285 -797 372
-185 38 -447 75 -468 67 -10 -4 -14 -15 -12 -33 l3 -27 156 -22 c377 -53 666
-131 861 -231 271 -139 277 -274 17 -417 -499 -273 -1812 -382 -2839 -235
-706 101 -1134 307 -1035 498 80 155 494 306 1054 385 l156 22 0 29 c0 27 -3
30 -35 31 -19 1 -46 0 -60 -2z"/>
</g>
</svg>
