<svg width="54" height="54" viewBox="0 0 54 54" fill="none" xmlns="http://www.w3.org/2000/svg">
<path d="M39.9409 4.56181L30.4171 3.37134H16.1314L6.60756 8.13324L3.03613 17.6571V35.5142L5.41709 41.4666C6.60756 41.0698 9.22661 40.2761 10.179 40.2761H30.4171C31.3695 40.2761 45.0996 37.1015 51.8457 35.5142L50.6552 25.9904L51.8457 23.6094L50.6552 15.2761L47.0838 10.5142L39.9409 4.56181Z" fill="#8B8E97"/>
<path d="M7.48063 36.8873C5.0827 39.4472 6.75319 37.5178 4.59974 39.7413C3.78853 40.579 3.6482 42.0571 4.30922 43.0599L7.48063 47.8704C7.65125 48.1293 7.8675 48.3417 8.11475 48.4937L13.0397 51.5174C13.317 51.6877 13.6223 51.7766 13.9355 51.7766H30.9014C37.0347 51.7766 41.612 43.1585 43.5385 37.8807C43.6528 37.5675 43.6995 37.2273 43.6819 36.8873L43.198 27.5306C43.1755 27.0952 43.0467 26.6766 42.8265 26.3247L40.6111 22.7838C40.3249 22.3264 39.9031 22.0109 39.4286 21.8999L36.783 21.2796C36.3286 21.1731 35.8567 21.261 35.4529 21.5272L32.0261 23.7866C31.823 23.9206 31.6432 24.095 31.4928 24.3038C29.5138 27.0477 25.8083 31.9741 25.1791 31.9741C24.3616 31.9741 22.9501 33.8591 19.9526 31.9428C18.0211 30.7079 15.9385 29.5959 14.8743 29.5618C11.5956 31.1504 7.7833 36.5643 7.48063 36.8873Z" fill="#8F9196"/>
<path d="M2.32194 19.5155C2.32194 10.2048 9.86962 2.65715 19.1803 2.65715H34.5113C43.822 2.65715 51.3696 10.2048 51.3696 19.5155V34.8465C51.3696 44.1572 43.822 51.7048 34.5113 51.7048H19.1803C9.8696 51.7048 2.32194 44.1572 2.32194 34.8465V19.5155ZM19.1803 3.15657C10.1455 3.15657 2.82137 10.4807 2.82137 19.5155V34.8465C2.82137 43.8813 10.1455 51.2056 19.1803 51.2056H34.5113C43.5461 51.2056 50.8704 43.8813 50.8704 34.8465V19.5155C50.8704 10.4807 43.5461 3.15657 34.5113 3.15657H19.1803Z" fill="#8F9196" stroke="#EDEDED" stroke-width="3.33333"/>
<path d="M11.5856 16.9608C11.5856 14.448 13.2738 12.8785 14.8237 12.8785C16.3738 12.8785 18.062 14.4481 18.062 16.9608C18.062 19.4736 16.3738 21.0432 14.8237 21.0432C13.2738 21.0432 11.5856 19.4736 11.5856 16.9608Z" fill="#8F9196" stroke="#EDEDED" stroke-width="3.33333"/>
<path d="M39.3235 21.8966L39.3235 21.8967L43.3253 26.5871C43.3253 26.5871 43.3254 26.5872 43.3254 26.5872C43.3254 26.5872 43.3255 26.5873 43.3255 26.5873C43.3954 26.6695 43.4195 26.8245 43.398 26.9569L39.5473 22.4433L39.5472 22.4432C37.8177 20.4163 34.8873 20.4161 33.1579 22.4433L24.8815 32.1443C23.2057 34.1085 20.6152 34.1085 18.9394 32.1443L18.2928 31.3864C16.5633 29.3593 13.633 29.3594 11.9035 31.3863L11.9034 31.3864L4.23775 40.3715C4.21622 40.239 4.24039 40.084 4.31026 40.0021L12.1271 30.8398L12.1272 30.8397C13.8027 28.8756 16.3934 28.8755 18.0692 30.8398L18.7156 31.5975C20.4452 33.6248 23.3756 33.6248 25.1052 31.5975L33.3814 21.8967C35.0572 19.9324 37.6479 19.9325 39.3235 21.8966Z" fill="#8F9196" stroke="#EDEDED" stroke-width="3.33333"/>
</svg>
