<svg width="196" height="35" viewBox="0 0 196 35" fill="none" xmlns="http://www.w3.org/2000/svg">
<path d="M12.8811 11.604L16.7773 3.75564C17.2774 2.74812 18.7225 2.74812 19.2226 3.75564L23.1189 11.604L31.8322 12.8702C32.9502 13.0327 33.3957 14.3991 32.5864 15.1828L26.2825 21.2877L27.7702 29.9121C27.9613 31.0197 26.7921 31.8642 25.7917 31.3411L18 27.267L10.2082 31.3411C9.2079 31.8642 8.03864 31.0197 8.22968 29.9121L9.71737 21.2877L3.41363 15.1828C2.60426 14.3991 3.04983 13.0327 4.16778 12.8702L12.8811 11.604Z" fill="#D9D9D9" stroke="black" stroke-width="5" stroke-linecap="round" stroke-linejoin="round"/>
<path d="M52.8811 11.604L56.7773 3.75564C57.2774 2.74812 58.7225 2.74812 59.2226 3.75564L63.1189 11.604L71.8322 12.8702C72.9502 13.0327 73.3957 14.3991 72.5864 15.1828L66.2825 21.2877L67.7702 29.9121C67.9613 31.0197 66.7921 31.8642 65.7917 31.3411L58 27.267L50.2082 31.3411C49.2079 31.8642 48.0386 31.0197 48.2297 29.9121L49.7174 21.2877L43.4136 15.1828C42.6043 14.3991 43.0498 13.0327 44.1678 12.8702L52.8811 11.604Z" fill="#D9D9D9" stroke="black" stroke-width="5" stroke-linecap="round" stroke-linejoin="round"/>
<path d="M92.8811 11.604L96.7773 3.75564C97.2774 2.74812 98.7225 2.74812 99.2226 3.75564L103.119 11.604L111.832 12.8702C112.95 13.0327 113.396 14.3991 112.586 15.1828L106.283 21.2877L107.77 29.9121C107.961 31.0197 106.792 31.8642 105.792 31.3411L98 27.267L90.2082 31.3411C89.2079 31.8642 88.0386 31.0197 88.2297 29.9121L89.7174 21.2877L83.4136 15.1828C82.6043 14.3991 83.0498 13.0327 84.1678 12.8702L92.8811 11.604Z" fill="#D9D9D9" stroke="black" stroke-width="5" stroke-linecap="round" stroke-linejoin="round"/>
<path d="M92.8811 11.604L96.7773 3.75564C97.2774 2.74812 98.7225 2.74812 99.2226 3.75564L103.119 11.604L111.832 12.8702C112.95 13.0327 113.396 14.3991 112.586 15.1828L106.283 21.2877L107.77 29.9121C107.961 31.0197 106.792 31.8642 105.792 31.3411L98 27.267L90.2082 31.3411C89.2079 31.8642 88.0386 31.0197 88.2297 29.9121L89.7174 21.2877L83.4136 15.1828C82.6043 14.3991 83.0498 13.0327 84.1678 12.8702L92.8811 11.604Z" fill="#D9D9D9" stroke="black" stroke-width="5" stroke-linecap="round" stroke-linejoin="round"/>
<path d="M92.8811 11.604L96.7773 3.75564C97.2774 2.74812 98.7225 2.74812 99.2226 3.75564L103.119 11.604L111.832 12.8702C112.95 13.0327 113.396 14.3991 112.586 15.1828L106.283 21.2877L107.77 29.9121C107.961 31.0197 106.792 31.8642 105.792 31.3411L98 27.267L90.2082 31.3411C89.2079 31.8642 88.0386 31.0197 88.2297 29.9121L89.7174 21.2877L83.4136 15.1828C82.6043 14.3991 83.0498 13.0327 84.1678 12.8702L92.8811 11.604Z" fill="#D9D9D9" stroke="black" stroke-width="5" stroke-linecap="round" stroke-linejoin="round"/>
<path d="M92.8811 11.604L96.7773 3.75564C97.2774 2.74812 98.7225 2.74812 99.2226 3.75564L103.119 11.604L111.832 12.8702C112.95 13.0327 113.396 14.3991 112.586 15.1828L106.283 21.2877L107.77 29.9121C107.961 31.0197 106.792 31.8642 105.792 31.3411L98 27.267L90.2082 31.3411C89.2079 31.8642 88.0386 31.0197 88.2297 29.9121L89.7174 21.2877L83.4136 15.1828C82.6043 14.3991 83.0498 13.0327 84.1678 12.8702L92.8811 11.604Z" fill="#D9D9D9" stroke="black" stroke-width="5" stroke-linecap="round" stroke-linejoin="round"/>
<path d="M132.881 11.604L136.777 3.75564C137.277 2.74812 138.723 2.74812 139.223 3.75564L143.119 11.604L151.832 12.8702C152.95 13.0327 153.396 14.3991 152.586 15.1828L146.283 21.2877L147.77 29.9121C147.961 31.0197 146.792 31.8642 145.792 31.3411L138 27.267L130.208 31.3411C129.208 31.8642 128.039 31.0197 128.23 29.9121L129.717 21.2877L123.414 15.1828C122.604 14.3991 123.05 13.0327 124.168 12.8702L132.881 11.604Z" fill="#D9D9D9" stroke="black" stroke-width="5" stroke-linecap="round" stroke-linejoin="round"/>
<path d="M172.881 11.604L176.777 3.75564C177.277 2.74812 178.723 2.74812 179.223 3.75564L183.119 11.604L191.832 12.8702C192.95 13.0327 193.396 14.3991 192.586 15.1828L186.283 21.2877L187.77 29.9121C187.961 31.0197 186.792 31.8642 185.792 31.3411L178 27.267L170.208 31.3411C169.208 31.8642 168.039 31.0197 168.23 29.9121L169.717 21.2877L163.414 15.1828C162.604 14.3991 163.05 13.0327 164.168 12.8702L172.881 11.604Z" fill="#D9D9D9" stroke="black" stroke-width="5" stroke-linecap="round" stroke-linejoin="round"/>
</svg>
