<svg width="15" height="14" viewBox="0 0 15 14" fill="none" xmlns="http://www.w3.org/2000/svg">
<g id="Union">
<path fill-rule="evenodd" clip-rule="evenodd" d="M7.00011 11.9061C7.00011 12.8333 7.82833 12.9683 8.5 12.3688L13.0254 9.13519C14.3249 7.97542 14.3249 6.09492 13.0254 4.93503L8.28339 1.59619C7.61172 0.996708 7 1.23704 7 2.16425L7 4.51525L7.00003 5.03517L2.19993 5.03517C1.53718 5.03517 1.00001 5.9307 1.00001 7.03529C1.00001 8.13964 1.53718 9.03517 2.19993 9.03517L7.00006 9.03517L7.00011 9.78015L7.00011 11.9061Z" fill="#9EA9F0"/>
<path d="M8.5 12.3688L7.91863 11.5551L7.87454 11.5866L7.83412 11.6227L8.5 12.3688ZM13.0254 9.13519L13.6068 9.94883L13.6509 9.91733L13.6913 9.88125L13.0254 9.13519ZM13.0254 4.93503L13.6914 4.18901L13.6483 4.15059L13.6011 4.11738L13.0254 4.93503ZM8.28339 1.59619L7.61751 2.34225L7.66053 2.38065L7.70769 2.41385L8.28339 1.59619ZM7 4.51525L6 4.51525L6 4.51531L7 4.51525ZM7.00003 5.03517L7.00003 6.03517L8.00009 6.03517L8.00003 5.03511L7.00003 5.03517ZM2.19993 5.03517L2.19993 6.03517L2.19993 5.03517ZM2.19993 9.03517L2.19993 10.0352L2.19993 9.03517ZM7.00006 9.03517L8.00006 9.03511L8 8.03517L7.00006 8.03517L7.00006 9.03517ZM7.00011 9.78015L8.00011 9.78015L8.00011 9.78009L7.00011 9.78015ZM7.83412 11.6227C7.75405 11.6942 7.69299 11.7222 7.66707 11.7308C7.63918 11.74 7.67111 11.7219 7.74683 11.7414C7.78581 11.7514 7.83072 11.7703 7.87476 11.8014C7.91913 11.8328 7.95241 11.8693 7.97486 11.9034C8.01951 11.9711 8.00011 11.9933 8.00011 11.9061L6.00011 11.9061C6.00011 12.2825 6.08423 12.6693 6.30516 13.0043C6.53338 13.3504 6.86948 13.581 7.24953 13.6785C7.97407 13.8645 8.68077 13.5478 9.16588 13.1148L7.83412 11.6227ZM12.4441 8.32156L7.91863 11.5551L9.08137 13.1824L13.6068 9.94883L12.4441 8.32156ZM12.3595 5.68106C13.2135 6.44335 13.2135 7.627 12.3596 8.38914L13.6913 9.88125C15.4362 8.32384 15.4362 5.74649 13.6914 4.18901L12.3595 5.68106ZM7.70769 2.41385L12.4497 5.75269L13.6011 4.11738L8.8591 0.778536L7.70769 2.41385ZM8 2.16425C8 2.03428 8.02254 2.00117 8.01019 2.02731C7.99329 2.06306 7.92815 2.16526 7.78218 2.22752C7.63923 2.2885 7.52815 2.26452 7.50211 2.25641C7.48281 2.2504 7.52509 2.25977 7.61751 2.34225L8.94927 0.850135C8.50568 0.454217 7.77045 0.0581699 6.99746 0.387901C6.20608 0.725478 6 1.5511 6 2.16425L8 2.16425ZM8 4.51525L8 2.16425L6 2.16425L6 4.51525L8 4.51525ZM8.00003 5.03511L8 4.51518L6 4.51531L6.00003 5.03523L8.00003 5.03511ZM2.19993 6.03517L7.00003 6.03517L7.00003 4.03517L2.19993 4.03517L2.19993 6.03517ZM2.00001 7.03529C2.00001 6.63304 2.09988 6.31728 2.20897 6.13544C2.33 5.93369 2.35788 6.03517 2.19993 6.03517L2.19993 4.03517C1.37923 4.03517 0.807152 4.58441 0.493906 5.10657C0.168715 5.64865 5.16263e-06 6.33295 5.22403e-06 7.03529L2.00001 7.03529ZM2.19993 8.03517C2.35787 8.03517 2.32998 8.13663 2.20895 7.9349C2.09987 7.75308 2.00001 7.43739 2.00001 7.03529L5.22403e-06 7.03529C5.28542e-06 7.73755 0.168731 8.42179 0.493926 8.96383C0.80717 9.48595 1.37925 10.0352 2.19993 10.0352L2.19993 8.03517ZM7.00006 8.03517L2.19993 8.03517L2.19993 10.0352L7.00006 10.0352L7.00006 8.03517ZM8.00011 9.78009L8.00006 9.03511L6.00006 9.03523L6.00011 9.78021L8.00011 9.78009ZM8.00011 11.9061L8.00011 9.78015L6.00011 9.78015L6.00011 11.9061L8.00011 11.9061Z" fill="black"/>
</g>
</svg>
