<svg width="50" height="54" viewBox="0 0 50 54" fill="none" xmlns="http://www.w3.org/2000/svg">
<path d="M25.0017 0.913208C18.3531 0.913208 17.5208 0.943779 14.9092 1.06606C12.2976 1.19853 10.5279 1.63671 8.96855 2.2787C7.36141 2.94106 5.99342 3.8378 4.62544 5.28481C3.25745 6.73182 2.42518 8.18902 1.80337 9.91117C1.20069 11.5722 0.789342 13.4676 0.664979 16.2393C0.540617 19.0212 0.521484 19.9078 0.521484 26.99C0.521484 34.0722 0.550183 34.9587 0.664979 37.7407C0.789342 40.5124 1.20069 42.4078 1.80337 44.0688C2.42518 45.7807 3.26702 47.2379 4.62544 48.6951C5.98386 50.1422 7.35184 51.0389 8.96855 51.7013C10.5279 52.3432 12.3072 52.7814 14.9092 52.9139C17.5208 53.0464 18.3531 53.0667 25.0017 53.0667C31.6503 53.0667 32.4826 53.0362 35.0942 52.9139C37.6962 52.7814 39.4756 52.3432 41.0349 51.7013C42.642 51.0389 44.01 50.1422 45.378 48.6951C46.7364 47.2481 47.5782 45.7909 48.2001 44.0688C48.8027 42.4078 49.2141 40.5124 49.3385 37.7407C49.4628 34.9587 49.4819 34.0722 49.4819 26.99C49.4819 19.9078 49.4532 19.0212 49.3385 16.2393C49.2141 13.4676 48.8027 11.5722 48.2001 9.91117C47.5782 8.19921 46.7364 6.74201 45.378 5.28481C44.0196 3.8378 42.6516 2.94106 41.0349 2.2787C39.4756 1.63671 37.6962 1.19853 35.0942 1.06606C32.4826 0.943779 31.6503 0.913208 25.0017 0.913208ZM25.0017 5.6109C31.5355 5.6109 32.32 5.64147 34.9029 5.76375C37.2944 5.88604 38.5859 6.30383 39.4469 6.67068C40.5948 7.13943 41.408 7.71008 42.2689 8.61701C43.1203 9.53413 43.656 10.4003 44.0961 11.6231C44.4309 12.5402 44.8327 13.9159 44.9379 16.4635C45.0527 19.2148 45.0814 20.0402 45.0814 27.0104C45.0814 33.9805 45.0527 34.8059 44.9284 37.5572C44.804 40.1048 44.4022 41.4805 44.0674 42.3976C43.6082 43.6204 43.0916 44.4866 42.2307 45.4037C41.3793 46.3106 40.547 46.8813 39.4182 47.35C38.5572 47.7067 37.2466 48.1347 34.855 48.2468C32.253 48.3691 31.4877 48.3996 24.9347 48.3996C18.3818 48.3996 17.6165 48.3691 15.0145 48.2366C12.6229 48.1041 11.3123 47.6761 10.4513 47.3195C9.2938 46.8303 8.49023 46.2801 7.63883 45.3629C6.77786 44.456 6.23258 43.5695 5.80209 42.367C5.46727 41.4499 5.06549 40.0538 4.94113 37.5063C4.84546 34.7651 4.81676 33.9193 4.81676 26.9798C4.81676 20.0301 4.84546 19.1843 4.94113 16.4125C5.06549 13.865 5.45771 12.4689 5.80209 11.5518C6.23258 10.3086 6.77786 9.4628 7.63883 8.54568C8.49023 7.63875 9.2938 7.04772 10.4513 6.58916C11.3123 6.2325 12.5942 5.80451 14.9858 5.67204C17.5878 5.57014 18.3531 5.53957 24.906 5.53957L25.0017 5.6109ZM25.0017 13.6C18.0566 13.6 12.422 19.6021 12.422 27.0002C12.422 34.3983 18.0566 40.4003 25.0017 40.4003C31.9469 40.4003 37.5814 34.3983 37.5814 27.0002C37.5814 19.6021 31.9469 13.6 25.0017 13.6ZM25.0017 35.6924C20.496 35.6924 16.8416 31.7998 16.8416 27.0002C16.8416 22.2006 20.496 18.3079 25.0017 18.3079C29.5075 18.3079 33.1618 22.2006 33.1618 27.0002C33.1618 31.7998 29.5075 35.6924 25.0017 35.6924ZM41.0157 13.0803C41.0157 14.8127 39.6956 16.2087 38.0789 16.2087C36.4526 16.2087 35.142 14.8025 35.142 13.0803C35.142 11.3582 36.4622 9.95193 38.0789 9.95193C39.6956 9.94174 41.0157 11.348 41.0157 13.0803Z" fill="#1E232C"/>
</svg>
