<svg width="16" height="28" viewBox="0 0 16 28" fill="none" xmlns="http://www.w3.org/2000/svg">
<path d="M1.00025 19.9123L1.00025 19.9122L1 16.0559L1 16.0558L1.00025 12.4123L1.00025 12.4121L1 8.57246L1 8.5724L1 8.56884L1 8.56517L1 8.56147L1 8.55772L1 8.55395L1 8.55013L1 8.54628L1 8.54239L1 8.53846L1 8.5345L1 8.5305L1 8.52646L1 8.52238L1 8.51827L1 8.51412L1 8.50994L1 8.50572L1 8.50146L1 8.49716L1 8.49283L1 8.48847L1 8.48406L1 8.47962L1 8.47515L1 8.47064L1 8.46609L1 8.46151L1 8.45689L1 8.45224L1 8.44755L1 8.44283L1 8.43807L1 8.43327L1 8.42844L1 8.42358L1 8.41868L1 8.41374L1 8.40877L1 8.40377L1 8.39873L1 8.39366L1 8.38855L1 8.38341L1 8.37823L1 8.37302L1 8.36777L1 8.36249L1 8.35718L1 8.35183L1 8.34645L1 8.34103L1 8.33558L1 8.3301L1 8.32458L1 8.31903L1 8.31345L1 8.30783L1 8.30218L1 8.29649L1 8.29078L1 8.28503L1 8.27924L1 8.27343L1 8.26758L1 8.2617L1 8.25578L1 8.24983L1 8.24386L1 8.23784L1 8.2318L1 8.22572L1 8.21961L1 8.21347L1 8.2073L1 8.20109L1 8.19486L1 8.18859L1 8.18229L1 8.17595L1 8.16959L1 8.16319L1 8.15677L1 8.15031L1 8.14382L1 8.1373L1 8.13075L1 8.12416L1 8.11755L1 8.1109L1 8.10423L1 8.09752L1 8.09078L1 8.08401L1 8.07721L1 8.07039L1 8.06353L1 8.05664L1 8.04972L1 8.04277L1 8.03579L1 8.02877L1 8.02173L1 8.01467L1 8.00757L1 8.00044L1 7.99328L1 7.98609L1 7.97887L1 7.97162L1 7.96435L1 7.95704L1 7.94971L1 7.94234L1 7.93495L1 7.92753L1 7.92008L1 7.9126L1 7.90509L1 7.89755L1 7.88998L1 7.88239L1 7.87477L1 7.86712L1 7.85944L1 7.85173L1 7.844L1 7.83623L1 7.82844L1 7.82063L1 7.81278L1 7.8049L1 7.797L1 7.78907L1 7.78112L1 7.77313L1 7.76512L1 7.75708L1 7.74902L1 7.74092L1 7.7328L1 7.72466L1 7.71648L1 7.70829L1 7.70006L1 7.6918L1 7.68352L1 7.67522L1 7.66688L1 7.65853L1 7.65014L1 7.64173L1 7.63329L1 7.62483L1 7.61634L1 7.60782L1 7.59928L1 7.59072L1 7.58212L1 7.57351L1 7.56486L1 7.55619L1 7.5475L1 7.53878L1 7.53004L1 7.52127L1 7.51247L1 7.50366L1 7.49481L1 7.48594L1 7.47705L1 7.46813L1 7.45919L1 7.45022L1 7.44123L1 7.43222L1 7.42318L1 7.41411L1 7.40503L1 7.39591L1 7.38678L1 7.37762L1 7.36844L1 7.35923L1 7.35L1 7.34074L1 7.33147L1 7.32217L1 7.31284L1 7.3035L1 7.29413L1 7.28473L1 7.27532L1 7.26588L1 7.25642L1 7.24693L1 7.23742L1 7.22789L1 7.21834L1 7.20877L1 7.19917L1 7.18955L1 7.17991L1 7.17024L1 7.16056L1 7.15085L1 7.14112L1 7.13137L1 7.1216L1 7.1118L1 7.10199L1 7.09215L1 7.08229L1 7.07241L1 7.06251L1 7.05258L1 7.04264L1 7.03268L1 7.02269L1 7.01268L1 7.00265L1 6.99261L1 6.98254L1 6.97245L1 6.96234L1 6.95221L1 6.94206L1 6.93188L1 6.92169L1 6.91148L1 6.90125L1 6.891L1 6.88073L1 6.87044L1 6.86013L1 6.8498L1 6.83944L1 6.82908L1 6.81869L1 6.80828L1 6.79785L1 6.7874L1 6.77694L1 6.76645L1 6.75595L1 6.74543L1 6.73488L1 6.72433L1 6.71375L1 6.70315L1 6.69253L1 6.6819L1 6.67125L1 6.66058L1 6.64989L1 6.63918L1 6.62845L1 6.61771L1 6.60695L1 6.59617L1 6.58538L1 6.57456L1 6.56373L1 6.55288L1 6.54202L1 6.53113L1 6.52023L1 6.50931L1 6.49838L1 6.48743L1 6.47646L1 6.46547L1 6.45447L1 6.44345L1 6.43241L1 6.42136L1 6.41029L1 6.3992L1 6.3881L1 6.37698L1 6.36585L1 6.3547L1 6.34353L1 6.33235L1 6.32115L1 6.30994L1 6.29871L1 6.28746L1 6.2762L1 6.26493L1 6.25363L1 6.24233L1 6.23101L1 6.21967L1 6.20832L1 6.19695L1 6.18557L1 6.17417L1 6.16276L1 6.15133L1 6.13989L1 6.12843L1 6.11696L1 6.10548L1 6.09398L1 6.08247L1 6.07094L1 6.0594L1 6.04784L1 6.03627L1 6.02469L1 6.01309L1 6.00148L1 5.98986L1 5.97822L1 5.96657L1 5.9549L1 5.94323L1 5.93153L1 5.91983L1 5.90811L1 5.89638L1 5.88464L1 5.87288L1 5.86112L1 5.84933L1 5.83754L1 5.82573L1 5.81391L1 5.80208L1 5.79024L1 5.77838L1 5.76651L1 5.75463L1 5.74274L1 5.73084L1 5.71892L1 5.70699L1 5.69505L1 5.6831L1 5.67114L1 5.65917L1 5.64718L1 5.63518L1 5.62318L1 5.61116L1 5.59913L1 5.58709L1 5.57503L1 5.56297L1 5.5509L1 5.53881L1 5.52672L1 5.51461L1 5.5025L1 5.49037L1 5.47823L1 5.46609L1 5.45393L1 5.44176L1 5.42959L1 5.4174L1 5.4052L1 5.393L1 5.38078L1 5.36856L1 5.35632L1 5.34408L1 5.33182L1 5.31956L1 5.30729L1 5.295L1 5.28271L1 5.27042L1 5.25811L1 5.24579L1 5.23346L1 5.22113L1 5.20878L1 5.19643L1 5.18407L1 5.1717L1 5.15933L1 5.14694L1 5.13455L1 5.12215L1 5.10974L1 5.09732L1 5.0849L1 5.07246L1 5.06002L1 5.04758L1 5.03512L1 5.02266L1 5.01019L1 4.99771L1 4.98523L1 4.97273L1 4.96023L1 4.94773L1 4.93522L1 4.9227L1 4.91017L1 4.89764L1 4.8851L1 4.87255L1 4.86L1 4.84744L1 4.83488L1 4.8223L1 4.80973L1 4.79714L1 4.78455L1 4.77196L1 4.75936L1 4.74675L1 4.73414L1 4.72152L1 4.7089L1 4.69627L1 4.68363L1 4.67099L1 4.65835L1 4.6457L1 4.63305L1 4.62038L1 4.60772L1 4.59505L1 4.58238L1 4.5697L1 4.55702L1 4.54433L1 4.53163L1 4.51894L1 4.50624L1 4.49353L1 4.48082L1 4.46811L1 4.45539L1 4.44267L1 4.42995L1 4.41722L1 4.40448L1 4.39175L1 4.37901L1 4.36627L1 4.35352L1 4.34077L1 4.32802L1 4.31526L1 4.30251L1 4.28974L1 4.27698L1 4.26421L1 4.25144L1 4.23867L1 4.22589L1 4.21312L1 4.20034L1 4.18755L1 4.17477L1 4.16198L1 4.14919L1 4.1364L1 4.12361L1 4.11082L1 4.09802L1 4.08522L1 4.07242L1 4.05962L1 4.04682L1 4.03401L1 4.02121L1 4.0084L1 3.99559L1 3.98278L1 3.96997L1 3.95716L1 3.94435L1 3.93154L1 3.91872L1 3.90591L1 3.89309L1 3.88028L1 3.86746L1 3.85465L1 3.84183L1 3.82901L1 3.8162L1 3.80338L1 3.79057L1 3.77775L1 3.76493L1 3.75212L1 3.7393L1 3.72649L1 3.71367L1 3.70086L1 3.68805L1 3.67523L1 3.66242L1 3.64961L1 3.6368L1 3.624L1 3.61119L1 3.59838L1 3.58558L1 3.57277L1 3.55997L1 3.54717L1 3.53437L1 3.52157L1 3.50878C1 2.69867 1.29495 1.81291 1.68152 1.31397C1.87273 1.06717 2.01036 1.0107 2.0484 1.00208C2.05993 0.999465 2.07001 0.998349 2.092 1.00463C2.11858 1.01222 2.18565 1.03814 2.28981 1.12574L13.1287 10.2419C13.1288 10.2419 13.1288 10.2419 13.1288 10.2419C14.4033 11.314 15 12.6776 15 14C15 15.3223 14.4033 16.6859 13.1288 17.7578L13.1288 17.7578L2.28981 26.8743C2.2898 26.8743 2.28979 26.8743 2.28979 26.8743C2.18563 26.9619 2.11857 26.9878 2.092 26.9954C2.07002 27.0016 2.05995 27.0005 2.04845 26.9979C2.01045 26.9893 1.87286 26.9329 1.68167 26.6861C1.29515 26.1871 1.00025 25.3014 1.00025 24.4912L1.00025 24.4798L1.00025 24.4683L1.00025 24.4568L1.00025 24.4454L1.00025 24.4339L1.00025 24.4224L1.00025 24.411L1.00025 24.3995L1.00025 24.388L1.00025 24.3765L1.00025 24.365L1.00025 24.3536L1.00025 24.3421L1.00025 24.3306L1.00025 24.3191L1.00025 24.3076L1.00025 24.2961L1.00025 24.2846L1.00025 24.2731L1.00025 24.2616L1.00025 24.2501L1.00025 24.2385L1.00025 24.227L1.00025 24.2155L1.00025 24.204L1.00025 24.1925L1.00025 24.181L1.00025 24.1694L1.00025 24.1579L1.00025 24.1464L1.00025 24.1349L1.00025 24.1233L1.00025 24.1118L1.00025 24.1003L1.00025 24.0887L1.00025 24.0772L1.00025 24.0657L1.00025 24.0541L1.00025 24.0426L1.00025 24.0311L1.00025 24.0195L1.00025 24.008L1.00025 23.9965L1.00025 23.9849L1.00025 23.9734L1.00025 23.9619L1.00025 23.9503L1.00025 23.9388L1.00025 23.9272L1.00025 23.9157L1.00025 23.9042L1.00025 23.8926L1.00025 23.8811L1.00025 23.8696L1.00025 23.858L1.00025 23.8465L1.00025 23.835L1.00025 23.8234L1.00025 23.8119L1.00025 23.8004L1.00025 23.7888L1.00025 23.7773L1.00025 23.7658L1.00025 23.7543L1.00025 23.7427L1.00025 23.7312L1.00025 23.7197L1.00025 23.7082L1.00025 23.6967L1.00025 23.6851L1.00025 23.6736L1.00025 23.6621L1.00025 23.6506L1.00025 23.6391L1.00025 23.6276L1.00025 23.6161L1.00025 23.6046L1.00025 23.5931L1.00025 23.5816L1.00025 23.5701L1.00025 23.5586L1.00025 23.5471L1.00025 23.5356L1.00025 23.5242L1.00025 23.5127L1.00025 23.5012L1.00025 23.4897L1.00025 23.4783L1.00025 23.4668L1.00025 23.4553L1.00025 23.4439L1.00025 23.4324L1.00025 23.421L1.00025 23.4095L1.00025 23.3981L1.00025 23.3866L1.00025 23.3752L1.00025 23.3638L1.00025 23.3523L1.00025 23.3409L1.00025 23.3295L1.00025 23.3181L1.00025 23.3066L1.00025 23.2952L1.00025 23.2838L1.00025 23.2724L1.00025 23.261L1.00025 23.2496L1.00025 23.2383L1.00025 23.2269L1.00025 23.2155L1.00025 23.2041L1.00025 23.1928L1.00025 23.1814L1.00025 23.1701L1.00025 23.1587L1.00025 23.1474L1.00025 23.136L1.00025 23.1247L1.00025 23.1134L1.00025 23.1021L1.00025 23.0907L1.00025 23.0794L1.00025 23.0681L1.00025 23.0568L1.00025 23.0455L1.00025 23.0343L1.00025 23.023L1.00025 23.0117L1.00025 23.0004L1.00025 22.9892L1.00025 22.9779L1.00025 22.9667L1.00025 22.9555L1.00025 22.9442L1.00025 22.933L1.00025 22.9218L1.00025 22.9106L1.00025 22.8994L1.00025 22.8882L1.00025 22.877L1.00025 22.8658L1.00025 22.8546L1.00025 22.8435L1.00025 22.8323L1.00025 22.8212L1.00025 22.81L1.00025 22.7989L1.00025 22.7878L1.00025 22.7766L1.00025 22.7655L1.00025 22.7544L1.00025 22.7433L1.00025 22.7322L1.00025 22.7212L1.00025 22.7101L1.00025 22.699L1.00025 22.688L1.00025 22.677L1.00025 22.6659L1.00025 22.6549L1.00025 22.6439L1.00025 22.6329L1.00025 22.6219L1.00025 22.6109L1.00025 22.5999L1.00025 22.5889L1.00025 22.578L1.00025 22.567L1.00025 22.5561L1.00025 22.5452L1.00025 22.5342L1.00025 22.5233L1.00025 22.5124L1.00025 22.5015L1.00025 22.4907L1.00025 22.4798L1.00025 22.4689L1.00025 22.4581L1.00025 22.4473L1.00025 22.4364L1.00025 22.4256L1.00025 22.4148L1.00025 22.404L1.00025 22.3932L1.00025 22.3824L1.00025 22.3717L1.00025 22.3609L1.00025 22.3502L1.00025 22.3395L1.00025 22.3287L1.00025 22.318L1.00025 22.3073L1.00025 22.2967L1.00025 22.286L1.00025 22.2753L1.00025 22.2647L1.00025 22.254L1.00025 22.2434L1.00025 22.2328L1.00025 22.2222L1.00025 22.2116L1.00025 22.201L1.00025 22.1905L1.00025 22.1799L1.00025 22.1694L1.00025 22.1588L1.00025 22.1483L1.00025 22.1378L1.00025 22.1273L1.00025 22.1169L1.00025 22.1064L1.00025 22.096L1.00025 22.0855L1.00025 22.0751L1.00025 22.0647L1.00025 22.0543L1.00025 22.0439L1.00025 22.0335L1.00025 22.0232L1.00025 22.0128L1.00025 22.0025L1.00025 21.9922L1.00025 21.9819L1.00025 21.9716L1.00025 21.9613L1.00025 21.9511L1.00025 21.9408L1.00025 21.9306L1.00025 21.9204L1.00025 21.9102L1.00025 21.9L1.00025 21.8898L1.00025 21.8797L1.00025 21.8695L1.00025 21.8594L1.00025 21.8493L1.00025 21.8392L1.00025 21.8291L1.00025 21.819L1.00025 21.809L1.00025 21.799L1.00025 21.7889L1.00025 21.7789L1.00025 21.7689L1.00025 21.759L1.00025 21.749L1.00025 21.7391L1.00025 21.7291L1.00025 21.7192L1.00025 21.7093L1.00025 21.6995L1.00025 21.6896L1.00025 21.6797L1.00025 21.6699L1.00025 21.6601L1.00025 21.6503L1.00025 21.6405L1.00025 21.6308L1.00025 21.621L1.00025 21.6113L1.00025 21.6016L1.00025 21.5919L1.00025 21.5822L1.00025 21.5725L1.00025 21.5629L1.00025 21.5533L1.00025 21.5437L1.00025 21.5341L1.00025 21.5245L1.00025 21.5149L1.00025 21.5054L1.00025 21.4959L1.00025 21.4864L1.00025 21.4769L1.00025 21.4674L1.00025 21.458L1.00025 21.4485L1.00025 21.4391L1.00025 21.4297L1.00025 21.4203L1.00025 21.411L1.00025 21.4017L1.00025 21.3923L1.00025 21.383L1.00025 21.3737L1.00025 21.3645L1.00025 21.3552L1.00025 21.346L1.00025 21.3368L1.00025 21.3276L1.00025 21.3184L1.00025 21.3093L1.00025 21.3002L1.00025 21.2911L1.00025 21.282L1.00025 21.2729L1.00025 21.2638L1.00025 21.2548L1.00025 21.2458L1.00025 21.2368L1.00025 21.2278L1.00025 21.2189L1.00025 21.21L1.00025 21.201L1.00025 21.1922L1.00025 21.1833L1.00025 21.1744L1.00025 21.1656L1.00025 21.1568L1.00025 21.148L1.00025 21.1392L1.00025 21.1305L1.00025 21.1218L1.00025 21.1131L1.00025 21.1044L1.00025 21.0957L1.00025 21.0871L1.00025 21.0785L1.00025 21.0699L1.00025 21.0613L1.00025 21.0528L1.00025 21.0442L1.00025 21.0357L1.00025 21.0272L1.00025 21.0188L1.00025 21.0103L1.00025 21.0019L1.00025 20.9935L1.00025 20.9851L1.00025 20.9768L1.00025 20.9684L1.00025 20.9601L1.00025 20.9518L1.00025 20.9436L1.00025 20.9353L1.00025 20.9271L1.00025 20.9189L1.00025 20.9107L1.00025 20.9026L1.00025 20.8945L1.00025 20.8864L1.00025 20.8783L1.00025 20.8702L1.00025 20.8622L1.00025 20.8542L1.00025 20.8462L1.00025 20.8382L1.00025 20.8303L1.00025 20.8224L1.00025 20.8145L1.00025 20.8066L1.00025 20.7988L1.00025 20.791L1.00025 20.7832L1.00025 20.7754L1.00025 20.7676L1.00025 20.7599L1.00025 20.7522L1.00025 20.7446L1.00025 20.7369L1.00025 20.7293L1.00025 20.7217L1.00025 20.7141L1.00025 20.7066L1.00025 20.6991L1.00025 20.6916L1.00025 20.6841L1.00025 20.6766L1.00025 20.6692L1.00025 20.6618L1.00025 20.6545L1.00025 20.6471L1.00025 20.6398L1.00025 20.6325L1.00025 20.6252L1.00025 20.618L1.00025 20.6108L1.00025 20.6036L1.00025 20.5964L1.00025 20.5893L1.00025 20.5822L1.00025 20.5751L1.00025 20.568L1.00025 20.561L1.00025 20.554L1.00025 20.547L1.00025 20.5401L1.00025 20.5332L1.00025 20.5263L1.00025 20.5194L1.00025 20.5126L1.00025 20.5057L1.00025 20.499L1.00025 20.4922L1.00025 20.4855L1.00025 20.4788L1.00025 20.4721L1.00025 20.4654L1.00025 20.4588L1.00025 20.4522L1.00025 20.4457L1.00025 20.4391L1.00025 20.4326L1.00025 20.4261L1.00025 20.4197L1.00025 20.4133L1.00025 20.4069L1.00025 20.4005L1.00025 20.3942L1.00025 20.3878L1.00025 20.3816L1.00025 20.3753L1.00025 20.3691L1.00025 20.3629L1.00025 20.3567L1.00025 20.3506L1.00025 20.3445L1.00025 20.3384L1.00025 20.3324L1.00025 20.3263L1.00025 20.3204L1.00025 20.3144L1.00025 20.3085L1.00025 20.3026L1.00025 20.2967L1.00025 20.2909L1.00025 20.285L1.00025 20.2793L1.00025 20.2735L1.00025 20.2678L1.00025 20.2621L1.00025 20.2564L1.00025 20.2508L1.00025 20.2452L1.00025 20.2397L1.00025 20.2341L1.00025 20.2286L1.00025 20.2231L1.00025 20.2177L1.00025 20.2123L1.00025 20.2069L1.00025 20.2016L1.00025 20.1962L1.00025 20.1909L1.00025 20.1857L1.00025 20.1805L1.00025 20.1753L1.00025 20.1701L1.00025 20.165L1.00025 20.1599L1.00025 20.1548L1.00025 20.1498L1.00025 20.1448L1.00025 20.1398L1.00025 20.1349L1.00025 20.13L1.00025 20.1251L1.00025 20.1203L1.00025 20.1154L1.00025 20.1107L1.00025 20.1059L1.00025 20.1012L1.00025 20.0965L1.00025 20.0919L1.00025 20.0873L1.00025 20.0827L1.00025 20.0782L1.00025 20.0737L1.00025 20.0692L1.00025 20.0647L1.00025 20.0603L1.00025 20.0559L1.00025 20.0516L1.00025 20.0473L1.00025 20.043L1.00025 20.0388L1.00025 20.0346L1.00025 20.0304L1.00025 20.0263L1.00025 20.0221L1.00025 20.0181L1.00025 20.014L1.00025 20.01L1.00025 20.0061L1.00025 20.0021L1.00025 19.9982L1.00025 19.9944L1.00025 19.9905L1.00025 19.9867L1.00025 19.983L1.00025 19.9793L1.00025 19.9756L1.00025 19.9719L1.00025 19.9683L1.00025 19.9647L1.00025 19.9612L1.00025 19.9577L1.00025 19.9542L1.00025 19.9507L1.00025 19.9473L1.00025 19.944L1.00025 19.9406L1.00025 19.9373L1.00025 19.9341L1.00025 19.9308L1.00025 19.9277L1.00025 19.9245L1.00025 19.9214L1.00025 19.9183L1.00025 19.9153L1.00025 19.9123Z" fill="#9EA9F0" stroke="#1E232C" stroke-width="2"/>
</svg>
