<svg width="14" height="14" viewBox="0 0 14 14" fill="none" xmlns="http://www.w3.org/2000/svg">
<path fill-rule="evenodd" clip-rule="evenodd" d="M13.3779 0.621628C12.5491 -0.207209 11.2053 -0.207209 10.3765 0.621628L6.99974 3.99835L3.62376 0.622365C2.79492 -0.206473 1.45111 -0.206473 0.622271 0.622364C-0.206566 1.4512 -0.206566 2.79501 0.622271 3.62385L3.99825 6.99983L0.621628 10.3765C-0.207209 11.2053 -0.207209 12.5491 0.621628 13.3779C1.45046 14.2068 2.79427 14.2068 3.62311 13.3779L6.99974 10.0013L10.3771 13.3787C11.2059 14.2075 12.5497 14.2075 13.3786 13.3787C14.2074 12.5498 14.2074 11.206 13.3786 10.3772L10.0012 6.99983L13.3779 3.62311C14.2068 2.79428 14.2068 1.45047 13.3779 0.621628Z" fill="#1E232C"/>
</svg>
