<svg width="46" height="46" viewBox="0 0 46 46" fill="none" xmlns="http://www.w3.org/2000/svg">
<path d="M34.1111 22.111V29.6666C34.1111 37.0304 28.1416 42.9999 20.7778 42.9999H16.3333C8.96953 42.9999 3 37.0304 3 29.6666V22.111C3 21.3746 3.59696 20.7777 4.33333 20.7777H32.7778C33.5142 20.7777 34.1111 21.3746 34.1111 22.111Z" stroke="#D9D9D9" stroke-width="5" stroke-linecap="round" stroke-linejoin="round"/>
<path d="M23 16.3334C23 14.1111 24.5873 11.8889 27.762 11.8889C31.2684 11.8889 34.1111 9.04628 34.1111 5.53972V4.11115" stroke="#D9D9D9" stroke-width="5" stroke-linecap="round" stroke-linejoin="round"/>
<path d="M14.1111 16.3333V15.2222C14.1111 11.5403 17.0959 8.55556 20.7778 8.55556C23.2324 8.55556 25.2222 6.56571 25.2222 4.11111V3" stroke="#D9D9D9" stroke-width="5" stroke-linecap="round" stroke-linejoin="round"/>
<path d="M31.8889 20.7777H37.4445C40.5127 20.7777 43 23.265 43 26.3333C43 29.4015 40.5127 31.8888 37.4445 31.8888H34.1111" stroke="#D9D9D9" stroke-width="5" stroke-linecap="round" stroke-linejoin="round"/>
</svg>
