<svg width="30" height="30" viewBox="0 0 30 30" fill="none" xmlns="http://www.w3.org/2000/svg">
<path fill-rule="evenodd" clip-rule="evenodd" d="M21.3708 19.6799C24.6958 16.0061 24.5221 10.4678 20.8498 6.98876C16.9951 3.33708 10.7456 3.33708 6.89094 6.98876C3.03635 10.6405 3.03635 16.561 6.89094 20.2128C10.3238 23.4649 15.656 23.8208 19.5045 21.2804L23.8537 25.4007C24.3447 25.8658 25.1407 25.8658 25.6316 25.4007C26.1226 24.9357 26.1226 24.1816 25.6316 23.7164L21.3708 19.6799Z" fill="#C3BEF0"/>
<path d="M21.3708 19.6799L20.8518 19.2102L20.3927 19.7175L20.8894 20.1881L21.3708 19.6799ZM20.8498 6.98876L21.3312 6.48059L21.3312 6.48059L20.8498 6.98876ZM6.89094 6.98876L6.40953 6.48059L6.40952 6.4806L6.89094 6.98876ZM6.89094 20.2128L6.40952 20.721L6.40952 20.721L6.89094 20.2128ZM19.5045 21.2804L19.986 20.7723L19.5826 20.3902L19.1189 20.6962L19.5045 21.2804ZM23.8537 25.4007L24.3352 24.8925L23.8537 25.4007ZM25.6316 25.4007L25.1502 24.8925L25.1501 24.8926L25.6316 25.4007ZM25.6316 23.7164L26.113 23.2083L25.6316 23.7164ZM21.8898 20.1497C25.4698 16.1941 25.28 10.2215 21.3312 6.48059L20.3684 7.49693C23.7643 10.7141 23.9218 15.8181 20.8518 19.2102L21.8898 20.1497ZM21.3312 6.48059C17.2065 2.57314 10.5342 2.57314 6.40953 6.48059L7.37236 7.49694C10.957 4.10102 16.7837 4.10102 20.3684 7.49694L21.3312 6.48059ZM6.40952 6.4806C2.26349 10.4084 2.26349 16.7931 6.40952 20.721L7.37237 19.7046C3.80921 16.329 3.80921 10.8726 7.37237 7.49693L6.40952 6.4806ZM6.40952 20.721C10.0857 24.2037 15.7784 24.5788 19.8902 21.8647L19.1189 20.6962C15.5336 23.0628 10.5618 22.7262 7.37236 19.7046L6.40952 20.721ZM24.3352 24.8925L19.986 20.7723L19.0231 21.7886L23.3723 25.9089L24.3352 24.8925ZM25.1501 24.8926C24.9293 25.1018 24.5562 25.1019 24.3352 24.8925L23.3723 25.9089C24.1332 26.6297 25.3522 26.6298 26.1131 25.9088L25.1501 24.8926ZM25.1502 24.2246C25.3497 24.4137 25.3496 24.7036 25.1502 24.8925L26.1129 25.9089C26.8955 25.1678 26.8954 23.9494 26.113 23.2083L25.1502 24.2246ZM20.8894 20.1881L25.1502 24.2246L26.113 23.2083L21.8522 19.1718L20.8894 20.1881Z" fill="#1E232C"/>
<path d="M9.33429 16.9809C8.9664 17.3216 8.36983 17.3216 8.00194 16.9809C5.96412 15.0943 5.90851 12.0417 7.93753 10.1632C8.30542 9.82256 8.90199 9.82256 9.26988 10.1632C9.63789 10.5039 9.63789 11.0561 9.26988 11.3968C8.00341 12.5694 8.00548 14.517 9.33429 15.7474C9.70218 16.088 9.70218 16.6403 9.33429 16.9809Z" fill="white"/>
</svg>
