<svg width="18" height="23" viewBox="0 0 18 23" fill="none" xmlns="http://www.w3.org/2000/svg">
<path d="M17 8.56757C17 16.4545 9 21 9 21C9 21 1 16.4545 1 8.56757C1 4.38812 4.58172 1 9 1C13.4183 1 17 4.38812 17 8.56757Z" fill="#D3D8E3" stroke="#1E232C" stroke-width="2"/>
<path fill-rule="evenodd" clip-rule="evenodd" d="M10.8286 6.48468C10.5567 6.48468 10.2878 6.54083 10.0375 6.64951C9.78728 6.75817 9.5608 6.91706 9.37076 7.1163C9.2923 7.1985 9.16102 7.19845 9.08257 7.11623C8.69853 6.71379 8.17446 6.48486 7.62482 6.48486C7.07518 6.48486 6.55113 6.71379 6.16707 7.11623C5.78348 7.51821 5.57031 8.06049 5.57031 8.62314C5.57031 9.18579 5.78348 9.72807 6.16707 10.13L8.49737 12.5719C8.89386 12.9874 9.5595 12.9874 9.95599 12.5719L12.2863 10.13C12.4764 9.93095 12.6265 9.69529 12.7287 9.4369C12.8308 9.17851 12.8832 8.90202 12.8832 8.62314C12.8832 8.34422 12.8308 8.06773 12.7287 7.80938C12.6265 7.55102 12.4764 7.3154 12.2863 7.1163C12.0963 6.91704 11.8699 6.75818 11.6196 6.64951C11.3693 6.54083 11.1005 6.48468 10.8286 6.48468Z" fill="white"/>
</svg>
