<svg width="25" height="22" viewBox="0 0 25 22" fill="none" xmlns="http://www.w3.org/2000/svg">
<path d="M15.05 1.46C14.35 1.76 13.72 2.21 13.19 2.76C12.54 3.44 11.45 3.44 10.8 2.76C9.72 1.63 8.26 1 6.74 1C5.22 1 3.76 1.63 2.68 2.76C1.6 3.89 1 5.42 1 7.02C1 8.62 1.61 10.15 2.68 11.28L10.33 19.29C11.24 20.24 12.76 20.24 13.67 19.29L21.32 11.28C21.85 10.72 22.28 10.06 22.57 9.33C22.86 8.6 23.01 7.82 23.01 7.03C23.01 6.24 22.86 5.46 22.57 4.73C22.28 4 21.86 3.34 21.33 2.78C20.8 2.22 20.16 1.78 19.47 1.47C19.04 1.28 18.27 1.01 17.27 1.01C16.27 1.01 15.5 1.28 15.07 1.47L15.05 1.46ZM15.05 1.46C15.75 1.16 16.49 1 17.25 1ZM17.25 1C18 1 18.75 1.16 19.45 1.46C19.16 1.34 18.79 1.2 18.35 1.11C17.93 1.02 17.55 1 17.25 1Z" fill="#F8F8FA" fill-opacity="0.5"/>
<path d="M15.05 1.46C14.35 1.76 13.72 2.21 13.19 2.76C12.54 3.44 11.45 3.44 10.8 2.76C9.72 1.63 8.26 1 6.74 1C5.22 1 3.76 1.63 2.68 2.76C1.6 3.89 1 5.42 1 7.02C1 8.62 1.61 10.15 2.68 11.28L10.33 19.29C11.24 20.24 12.76 20.24 13.67 19.29L21.32 11.28C21.85 10.72 22.28 10.06 22.57 9.33C22.86 8.6 23.01 7.82 23.01 7.03C23.01 6.24 22.86 5.46 22.57 4.73C22.28 4 21.86 3.34 21.33 2.78C20.8 2.22 20.16 1.78 19.47 1.47C19.04 1.28 18.27 1.01 17.27 1.01C16.27 1.01 15.5 1.28 15.07 1.47L15.05 1.46ZM15.05 1.46C15.75 1.16 16.49 1 17.25 1M17.25 1C18 1 18.75 1.16 19.45 1.46C19.16 1.34 18.79 1.2 18.35 1.11C17.93 1.02 17.55 1 17.25 1Z" stroke="#1D222B" stroke-width="2" stroke-linejoin="round"/>
</svg>
