<svg width="24" height="21" viewBox="0 0 24 21" fill="none" xmlns="http://www.w3.org/2000/svg">
<path d="M15.0591 1.45822L15.0591 1.45823C14.3624 1.76072 13.7292 2.2042 13.1961 2.76308L13.1959 2.76329C12.5442 3.44621 11.4544 3.44534 10.8033 2.76304C9.7264 1.63459 8.26568 1.00059 6.74261 1.00059C5.21955 1.00059 3.75885 1.63458 2.68192 2.76305C1.60505 3.89153 1 5.42206 1 7.01812C1 8.61418 1.60508 10.1447 2.68191 11.2731L2.68192 11.2731L10.3296 19.2869L10.3296 19.2869C11.2369 20.2377 12.7625 20.2377 13.6697 19.2869L13.6697 19.2869L21.3173 11.2732L21.3175 11.2729C21.8509 10.7144 22.274 10.0512 22.5627 9.3211C22.8514 8.59093 23 7.80833 23 7.01812C23 6.22778 22.8514 5.44519 22.5627 4.71517C22.2741 3.98524 21.851 3.322 21.3178 2.76339L21.3174 2.76304C20.7844 2.20414 20.1514 1.76077 19.4547 1.45824L15.0591 1.45822ZM15.0591 1.45822C15.7558 1.15572 16.5026 1 17.2569 1M15.0591 1.45822L17.2569 1M17.2569 1C18.0111 1 18.7578 1.15571 19.4546 1.45822L17.2569 1Z" fill="#FF649C" stroke="#1E232C" stroke-width="2" stroke-linejoin="round"/>
</svg>
