<svg width="40" height="42" viewBox="0 0 40 42" fill="none" xmlns="http://www.w3.org/2000/svg">
<path fill-rule="evenodd" clip-rule="evenodd" d="M18.2052 10.6205C19.2668 9.79187 20.7332 9.79187 21.7948 10.6205L27.965 15.4368C29.2469 16.4375 30 17.9994 30 19.6569V28.9344C30 30.627 28.669 31.999 27.0271 31.999H26.3664C24.7245 31.999 23.3934 30.627 23.3934 28.9344V24.6006C23.3934 23.8312 22.7885 23.2075 22.0421 23.2075H17.6878C16.9414 23.2075 16.3364 23.8312 16.3364 24.6006V28.9344C16.3364 30.627 15.0053 31.999 13.3634 31.999H12.973C11.331 31.999 10 30.627 10 28.9344V19.6569C10 17.9994 10.7532 16.4375 12.0351 15.4368L18.2052 10.6205Z" fill="#E1C3FF" stroke="#1E232C" stroke-width="1.4"/>
</svg>
