<svg width="19" height="22" viewBox="0 0 19 22" fill="none" xmlns="http://www.w3.org/2000/svg">
<path d="M17.8 8.32432C17.8 12.4086 15.6815 15.6622 13.496 17.9298C12.4074 19.0592 11.3169 19.9281 10.4987 20.5141C10.0901 20.8067 9.75097 21.0277 9.51597 21.1745C9.51059 21.1778 9.50527 21.1811 9.5 21.1844C9.49473 21.1811 9.48941 21.1778 9.48403 21.1745C9.24903 21.0277 8.90989 20.8067 8.50134 20.5141C7.68311 19.9281 6.59261 19.0592 5.50401 17.9298C3.31851 15.6622 1.2 12.4086 1.2 8.32432C1.2 4.16396 4.86359 0.7 9.5 0.7C14.1364 0.7 17.8 4.16396 17.8 8.32432Z" fill="#FFB9B9" stroke="#1E232C" stroke-width="1.4"/>
<path d="M9.05193 4.90485C9.23556 4.53403 9.76444 4.53403 9.94807 4.90485L11.0034 7.03595C11.0762 7.183 11.2165 7.28496 11.3789 7.30878L13.7318 7.65388C14.1412 7.71393 14.3046 8.21693 14.0087 8.50616L12.308 10.1684C12.1907 10.2831 12.1371 10.448 12.1646 10.6098L12.5635 12.9542C12.6329 13.3621 12.205 13.673 11.8385 13.4809L9.73208 12.3771C9.58673 12.301 9.41327 12.301 9.26792 12.3771L7.16154 13.4809C6.79501 13.673 6.36713 13.3621 6.43654 12.9542L6.83542 10.6098C6.86294 10.448 6.80934 10.2831 6.69198 10.1684L4.99129 8.50616C4.69536 8.21693 4.8588 7.71393 5.26822 7.65388L7.62112 7.30878C7.78347 7.28496 7.92381 7.183 7.99663 7.03595L9.05193 4.90485Z" fill="white"/>
</svg>
