<svg width="23" height="22" viewBox="0 0 23 22" fill="none" xmlns="http://www.w3.org/2000/svg">
<path d="M19.9881 2.37749L19.9882 2.37752C21.0706 3.45994 21.0706 5.2149 19.9883 6.29719L6.31937 19.9661C6.15972 20.1257 5.94469 20.2178 5.71892 20.223L2.42136 20.2997C1.74056 20.3155 1.1845 19.7595 1.20033 19.0786L1.27702 15.781C1.28227 15.5554 1.37428 15.3403 1.53393 15.1807L1.53395 15.1807L15.2028 1.51181C16.2852 0.42941 18.0401 0.4294 19.1225 1.51176C19.1225 1.51178 19.1225 1.51179 19.1226 1.5118L19.9881 2.37749Z" fill="#FFB9B9" stroke="#1E232C" stroke-width="1.4"/>
<path fill-rule="evenodd" clip-rule="evenodd" d="M13.3562 3.42745C13.736 3.04762 14.3519 3.04762 14.7318 3.42745L19.0721 7.76783C19.452 8.14766 18.8798 8.12017 18.5 8.5C18.1202 8.87983 18.0764 9.52325 17.6965 9.14342L13.3562 4.80304C12.9763 4.42309 12.9763 3.80729 13.3562 3.42745Z" fill="#1E232C"/>
</svg>
