<svg width="19" height="19" viewBox="0 0 19 19" fill="none" xmlns="http://www.w3.org/2000/svg">
<mask id="path-1-outside-1_1025_13183" maskUnits="userSpaceOnUse" x="0" y="0" width="19" height="19" fill="black">
<rect fill="white" width="19" height="19"/>
<path fill-rule="evenodd" clip-rule="evenodd" d="M11 3.5C11 2.67157 10.3284 2 9.5 2C8.67157 2 8 2.67157 8 3.5V8H3.5C2.67157 8 2 8.67157 2 9.5C2 10.3284 2.67157 11 3.5 11H8V15.5C8 16.3284 8.67157 17 9.5 17C10.3284 17 11 16.3284 11 15.5V11H15.5C16.3284 11 17 10.3284 17 9.5C17 8.67157 16.3284 8 15.5 8H11V3.5Z"/>
</mask>
<path fill-rule="evenodd" clip-rule="evenodd" d="M11 3.5C11 2.67157 10.3284 2 9.5 2C8.67157 2 8 2.67157 8 3.5V8H3.5C2.67157 8 2 8.67157 2 9.5C2 10.3284 2.67157 11 3.5 11H8V15.5C8 16.3284 8.67157 17 9.5 17C10.3284 17 11 16.3284 11 15.5V11H15.5C16.3284 11 17 10.3284 17 9.5C17 8.67157 16.3284 8 15.5 8H11V3.5Z" fill="#F8F8FA"/>
<path d="M8 8V10H10V8H8ZM8 11H10V9H8V11ZM11 11V9H9V11H11ZM11 8H9V10H11V8ZM9.5 4C9.22386 4 9 3.77614 9 3.5H13C13 1.567 11.433 0 9.5 0V4ZM10 3.5C10 3.77614 9.77614 4 9.5 4V0C7.567 0 6 1.567 6 3.5H10ZM10 8V3.5H6V8H10ZM3.5 10H8V6H3.5V10ZM4 9.5C4 9.77614 3.77614 10 3.5 10V6C1.567 6 0 7.567 0 9.5H4ZM3.5 9C3.77614 9 4 9.22386 4 9.5H0C0 11.433 1.567 13 3.5 13V9ZM8 9H3.5V13H8V9ZM10 15.5V11H6V15.5H10ZM9.5 15C9.77614 15 10 15.2239 10 15.5H6C6 17.433 7.567 19 9.5 19V15ZM9 15.5C9 15.2239 9.22386 15 9.5 15V19C11.433 19 13 17.433 13 15.5H9ZM9 11V15.5H13V11H9ZM15.5 9H11V13H15.5V9ZM15 9.5C15 9.22386 15.2239 9 15.5 9V13C17.433 13 19 11.433 19 9.5H15ZM15.5 10C15.2239 10 15 9.77614 15 9.5H19C19 7.567 17.433 6 15.5 6V10ZM11 10H15.5V6H11V10ZM9 3.5V8H13V3.5H9Z" fill="#1E232C" mask="url(#path-1-outside-1_1025_13183)"/>
</svg>
