<svg width="22" height="22" viewBox="0 0 22 22" fill="none" xmlns="http://www.w3.org/2000/svg">
<path fill-rule="evenodd" clip-rule="evenodd" d="M6.92253 2.84451C5.79666 1.7185 3.97126 1.7185 2.8454 2.84451C1.71953 3.97052 1.71953 5.79614 2.8454 6.92215L6.92217 10.9994L2.8444 15.0777C1.71853 16.2037 1.71853 18.0294 2.8444 19.1554C3.97027 20.2814 5.79566 20.2814 6.92153 19.1554L10.9993 15.0771L15.0768 19.1551C16.2027 20.2811 18.028 20.2811 19.1539 19.1551C20.2798 18.0291 20.2798 16.2034 19.1539 15.0774L15.0764 10.9994L19.1529 6.92244C20.2788 5.79643 20.2788 3.9708 19.1529 2.84479C18.0271 1.71878 16.2017 1.71878 15.0758 2.84479L10.9993 6.92179L6.92253 2.84451Z" fill="#FD99BD"/>
<path d="M2.8454 2.84451L1.85538 1.85462L2.8454 2.84451ZM6.92253 2.84451L5.93251 3.83439L5.93251 3.8344L6.92253 2.84451ZM2.8454 6.92215L3.83541 5.93226H3.83541L2.8454 6.92215ZM6.92217 10.9994L7.91218 11.9893L8.90195 10.9994L7.91218 10.0095L6.92217 10.9994ZM2.8444 15.0777L1.85439 14.0878H1.85439L2.8444 15.0777ZM2.8444 19.1554L3.83441 18.1655L3.83441 18.1655L2.8444 19.1554ZM6.92153 19.1554L5.93152 18.1655H5.93152L6.92153 19.1554ZM10.9993 15.0771L11.9893 14.0872L10.9993 13.0971L10.0093 14.0872L10.9993 15.0771ZM15.0768 19.1551L16.0668 18.1652H16.0668L15.0768 19.1551ZM19.1539 19.1551L20.1439 20.145L19.1539 19.1551ZM19.1539 15.0774L20.1439 14.0875L20.1439 14.0875L19.1539 15.0774ZM15.0764 10.9994L14.0864 10.0095L13.0967 10.9994L14.0864 11.9893L15.0764 10.9994ZM19.1529 6.92244L20.1429 7.91232L20.1429 7.91232L19.1529 6.92244ZM15.0758 2.84479L16.0658 3.83468V3.83468L15.0758 2.84479ZM10.9993 6.92179L10.0093 7.91168L10.9993 8.90182L11.9893 7.91168L10.9993 6.92179ZM3.83541 3.83439C4.41453 3.2552 5.35339 3.2552 5.93251 3.83439L7.91254 1.85462C6.23992 0.181794 3.528 0.181793 1.85538 1.85462L3.83541 3.83439ZM3.83541 5.93226C3.25619 5.35297 3.25619 4.41368 3.83541 3.83439L1.85538 1.85462C0.182865 3.52735 0.182865 6.23931 1.85538 7.91204L3.83541 5.93226ZM7.91218 10.0095L3.83541 5.93226L1.85538 7.91204L5.93216 11.9893L7.91218 10.0095ZM3.83441 16.0676L7.91218 11.9893L5.93216 10.0095L1.85439 14.0878L3.83441 16.0676ZM3.83441 18.1655C3.2552 17.5862 3.2552 16.6469 3.83441 16.0676L1.85439 14.0878C0.181871 15.7606 0.181869 18.4725 1.85439 20.1452L3.83441 18.1655ZM5.93152 18.1655C5.3524 18.7447 4.41353 18.7447 3.83441 18.1655L1.85439 20.1452C3.52701 21.8181 6.23893 21.8181 7.91154 20.1452L5.93152 18.1655ZM10.0093 14.0872L5.93152 18.1655L7.91154 20.1452L11.9893 16.067L10.0093 14.0872ZM16.0668 18.1652L11.9893 14.0872L10.0093 16.067L14.0868 20.145L16.0668 18.1652ZM18.1639 18.1652C17.5848 18.7444 16.6459 18.7444 16.0668 18.1652L14.0868 20.145C15.7594 21.8178 18.4713 21.8178 20.1439 20.145L18.1639 18.1652ZM18.1639 16.0673C18.7431 16.6466 18.7431 17.5859 18.1639 18.1652L20.1439 20.145C21.8164 18.4722 21.8164 15.7603 20.1439 14.0875L18.1639 16.0673ZM14.0864 11.9893L18.1639 16.0673L20.1439 14.0875L16.0664 10.0095L14.0864 11.9893ZM18.1629 5.93255L14.0864 10.0095L16.0664 11.9893L20.1429 7.91232L18.1629 5.93255ZM18.1629 3.83468C18.7421 4.41397 18.7421 5.35326 18.1629 5.93255L20.1429 7.91232C21.8155 6.23959 21.8155 3.52764 20.1429 1.85491L18.1629 3.83468ZM16.0658 3.83468C16.6449 3.25549 17.5838 3.25549 18.1629 3.83468L20.1429 1.85491C18.4703 0.182079 15.7584 0.182079 14.0858 1.85491L16.0658 3.83468ZM11.9893 7.91168L16.0658 3.83468L14.0858 1.85491L10.0093 5.93191L11.9893 7.91168ZM5.93251 3.8344L10.0093 7.91168L11.9893 5.93191L7.91254 1.85462L5.93251 3.8344Z" fill="#1E232C"/>
</svg>
