<svg width="22" height="22" viewBox="0 0 22 22" fill="none" xmlns="http://www.w3.org/2000/svg">
<mask id="path-1-inside-1_305_5430" fill="white">
<path fill-rule="evenodd" clip-rule="evenodd" d="M14.2353 3.23529C14.2353 1.44849 12.7868 0 11 0C9.2132 0 7.76471 1.44849 7.76471 3.23529L7.76471 7.76471H3.23529C1.44849 7.76471 0 9.2132 0 11C0 12.7868 1.44849 14.2353 3.23529 14.2353H7.76471L7.76471 18.7647C7.76471 20.5515 9.2132 22 11 22C12.7868 22 14.2353 20.5515 14.2353 18.7647V14.2353H18.7647C20.5515 14.2353 22 12.7868 22 11C22 9.2132 20.5515 7.76471 18.7647 7.76471H14.2353V3.23529Z"/>
</mask>
<path fill-rule="evenodd" clip-rule="evenodd" d="M14.2353 3.23529C14.2353 1.44849 12.7868 0 11 0C9.2132 0 7.76471 1.44849 7.76471 3.23529L7.76471 7.76471H3.23529C1.44849 7.76471 0 9.2132 0 11C0 12.7868 1.44849 14.2353 3.23529 14.2353H7.76471L7.76471 18.7647C7.76471 20.5515 9.2132 22 11 22C12.7868 22 14.2353 20.5515 14.2353 18.7647V14.2353H18.7647C20.5515 14.2353 22 12.7868 22 11C22 9.2132 20.5515 7.76471 18.7647 7.76471H14.2353V3.23529Z" fill="#9EA9F0"/>
<path d="M7.76471 3.23529L9.16471 3.23529V3.23529H7.76471ZM7.76471 7.76471V9.16471H9.16471V7.76471H7.76471ZM7.76471 14.2353H9.16471L9.16471 12.8353H7.76471V14.2353ZM7.76471 18.7647H6.36471H7.76471ZM14.2353 14.2353V12.8353H12.8353V14.2353H14.2353ZM14.2353 7.76471H12.8353V9.16471H14.2353V7.76471ZM11 1.4C12.0136 1.4 12.8353 2.22169 12.8353 3.23529H15.6353C15.6353 0.67529 13.56 -1.4 11 -1.4V1.4ZM9.16471 3.23529C9.16471 2.22169 9.98639 1.4 11 1.4V-1.4C8.44 -1.4 6.36471 0.675289 6.36471 3.23529H9.16471ZM9.16471 7.76471L9.16471 3.23529L6.36471 3.23529L6.36471 7.76471H9.16471ZM3.23529 9.16471H7.76471V6.36471H3.23529V9.16471ZM1.4 11C1.4 9.98639 2.22169 9.16471 3.23529 9.16471V6.36471C0.67529 6.36471 -1.4 8.44 -1.4 11H1.4ZM3.23529 12.8353C2.22169 12.8353 1.4 12.0136 1.4 11H-1.4C-1.4 13.56 0.675289 15.6353 3.23529 15.6353V12.8353ZM7.76471 12.8353H3.23529V15.6353H7.76471V12.8353ZM9.16471 18.7647V14.2353H6.36471L6.36471 18.7647H9.16471ZM11 20.6C9.98639 20.6 9.16471 19.7783 9.16471 18.7647H6.36471C6.36471 21.3247 8.44 23.4 11 23.4V20.6ZM12.8353 18.7647C12.8353 19.7783 12.0136 20.6 11 20.6V23.4C13.56 23.4 15.6353 21.3247 15.6353 18.7647H12.8353ZM12.8353 14.2353V18.7647H15.6353V14.2353H12.8353ZM18.7647 12.8353H14.2353V15.6353H18.7647V12.8353ZM20.6 11C20.6 12.0136 19.7783 12.8353 18.7647 12.8353V15.6353C21.3247 15.6353 23.4 13.56 23.4 11H20.6ZM18.7647 9.16471C19.7783 9.16471 20.6 9.98639 20.6 11H23.4C23.4 8.44 21.3247 6.36471 18.7647 6.36471V9.16471ZM14.2353 9.16471H18.7647V6.36471H14.2353V9.16471ZM12.8353 3.23529V7.76471H15.6353V3.23529H12.8353Z" fill="#1E232C" mask="url(#path-1-inside-1_305_5430)"/>
</svg>
