<svg width="56" height="56" viewBox="0 0 56 56" fill="none" xmlns="http://www.w3.org/2000/svg">
<path d="M29.3158 50.3684H4.57895C3.70692 50.3684 3 49.6616 3 48.7895V4.57895C3 3.70692 3.70692 3 4.57895 3H48.7895C49.6616 3 50.3684 3.70692 50.3684 4.57895V29.3158" stroke="black" stroke-width="5" stroke-linecap="round" stroke-linejoin="round"/>
<path d="M3 37.2105L21.4211 29.3158L35.8947 35.8947" stroke="black" stroke-width="5" stroke-linecap="round" stroke-linejoin="round"/>
<path d="M37.2105 21.4211C34.3037 21.4211 31.9474 19.0647 31.9474 16.1579C31.9474 13.2512 34.3037 10.8948 37.2105 10.8948C40.1174 10.8948 42.4737 13.2512 42.4737 16.1579C42.4737 19.0647 40.1174 21.4211 37.2105 21.4211Z" stroke="black" stroke-width="5" stroke-linecap="round" stroke-linejoin="round"/>
<path d="M37.2104 45.1052H45.1052M45.1052 45.1052H52.9999M45.1052 45.1052V37.2105M45.1052 45.1052V53" stroke="black" stroke-width="5" stroke-linecap="round" stroke-linejoin="round"/>
</svg>
