<svg width="33" height="30" viewBox="0 0 33 30" fill="none" xmlns="http://www.w3.org/2000/svg">
<path d="M16.4886 0C7.63776 0 0.5 5.79147 0.5 12.8224C0.5 17.3861 3.46931 21.3822 7.92327 23.6641L6.41578 29.3746C6.38735 29.4602 6.38298 29.552 6.40315 29.64C6.42332 29.728 6.46724 29.8085 6.52998 29.8726C6.62147 29.9544 6.73919 29.9997 6.86117 30C6.96231 29.9918 7.05828 29.9512 7.13526 29.8842L13.6221 25.4479C14.5796 25.582 15.5448 25.6516 16.5114 25.6564C25.3508 25.6564 32.5 19.8649 32.5 12.8224C32.5 5.77988 25.328 0 16.4886 0Z" fill="#392020"/>
<path d="M6.09575 10.7952H4.34842C4.13185 10.8016 3.91796 10.7453 3.73172 10.633C3.64903 10.5805 3.57795 10.5112 3.52292 10.4294C3.46789 10.3477 3.43011 10.2553 3.41195 10.1581C3.4064 10.0965 3.4064 10.0345 3.41195 9.97287C3.40652 9.85752 3.4286 9.74248 3.47631 9.63763C3.52403 9.53277 3.59597 9.44118 3.68604 9.37053C3.88514 9.22429 4.12545 9.14703 4.37126 9.15038H9.63607C9.85437 9.1426 10.0697 9.2033 10.2528 9.32416C10.3374 9.37437 10.41 9.44309 10.4653 9.52522C10.5206 9.60735 10.5572 9.70087 10.5725 9.7991C10.5781 9.85688 10.5781 9.9151 10.5725 9.97287C10.5779 10.0899 10.5559 10.2065 10.5083 10.3132C10.4606 10.4199 10.3887 10.5136 10.2985 10.5867C10.1042 10.7327 9.86622 10.8064 9.62465 10.7952H7.93443V16.8879C7.9413 17.0177 7.92149 17.1475 7.87627 17.2691C7.83106 17.3908 7.76141 17.5016 7.67176 17.5945C7.58579 17.6833 7.48245 17.7529 7.36837 17.7988C7.25429 17.8447 7.132 17.8658 7.00937 17.8609C6.79489 17.8671 6.58496 17.7975 6.41552 17.664C6.2542 17.5336 6.14471 17.3485 6.10717 17.1427C6.09588 17.0582 6.09588 16.9725 6.10717 16.8879L6.09575 10.7952Z" fill="#FEE500"/>
<path d="M11.0764 9.60285C11.1266 9.41224 11.2446 9.24719 11.4076 9.1395C11.5813 9.03966 11.7792 8.99149 11.9786 9.00051H12.4126C12.6242 8.99282 12.8338 9.04496 13.0179 9.15109C13.213 9.28415 13.3516 9.48674 13.4062 9.71865L15.6902 16.2631C15.7495 16.4338 15.799 16.608 15.8387 16.7844C15.8426 16.8577 15.8426 16.9311 15.8387 17.0044C15.8426 17.1173 15.8221 17.2297 15.7787 17.3337C15.7353 17.4378 15.67 17.531 15.5875 17.6068C15.5075 17.69 15.4114 17.7555 15.3053 17.7994C15.1992 17.8432 15.0853 17.8644 14.9708 17.8616C14.7946 17.8793 14.6177 17.8365 14.4685 17.7398C14.3194 17.6432 14.2066 17.4984 14.1485 17.3288L13.6688 15.9041H10.6653L10.1856 17.3288C10.1289 17.5017 10.0148 17.6493 9.86276 17.7465C9.71074 17.8436 9.5302 17.8843 9.35192 17.8616C9.1588 17.8667 8.96964 17.8055 8.81516 17.6878C8.66465 17.5664 8.5631 17.3935 8.52965 17.2014C8.52359 17.1359 8.52359 17.0699 8.52965 17.0044C8.51004 16.8895 8.51004 16.772 8.52965 16.657C8.52965 16.5296 8.60959 16.3905 8.65527 16.2631L11.0764 9.60285ZM12.2184 11.1203L11.1335 14.5952H13.292L12.2184 11.1203Z" fill="#FEE500"/>
<path d="M16.1003 9.97348C16.0887 9.71354 16.179 9.45953 16.3515 9.26693C16.4392 9.17721 16.5445 9.10709 16.6606 9.0612C16.7766 9.01532 16.9009 8.99456 17.0253 9.0004C17.2393 8.99787 17.448 9.06715 17.6192 9.19737C17.7778 9.33324 17.8831 9.52223 17.9161 9.73014C17.9273 9.81082 17.9273 9.8928 17.9161 9.97348V16.0662H21.0567C21.2744 16.0633 21.4884 16.1235 21.6734 16.2398C21.7566 16.2918 21.828 16.361 21.8831 16.4429C21.9382 16.5247 21.9757 16.6173 21.9932 16.7148C21.9932 16.7148 21.9932 16.8306 21.9932 16.8885C21.9986 17.0039 21.9765 17.1188 21.9288 17.2236C21.8811 17.3285 21.8092 17.4202 21.7191 17.4909C21.52 17.6371 21.2797 17.7142 21.0339 17.7109H17.1738C16.9279 17.7269 16.6836 17.662 16.4771 17.5257C16.2925 17.3856 16.1695 17.1776 16.1345 16.9465C16.1262 16.8192 16.1262 16.6914 16.1345 16.5642L16.1003 9.97348Z" fill="#FEE500"/>
<path d="M22.1986 9.97266C22.1918 9.71347 22.2815 9.46121 22.4499 9.26611C22.621 9.10836 22.8406 9.01521 23.0715 9.00255C23.3025 8.98989 23.5306 9.05843 23.7176 9.19654C23.8797 9.33122 23.989 9.52013 24.0259 9.72932C24.0315 9.8103 24.0315 9.89168 24.0259 9.97266V12.8105L26.9153 9.42815C27.0266 9.31276 27.1448 9.20455 27.2693 9.10393C27.3866 9.03308 27.5211 8.99687 27.6576 8.99958C27.8572 8.99848 28.0524 9.05911 28.2172 9.17336C28.2948 9.22639 28.3612 9.29481 28.4122 9.37442C28.4632 9.45402 28.4979 9.54321 28.5141 9.63671C28.5187 9.65964 28.5187 9.68334 28.5141 9.70627C28.5086 9.73301 28.5086 9.76056 28.5141 9.78729C28.5137 9.90917 28.4823 10.0289 28.4228 10.1348C28.3622 10.247 28.2894 10.3517 28.2058 10.4475L26.31 12.5557L28.5941 16.1464V16.2622C28.7127 16.4282 28.8051 16.6119 28.8682 16.8067V16.8645C28.8814 16.9987 28.8623 17.1342 28.8126 17.2593C28.7628 17.3844 28.6839 17.4953 28.5827 17.5827C28.3921 17.7287 28.1591 17.8062 27.9203 17.8028C27.7616 17.8094 27.604 17.7734 27.4635 17.6985C27.3114 17.595 27.186 17.456 27.098 17.2931L24.9738 13.8182L23.9574 14.8955V16.8297C23.9642 17.0889 23.8745 17.3412 23.7061 17.5363C23.6159 17.6258 23.5085 17.6956 23.3907 17.7415C23.2728 17.7873 23.147 17.8082 23.0209 17.8028C22.8102 17.8073 22.6044 17.7377 22.4385 17.6059C22.2772 17.4754 22.1677 17.2904 22.1301 17.0847C22.1188 17.0001 22.1188 16.9143 22.1301 16.8297L22.1986 9.97266Z" fill="#FEE500"/>
</svg>
