<svg width="16" height="26" viewBox="0 0 16 26" fill="none" xmlns="http://www.w3.org/2000/svg">
<path fill-rule="evenodd" clip-rule="evenodd" d="M14.1901 6.0451C15.2308 5.04058 15.2707 3.45078 14.2796 2.49409C13.2887 1.53761 11.6416 1.57618 10.6009 2.5807L1.80758 11.0685C1.23873 11.6176 0.968813 12.3416 1.00286 13.0415C0.993134 13.7152 1.26367 14.404 1.81007 14.9314L10.6034 23.4192C11.6441 24.4237 13.2914 24.4625 14.2823 23.506C15.2734 22.5493 15.2332 20.9593 14.1926 19.9548L6.98609 12.9987L14.1901 6.0451Z" fill="#9EA9F0"/>
<path d="M14.2796 2.49409L14.9741 1.7746V1.7746L14.2796 2.49409ZM14.1901 6.0451L13.4956 5.32561H13.4956L14.1901 6.0451ZM10.6009 2.5807L9.90645 1.8612L10.6009 2.5807ZM1.80758 11.0685L1.11308 10.349H1.11308L1.80758 11.0685ZM1.00286 13.0415L2.00276 13.0559L2.00321 13.0244L2.00168 12.9929L1.00286 13.0415ZM1.81007 14.9314L1.11557 15.6509H1.11557L1.81007 14.9314ZM10.6034 23.4192L11.2979 22.6997L10.6034 23.4192ZM14.2823 23.506L14.9768 24.2255L14.2823 23.506ZM14.1926 19.9548L14.8871 19.2353L14.1926 19.9548ZM6.98609 12.9987L6.29159 12.2792L5.54619 12.9987L6.29159 13.7182L6.98609 12.9987ZM13.5851 3.21359C14.1345 3.74393 14.1641 4.68029 13.4956 5.32561L14.8846 6.7646C16.2974 5.40087 16.4069 3.15763 14.9741 1.7746L13.5851 3.21359ZM11.2954 3.3002C11.9804 2.63907 13.0126 2.66098 13.5851 3.21359L14.9741 1.7746C13.5647 0.414237 11.3029 0.513283 9.90645 1.8612L11.2954 3.3002ZM2.50207 11.788L11.2954 3.3002L9.90645 1.8612L1.11308 10.349L2.50207 11.788ZM2.00168 12.9929C1.98178 12.5838 2.13858 12.1388 2.50207 11.788L1.11308 10.349C0.338873 11.0963 -0.0441505 12.0994 0.00404257 13.0901L2.00168 12.9929ZM0.00296557 13.027C-0.0107843 13.9794 0.371962 14.9331 1.11557 15.6509L2.50456 14.2119C2.15537 13.8749 1.99705 13.4511 2.00276 13.0559L0.00296557 13.027ZM1.11557 15.6509L9.90894 24.1387L11.2979 22.6997L2.50456 14.2119L1.11557 15.6509ZM9.90894 24.1387C11.3053 25.4865 13.5674 25.586 14.9768 24.2255L13.5878 22.7865C13.0154 23.339 11.983 23.3609 11.2979 22.6997L9.90894 24.1387ZM14.9768 24.2255C16.4097 22.8424 16.2998 20.5989 14.8871 19.2353L13.4981 20.6743C14.1667 21.3197 14.1371 22.2563 13.5878 22.7865L14.9768 24.2255ZM14.8871 19.2353L7.68058 12.2792L6.29159 13.7182L13.4981 20.6743L14.8871 19.2353ZM13.4956 5.32561L6.29159 12.2792L7.68058 13.7182L14.8846 6.7646L13.4956 5.32561Z" fill="black"/>
</svg>
