<svg width="50" height="50" viewBox="0 0 50 50" fill="none" xmlns="http://www.w3.org/2000/svg">
<rect x="1" y="1" width="48" height="48" rx="24" fill="#FFFBE3" fill-opacity="0.98"/>
<path d="M37 21.1081C37 27.058 33.9353 31.7956 30.7776 35.0948C29.2044 36.7384 27.6286 38.0027 26.4463 38.8554C25.8559 39.2812 25.3659 39.6028 25.0263 39.8163C25.0174 39.8219 25.0087 39.8274 25 39.8328C24.9913 39.8274 24.9826 39.8219 24.9737 39.8163C24.6341 39.6028 24.1441 39.2812 23.5537 38.8554C22.3714 38.0027 20.7956 36.7384 19.2224 35.0948C16.0647 31.7956 13 27.058 13 21.1081C13 15.039 18.3045 10 25 10C31.6955 10 37 15.039 37 21.1081Z" fill="#9FE5FB" stroke="#1E232C" stroke-width="2"/>
<path d="M24.5519 16.9049C24.7356 16.534 25.2644 16.534 25.4481 16.9049L26.6506 19.3333C26.7234 19.4803 26.8638 19.5823 27.0261 19.6061L29.7073 19.9994C30.1167 20.0594 30.2802 20.5624 29.9842 20.8517L28.0463 22.7458C27.9289 22.8605 27.8753 23.0254 27.9028 23.1872L28.3574 25.8587C28.4268 26.2666 27.9989 26.5775 27.6324 26.3854L25.2321 25.1276C25.0867 25.0515 24.9133 25.0515 24.7679 25.1276L22.3676 26.3854C22.0011 26.5775 21.5732 26.2666 21.6426 25.8587L22.0972 23.1872C22.1247 23.0254 22.0711 22.8605 21.9537 22.7458L20.0158 20.8517C19.7198 20.5624 19.8833 20.0594 20.2927 19.9994L22.9739 19.6061C23.1362 19.5823 23.2766 19.4803 23.3494 19.3333L24.5519 16.9049Z" fill="white"/>
<rect x="1" y="1" width="48" height="48" rx="24" stroke="#1E232C" stroke-width="2"/>
</svg>
