<svg width="23" height="22" viewBox="0 0 23 22" fill="none" xmlns="http://www.w3.org/2000/svg">
<path d="M7.60449 1.49219H18.2022V19.5083H7.60449V1.49219Z" fill="#FFB9B9"/>
<path d="M8.45742 3.57C8.45742 3.18013 8.6123 2.80623 8.88797 2.53055C9.16365 2.25487 9.53755 2.1 9.92742 2.1H16.4374C16.8273 2.1 17.2012 2.25487 17.4769 2.53055C17.7525 2.80623 17.9074 3.18013 17.9074 3.57V17.43C17.9074 17.8199 17.7525 18.1938 17.4769 18.4694C17.2012 18.7451 16.8273 18.9 16.4374 18.9H9.92742C9.53755 18.9 9.16365 18.7451 8.88797 18.4694C8.6123 18.1938 8.45742 17.8199 8.45742 17.43V14.7C8.45742 14.4215 8.3468 14.1545 8.14988 13.9575C7.95297 13.7606 7.6859 13.65 7.40742 13.65C7.12894 13.65 6.86187 13.7606 6.66496 13.9575C6.46805 14.1545 6.35742 14.4215 6.35742 14.7V17.43C6.35742 18.3768 6.73355 19.2849 7.40305 19.9544C8.07256 20.6239 8.9806 21 9.92742 21H16.4374C17.3842 21 18.2923 20.6239 18.9618 19.9544C19.6313 19.2849 20.0074 18.3768 20.0074 17.43V3.57C20.0074 2.62318 19.6313 1.71513 18.9618 1.04563C18.2923 0.376124 17.3842 0 16.4374 0H9.92742C9.4586 0 8.99437 0.0923407 8.56124 0.27175C8.12811 0.451159 7.73456 0.714124 7.40305 1.04563C7.07155 1.37713 6.80858 1.77069 6.62917 2.20382C6.44976 2.63695 6.35742 3.10118 6.35742 3.57V6.3C6.35742 6.57848 6.46805 6.84555 6.66496 7.04246C6.86187 7.23937 7.12894 7.35 7.40742 7.35C7.6859 7.35 7.95297 7.23937 8.14988 7.04246C8.3468 6.84555 8.45742 6.57848 8.45742 6.3V3.57Z" fill="#1E232C"/>
<path d="M9.70822 6.60723C9.90512 6.41039 10.1721 6.2998 10.4506 6.2998C10.729 6.2998 10.996 6.41039 11.1929 6.60723L14.3429 9.75723C14.5398 9.95413 14.6503 10.2212 14.6503 10.4996C14.6503 10.778 14.5398 11.045 14.3429 11.2419L11.1929 14.3919C10.9949 14.5832 10.7297 14.689 10.4543 14.6866C10.179 14.6842 9.91569 14.5738 9.72101 14.3791C9.52633 14.1845 9.4159 13.9211 9.41351 13.6458C9.41112 13.3705 9.51695 13.1053 9.70822 12.9072L11.0659 11.5496H1.55C1.27152 11.5496 1.00445 11.439 0.807538 11.242C0.610624 11.0451 0.5 10.7781 0.5 10.4996C0.5 10.2211 0.610624 9.95403 0.807538 9.75712C1.00445 9.56021 1.27152 9.44958 1.55 9.44958H11.0659L9.70822 8.09193C9.51138 7.89503 9.40079 7.628 9.40079 7.34958C9.40079 7.07116 9.51138 6.80413 9.70822 6.60723Z" fill="#1E232C"/>
</svg>
