<svg width="31" height="33" viewBox="0 0 31 33" fill="none" xmlns="http://www.w3.org/2000/svg">
<rect x="12.8906" y="8.25" width="10.3125" height="16.5" fill="#FDD5FF"/>
<path d="M13.8446 10.0341C13.8446 9.6703 13.9926 9.32144 14.2559 9.06422C14.5193 8.807 14.8765 8.6625 15.249 8.6625H21.4683C21.8408 8.6625 22.198 8.807 22.4614 9.06422C22.7247 9.32144 22.8727 9.6703 22.8727 10.0341V22.9659C22.8727 23.3297 22.7247 23.6786 22.4614 23.9358C22.198 24.193 21.8408 24.3375 21.4683 24.3375H15.249C14.8765 24.3375 14.5193 24.193 14.2559 23.9358C13.9926 23.6786 13.8446 23.3297 13.8446 22.9659V20.4187C13.8446 20.1589 13.7389 19.9097 13.5508 19.726C13.3627 19.5423 13.1075 19.4391 12.8415 19.4391C12.5755 19.4391 12.3203 19.5423 12.1322 19.726C11.9441 19.9097 11.8384 20.1589 11.8384 20.4187V22.9659C11.8384 23.8494 12.1977 24.6966 12.8373 25.3213C13.4769 25.9459 14.3444 26.2969 15.249 26.2969H21.4683C22.3729 26.2969 23.2404 25.9459 23.88 25.3213C24.5196 24.6966 24.8789 23.8494 24.8789 22.9659V10.0341C24.8789 9.15064 24.5196 8.30341 23.88 7.67873C23.2404 7.05406 22.3729 6.70313 21.4683 6.70312H15.249C14.8011 6.70312 14.3576 6.78928 13.9438 6.95668C13.53 7.12407 13.154 7.36943 12.8373 7.67873C12.5206 7.98804 12.2694 8.35524 12.098 8.75937C11.9266 9.1635 11.8384 9.59664 11.8384 10.0341V12.5813C11.8384 12.8411 11.9441 13.0903 12.1322 13.274C12.3203 13.4577 12.5755 13.5609 12.8415 13.5609C13.1075 13.5609 13.3627 13.4577 13.5508 13.274C13.7389 13.0903 13.8446 12.8411 13.8446 12.5813V10.0341Z" fill="#1E232C"/>
<path d="M10.7798 12.8679C10.5917 12.6842 10.3366 12.5811 10.0706 12.5811C9.80462 12.5811 9.54952 12.6842 9.3614 12.8679L6.35205 15.807C6.16399 15.9907 6.05835 16.2398 6.05835 16.4996C6.05835 16.7594 6.16399 17.0085 6.35205 17.1922L9.3614 20.1313C9.55059 20.3098 9.80398 20.4085 10.067 20.4063C10.33 20.404 10.5816 20.301 10.7676 20.1194C10.9536 19.9377 11.0591 19.692 11.0614 19.4351C11.0637 19.1783 10.9625 18.9308 10.7798 18.746L9.48278 17.4793H18.5738C18.8398 17.4793 19.095 17.3761 19.2831 17.1923C19.4712 17.0086 19.5769 16.7594 19.5769 16.4996C19.5769 16.2398 19.4712 15.9906 19.2831 15.8069C19.095 15.6231 18.8398 15.5199 18.5738 15.5199H9.48278L10.7798 14.2532C10.9679 14.0695 11.0735 13.8203 11.0735 13.5605C11.0735 13.3008 10.9679 13.0516 10.7798 12.8679Z" fill="#1E232C"/>
</svg>
