<svg width="239" height="52" viewBox="0 0 239 52" fill="none" xmlns="http://www.w3.org/2000/svg">
<path d="M236.812 15.6857C236.5 14.1374 235.049 13.3794 233.571 13.374C232.802 13.4708 231.469 13.0676 231.442 14.2449C231.415 15.632 233.812 14.8148 234.264 15.5513C234.866 16.0459 235.006 16.7448 235.205 17.3953C235.683 18.4006 237.339 17.5297 236.818 16.4599C236.925 16.2179 236.882 15.9491 236.812 15.6857Z" fill="url(#paint0_linear_1470_15647)"/>
<path d="M238.752 15.2447C238.064 10.5998 227.854 11.9223 223.876 11.4546C217.995 11.7664 207.259 9.75577 203.238 14.2018C203.238 14.2018 203.238 14.1964 203.238 14.191C200.566 18.6639 201.587 24.5775 201.464 29.5987C201.286 36.2973 205.947 37.7703 212.006 38.0122L211.974 39.7057C208.318 39.6842 206.442 39.5713 203.523 39.8831C201.727 40.0121 200.91 40.7809 201.066 42.5388C200.84 44.1086 201.894 44.7645 203.345 44.9312C205.893 45.3075 208.576 45.3236 211.829 45.4204C216.108 45.5172 223 45.6354 227.527 45.6892C230.989 45.5655 234.747 46.1193 237.671 45.0172C238.741 44.3828 238.391 42.4636 238.236 41.5389C236.526 39.4852 230.779 40.297 227.591 39.9691L227.623 38.3509C231.838 38.0337 238.526 39.2648 238.542 33.663C238.553 31.9749 238.816 30.0288 237.859 28.588C234.945 25.857 225.623 27.2171 221.548 26.6957C219.393 26.3838 216.662 27.115 216.619 24.7657C216.742 22.4271 219.446 23.2335 221.618 23.0023C226.355 22.884 231.736 23.4969 236.123 22.7335C239.445 22.1475 238.897 17.8198 238.752 15.2447Z" fill="url(#paint1_linear_1470_15647)"/>
<mask id="mask0_1470_15647" style="mask-type:luminance" maskUnits="userSpaceOnUse" x="201" y="11" width="38" height="35">
<path d="M238.752 15.2437C238.064 10.5988 227.854 11.9213 223.876 11.4536C217.995 11.7654 207.259 9.7548 203.238 14.2008C203.238 14.2008 203.238 14.1954 203.238 14.19C200.566 18.6629 201.587 24.5765 201.464 29.5977C201.286 36.2963 205.947 37.7693 212.006 38.0112L211.974 39.7047C208.318 39.6832 206.442 39.5703 203.523 39.8821C201.727 40.0111 200.91 40.7799 201.066 42.5378C200.84 44.1077 201.894 44.7635 203.345 44.9302C205.893 45.3065 208.576 45.3226 211.829 45.4194C216.108 45.5162 223 45.6344 227.527 45.6882C230.989 45.5646 234.747 46.1183 237.671 45.0162C238.741 44.3818 238.391 42.4626 238.236 41.5379C236.526 39.4843 230.779 40.296 227.591 39.9681L227.623 38.3499C231.838 38.0327 238.526 39.2638 238.542 33.662C238.553 31.9739 238.816 30.0278 237.859 28.587C234.945 25.856 225.623 27.2162 221.548 26.6947C219.393 26.3829 216.662 27.114 216.619 24.7647C216.742 22.4261 219.446 23.2325 221.618 23.0013C226.355 22.8831 231.736 23.4959 236.123 22.7325C239.445 22.1466 238.897 17.8188 238.752 15.2437Z" fill="white"/>
</mask>
<g mask="url(#mask0_1470_15647)">
<path d="M200.685 11.249C205.018 21.7323 209.421 34.6509 202.953 45.1127L200.685 11.249Z" fill="url(#paint2_linear_1470_15647)"/>
<path d="M199.695 13.3945C201.163 18.2061 207.958 41.0435 200.776 42.1993L199.695 13.3945Z" fill="url(#paint3_linear_1470_15647)"/>
<path d="M196.249 15.4376C197.728 24.0984 198.674 32.8183 199.131 41.5866C199.432 47.2852 208.335 47.3228 208.034 41.5866C207.534 32.0226 206.448 22.507 204.835 13.0667C204.432 10.6959 201.513 9.36802 199.357 9.95938C196.846 10.6475 195.841 13.056 196.249 15.4376Z" fill="#EBACCA"/>
</g>
<path d="M236.822 16.4598C236.504 14.6373 234.945 13.5621 233.198 13.417C232.51 13.3471 231.44 13.2718 231.446 14.2449C231.419 15.6319 233.816 14.8147 234.268 15.5513C234.87 16.0459 235.01 16.7447 235.209 17.3952C235.687 18.4006 237.338 17.5296 236.822 16.4598Z" fill="white"/>
<path d="M78.142 36.9648C77.9808 37.4057 78.0668 37.9272 78.2066 38.3787C78.1797 37.9379 78.1582 37.4379 78.142 36.9648Z" fill="white"/>
<path d="M205.178 35.6872C204.941 30.6982 204.059 23.4191 203.43 18.3656C202.602 14.925 203.215 9.31776 198.898 8.66188C190.437 8.15116 191.42 12.5971 191.92 19.5376C192.754 24.5749 192.904 39.3967 196.259 42.2943C197.925 43.3534 200.672 42.7191 202.516 42.3857C205.489 41.6922 205.215 38.3537 205.178 35.6872ZM201.113 11.7961C201.081 12.5864 199.85 12.995 199.447 12.2208C198.936 11.4951 197.479 11.7208 197.925 10.3338C198.71 9.0167 201.092 10.5973 201.119 11.7961H201.113Z" fill="url(#paint4_linear_1470_15647)"/>
<path d="M191.899 33.2894C191.243 30.811 190.679 26.6392 189.464 23.7577C192.066 21.5965 190.829 14.8066 189.555 11.9734C187.615 9.32839 183.782 10.323 180.685 10.3928C177.303 10.6993 173.787 11.0003 170.492 11.5971C167.315 12.0433 165.068 13.5862 165.487 17.0591C165.836 20.0052 165.508 24.1878 168.433 25.8973C167.987 27.9295 168.186 30.0476 168.1 32.112C168.368 35.6656 167.148 43.0361 170.159 45.208C172.255 46.0144 174.938 45.2726 177.078 44.9822C181.131 44.2027 179.201 38.9665 179.594 36.0258C179.62 35.343 179.556 34.6925 179.723 34.2517C180.094 33.827 180.33 34.3108 180.454 34.8377C181.62 37.5687 180.825 44.2995 185.104 44.1651C194.453 44.2834 193.566 41.5362 191.899 33.2894ZM188.475 13.5593C188.19 14.1507 187.228 14.3496 186.878 13.6884C186.701 13.4088 186.437 13.2368 186.088 13.1776C185.201 13.0647 184.943 11.6078 185.889 11.3283C186.943 11.1294 188.878 12.3605 188.475 13.5593Z" fill="url(#paint5_linear_1470_15647)"/>
<mask id="mask1_1470_15647" style="mask-type:luminance" maskUnits="userSpaceOnUse" x="165" y="10" width="28" height="36">
<path d="M191.902 33.2874C191.246 30.8091 190.682 26.6373 189.467 23.7557C192.069 21.5946 190.832 14.8046 189.558 11.9714C187.618 9.32644 183.784 10.321 180.688 10.3909C177.306 10.6973 173.79 10.9984 170.495 11.5951C167.318 12.0413 165.07 13.5843 165.49 17.0572C165.839 20.0032 165.511 24.1858 168.436 25.8954C167.99 27.9275 168.189 30.0457 168.103 32.1101C168.371 35.6636 167.151 43.0342 170.162 45.2061C172.258 46.0125 174.941 45.2706 177.081 44.9803C181.134 44.2008 179.204 38.9645 179.596 36.0238C179.623 35.3411 179.559 34.6906 179.726 34.2497C180.096 33.825 180.333 34.3089 180.457 34.8357C181.623 37.5667 180.828 44.2975 185.107 44.1631C194.456 44.2814 193.569 41.5343 191.902 33.2874ZM188.478 13.5574C188.193 14.1487 187.23 14.3477 186.881 13.6864C186.704 13.4068 186.44 13.2348 186.091 13.1757C185.204 13.0628 184.946 11.6059 185.892 11.3263C186.946 11.1274 188.881 12.3585 188.478 13.5574Z" fill="white"/>
</mask>
<g mask="url(#mask1_1470_15647)">
<path d="M163.092 13.2456C163.93 19.1378 164 25.1213 163.538 31.0511C163.076 36.9808 172 36.7389 172.441 31.0511C172.967 24.2826 172.634 17.5949 171.672 10.8802C171.333 8.49861 168.301 7.19223 166.194 7.77284C163.635 8.4771 162.742 10.8587 163.086 13.251L163.092 13.2456Z" fill="#E69CBF"/>
<path d="M163.591 40.8625C163.812 42.0076 163.796 44.2064 163.537 45.4429C163.059 47.717 164.204 50.362 166.645 50.9211C168.881 51.4318 171.607 50.2491 172.123 47.8137C172.79 44.6634 172.795 41.6528 172.177 38.5024C171.731 36.2122 168.865 34.6908 166.699 35.3951C164.258 36.1854 163.113 38.4164 163.591 40.8733V40.8625Z" fill="#E69CBF"/>
</g>
<path d="M188.075 12.2609C187.377 11.3201 184.914 10.6642 185.355 12.5351C185.57 13.3415 186.543 13.0405 186.882 13.691C187.796 14.9274 189.317 13.1964 188.075 12.2609Z" fill="white"/>
<path d="M200.634 10.7932C199.935 9.85235 197.473 9.19647 197.914 11.0673C198.129 11.8737 199.102 11.5727 199.441 12.2232C200.355 13.4597 201.876 11.7286 200.634 10.7932Z" fill="white"/>
<path d="M150.288 15.8682C148.358 16.0026 146.294 15.9865 146.16 18.0401C146.117 19.1315 145.885 20.6583 146.789 21.4432C149.767 22.8517 152.691 22.1098 156.433 22.3248C156.745 25.8354 155.793 31.2706 160.127 32.249C162.895 32.4855 167.287 33.1522 169.782 31.3297C172.481 27.8084 171.233 22.3732 171.561 17.2929C171.508 17.2929 171.448 17.3036 171.395 17.309C171.448 17.309 171.508 17.2983 171.561 17.2929C171.362 12.992 172.4 5.94407 166.373 6.03546C157.439 5.34195 156.428 7.22894 156.433 15.793C154.476 15.793 152.025 15.793 150.288 15.8575V15.8682Z" fill="url(#paint6_linear_1470_15647)"/>
<path d="M130.106 21.7145C129.837 31.8806 133.386 32.2623 142.632 32.1601C146.815 31.7462 155.508 33.5418 155.164 28.499C155.449 23.8918 154.594 23.2359 149.976 23.3972C145.783 23.4886 144.471 23.2036 144.772 18.6179C144.482 14.5697 146.557 14.6558 149.976 14.6773C151.981 14.516 154.616 15.1557 155.051 12.7311C155.142 10.8065 155.847 7.31747 153.315 6.58095C148.793 5.52725 140.444 5.9197 135.708 6.26914C128.176 7.14006 130.536 16.0804 130.101 21.7145H130.106Z" fill="url(#paint7_linear_1470_15647)"/>
<mask id="mask2_1470_15647" style="mask-type:luminance" maskUnits="userSpaceOnUse" x="130" y="5" width="26" height="28">
<path d="M130.105 21.7135C129.836 31.8796 133.385 32.2613 142.631 32.1591C146.814 31.7452 155.507 33.5408 155.163 28.4981C155.448 23.8908 154.593 23.2349 149.975 23.3962C145.782 23.4876 144.47 23.2027 144.771 18.6169C144.481 14.5688 146.556 14.6548 149.975 14.6763C151.98 14.515 154.615 15.1547 155.05 12.7302C155.141 10.8055 155.846 7.31649 153.314 6.57998C148.792 5.52627 140.443 5.91872 135.707 6.26817C128.175 7.13908 130.535 16.0794 130.1 21.7135H130.105Z" fill="white"/>
</mask>
<g mask="url(#mask2_1470_15647)">
<path d="M131.132 18.7848C135.336 18.7848 135.341 12.2529 131.132 12.2529C126.922 12.2529 126.922 18.7848 131.132 18.7848Z" fill="#8AB5F1"/>
<path d="M131.762 27.236C135.966 27.236 135.971 20.7041 131.762 20.7041C127.552 20.7041 127.552 27.236 131.762 27.236Z" fill="#8AB5F1"/>
<path d="M132.326 35.1227C136.53 35.1227 136.535 28.5908 132.326 28.5908C128.117 28.5908 128.117 35.1227 132.326 35.1227Z" fill="#8AB5F1"/>
</g>
<path d="M171.008 35.7596C168.175 32.5125 156.122 34.0823 150.826 33.6791C145.289 33.6952 140.789 33.6415 136.225 33.835C133.935 34.0178 132.359 33.9318 130.838 34.8188C129.661 35.722 130.166 37.7971 130.15 39.0659C130.37 40.8991 132.005 40.926 133.709 41.1195C137.875 41.4045 145.552 41.2056 149.444 41.3184C158.095 41.2002 152.471 43.9688 155.675 45.3666C157.906 45.7698 159.982 45.6031 163.062 45.6569C166.169 45.5064 168.368 46.0063 170.497 44.9204C172.056 44.0065 171.83 37.2649 171.002 35.7543L171.008 35.7596Z" fill="url(#paint8_linear_1470_15647)"/>
<mask id="mask3_1470_15647" style="mask-type:luminance" maskUnits="userSpaceOnUse" x="130" y="33" width="42" height="13">
<path d="M171.008 35.7616C168.175 32.5145 156.122 34.0843 150.826 33.6811C145.289 33.6972 140.789 33.6434 136.225 33.837C133.935 34.0197 132.359 33.9337 130.838 34.8208C129.661 35.7239 130.166 37.7991 130.15 39.0678C130.37 40.9011 132.005 40.9279 133.709 41.1215C137.875 41.4064 145.552 41.2075 149.444 41.3204C158.095 41.2021 152.471 43.9708 155.675 45.3686C157.906 45.7718 159.982 45.6051 163.062 45.6589C166.169 45.5083 168.368 46.0083 170.497 44.9223C172.056 44.0084 171.83 37.2669 171.002 35.7562L171.008 35.7616Z" fill="white"/>
</mask>
<g mask="url(#mask3_1470_15647)">
<path d="M131.983 43.8695C137.714 43.8695 137.725 34.9668 131.983 34.9668C126.241 34.9668 126.241 43.8695 131.983 43.8695Z" fill="#8AB5F1"/>
</g>
<path d="M167.793 7.71243C167.256 7.88446 167.089 8.59948 167.315 9.0887C167.535 9.58329 168.234 9.71769 168.282 10.3306C168.444 11.4595 170.255 11.2337 170.169 10.1048C170.057 9.09945 168.987 7.34686 167.793 7.71243Z" fill="white"/>
<path d="M151.111 7.62648C150.622 7.85765 150.525 8.53503 150.81 8.97049C151.068 9.37907 151.751 9.44358 151.875 9.97043C152.122 10.8682 153.95 10.7392 153.918 9.70163C153.762 8.63718 152.267 7.062 151.111 7.62648Z" fill="white"/>
<path d="M97.8844 33.0553C103.809 34.4047 109.158 33.2542 115.77 33.2596C121.571 32.9585 126.571 32.9746 131.614 32.1951C133.952 31.9801 134.947 30.5554 133.947 28.534C132.855 27.4373 131.27 27.6147 129.248 27.4965C127.802 27.4803 125.824 27.5072 123.318 27.5879L123.27 26.5879C127.318 26.2008 130.248 26.561 133.157 25.002C134.388 24.1418 133.958 21.6635 133.565 20.5345C132.533 19.0346 130.958 19.3088 128.813 19.169C124.141 19.0346 116.367 19.9539 111.953 19.4647C109.846 17.868 120.851 18.2766 122.668 17.9809C126.291 17.5347 131.786 18.368 133.35 15.8842C133.635 14.6477 133.888 12.0565 132.345 11.363C126.77 9.83082 121.114 11.0189 114.722 10.992C108.83 11.5942 102.18 10.6426 97.707 13.6371C95.4974 15.981 96.5458 20.7227 96.9167 23.5236C98.4435 28.0233 103.395 26.9266 107.674 27.2062L107.723 28.2437C104.158 28.6953 99.4488 28.0502 97.2231 30.0662C96.8576 30.9533 96.8092 32.5983 97.8898 33.066L97.8844 33.0553Z" fill="url(#paint9_linear_1470_15647)"/>
<mask id="mask4_1470_15647" style="mask-type:luminance" maskUnits="userSpaceOnUse" x="96" y="10" width="39" height="24">
<path d="M97.8854 33.0553C103.81 34.4047 109.159 33.2542 115.771 33.2596C121.572 32.9585 126.572 32.9746 131.615 32.1951C133.953 31.9801 134.948 30.5554 133.948 28.534C132.856 27.4373 131.271 27.6147 129.249 27.4965C127.803 27.4803 125.825 27.5072 123.319 27.5879L123.271 26.5879C127.319 26.2008 130.249 26.561 133.158 25.002C134.389 24.1418 133.959 21.6635 133.566 20.5345C132.534 19.0346 130.959 19.3088 128.814 19.169C124.142 19.0346 116.368 19.9539 111.954 19.4647C109.847 17.868 120.852 18.2766 122.669 17.9809C126.292 17.5347 131.787 18.368 133.351 15.8842C133.636 14.6477 133.889 12.0565 132.346 11.363C126.771 9.83082 121.115 11.0189 114.723 10.992C108.831 11.5942 102.181 10.6426 97.708 13.6371C95.4984 15.981 96.5467 20.7227 96.9177 23.5236C98.4445 28.0233 103.396 26.9266 107.675 27.2062L107.724 28.2437C104.159 28.6953 99.4498 28.0502 97.2241 30.0662C96.8585 30.9533 96.8102 32.5983 97.8907 33.066L97.8854 33.0553Z" fill="white"/>
</mask>
<g mask="url(#mask4_1470_15647)">
<path d="M91.3728 15.9942C92.5824 23.8324 92.6416 31.961 91.5287 39.8154C91.19 42.1916 92.1093 44.6001 94.6361 45.2936C96.722 45.8688 99.7756 44.5786 100.114 42.1862C101.474 32.6115 101.431 23.1873 99.9583 13.6287C99.5928 11.2525 96.6091 9.9354 94.4802 10.5214C91.9427 11.2203 91.0019 13.6126 91.3728 15.9996V15.9942Z" fill="#EBACCA"/>
<path d="M91.2709 15.1619C91.9429 17.5542 92.1257 19.9681 91.6311 22.4195C91.1365 24.871 92.3085 27.2257 94.7385 27.8977C96.9319 28.4998 99.7382 27.1558 100.217 24.7904C101.023 20.7583 100.969 16.7693 99.8564 12.7964C98.3135 7.28599 89.7173 9.62994 91.2709 15.1619Z" fill="#EBACCA"/>
<path d="M91.4314 13.8882C91.9798 17.6568 92.0873 21.4846 91.9422 25.2854C91.7218 31.0163 100.624 31.0055 100.845 25.2854C101.022 20.6513 100.684 16.1031 100.017 11.5228C99.6729 9.14119 96.6516 7.83481 94.5388 8.41542C91.9852 9.11968 91.082 11.5013 91.4314 13.8936V13.8882Z" fill="#EBACCA"/>
<path d="M91.6471 13.0919C91.8836 18.355 92.1202 23.6182 92.3567 28.8813C92.6148 34.5907 101.517 34.6175 101.259 28.8813C101.023 23.6182 100.786 18.355 100.55 13.0919C100.292 7.38255 91.3891 7.35567 91.6471 13.0919Z" fill="#EBACCA"/>
</g>
<path d="M134.92 38.8671C134.399 34.0986 129.889 33.7491 125.217 33.7921C119.846 34.6039 101.971 32.9965 98.3151 37.2005C94.4013 43.0819 101.213 46.1409 107.014 45.5334L125.738 44.7592C130.415 44.4152 134.84 43.684 134.92 38.8671ZM114.303 39.4101C114.873 38.4101 116.723 37.6306 117.868 38.3241C120.239 40.6143 113.33 42.4905 114.303 39.4101Z" fill="url(#paint10_linear_1470_15647)"/>
<mask id="mask5_1470_15647" style="mask-type:luminance" maskUnits="userSpaceOnUse" x="97" y="33" width="38" height="13">
<path d="M134.92 38.8671C134.398 34.0986 129.888 33.7491 125.216 33.7921C119.845 34.6039 101.97 32.9965 98.3141 37.2005C94.4003 43.0819 101.212 46.1409 107.013 45.5334L125.737 44.7592C130.414 44.4152 134.839 43.684 134.92 38.8671ZM114.302 39.4101C114.872 38.4101 116.722 37.6306 117.867 38.3241C120.238 40.6143 113.329 42.4905 114.302 39.4101Z" fill="white"/>
</mask>
<g mask="url(#mask5_1470_15647)">
<path d="M92.1851 37.841C92.4271 39.0721 92.2658 37.2873 92.2496 38.5399C92.2496 38.5399 92.1797 39.9646 92.2711 39.2495C92.212 39.7173 92.0615 40.1796 91.9378 40.6312C91.7228 41.4 92.0346 40.5452 91.6368 41.3086C90.5616 43.373 91.0347 46.2384 93.2335 47.3996C95.2817 48.4802 98.1794 48.0071 99.3245 45.8029C101.029 42.5236 101.475 39.099 100.765 35.4809C100.319 33.1908 97.459 31.6693 95.2871 32.3736C92.8518 33.1639 91.6959 35.3949 92.1798 37.8518L92.1851 37.841Z" fill="#EBACCA"/>
</g>
<path d="M129.581 13.8543C130.365 13.6661 130.882 14.7789 131.602 14.0908C132.285 13.5532 131.951 12.693 131.188 12.3651C130.516 12.0479 129.484 11.7415 128.828 12.1554C128.016 12.7092 128.693 14.0209 129.575 13.8543H129.581Z" fill="white"/>
<path d="M131.301 21.3411C131.865 21.2067 132.231 22.0024 132.747 21.5131C133.236 21.1261 132.994 20.5132 132.451 20.2766C131.973 20.0509 131.231 19.8304 130.763 20.1261C130.183 20.5239 130.667 21.4594 131.301 21.3411Z" fill="white"/>
<path d="M86.862 14.5739C86.776 13.5632 85.4589 11.5687 84.3192 12.4772C83.4106 13.617 84.8514 13.9288 85.0665 14.7943C85.217 15.8695 86.9427 15.6545 86.862 14.5793V14.5739Z" fill="white"/>
<path d="M94.9477 12.4765C94.5284 12.8582 94.6197 13.7721 95.1412 14.0301C95.867 14.3796 95.5713 15.5784 96.5659 15.5032C98.813 15.3311 96.367 11.2615 94.9477 12.4818V12.4765Z" fill="white"/>
<path d="M99.0714 26.2782C98.7435 21.4935 99.8294 16.0637 97.4425 11.9833C96.5124 11.1017 95.3888 11.1823 94.0556 11.1447C88.6258 10.5049 89.3945 16.8271 89.1365 20.585L87.9753 20.5957C87.6581 16.8755 88.529 10.7899 83.2712 11.2414C81.9487 11.2791 80.5778 11.1984 79.6639 12.1339C77.2823 16.2519 78.379 21.558 78.0511 26.4556C78.4059 31.9822 77.0942 40.2774 79.68 44.6105C80.5563 45.4975 81.8788 45.4169 83.0616 45.4491C88.4645 46.0459 87.7118 39.7022 87.9806 36.0088L89.1419 35.9981C89.5236 38.8958 88.529 44.4653 92.2008 45.2341C94.0448 45.3954 97.0661 45.804 97.9747 43.6751C99.7165 38.213 98.8241 32.0144 99.0606 26.2836L99.0714 26.2782ZM85.9324 15.4993C85.4539 15.4993 85.1636 15.2627 85.0668 14.7896C84.9808 14.0585 83.9701 13.9886 84.0561 13.1553C84.6152 10.2092 88.6688 15.1982 85.9324 15.4993ZM96.249 12.5048C97.1468 13.1177 98.3295 15.338 96.5608 15.4993C95.5716 15.5745 95.8673 14.381 95.1361 14.0262C94.0072 13.3435 95.1684 11.5049 96.249 12.5048Z" fill="url(#paint11_linear_1470_15647)"/>
<path d="M77.1802 36.5954C77.0512 32.1924 74.7287 35.2406 73.6105 33.1386C73.0998 30.4828 73.331 27.225 73.4331 24.4724C74.2986 20.2307 77.6479 26.7949 77.2447 17.0643C77.2555 14.7579 77.2608 11.8441 74.3685 11.5646C71.2451 11.3495 67.3259 10.8764 64.4497 12.1291C60.6113 14.9515 62.1434 23.6176 61.751 28.5152C61.9015 33.3913 61.38 38.1061 62.7563 42.7079C63.6702 45.6271 66.8098 45.5787 69.4118 45.5572C71.5246 45.4497 74.3148 45.7454 76.019 44.6541C77.9758 42.8101 77.0834 39.063 77.1748 36.59L77.1802 36.5954ZM74.9975 12.9946C75.8953 13.6075 77.078 15.8278 75.3093 15.989C74.3309 16.0697 74.5997 14.8601 73.8847 14.516C72.7503 13.8064 73.9277 12.0054 74.9975 12.9946Z" fill="url(#paint12_linear_1470_15647)"/>
<path d="M73.9712 12.7881C73.4605 12.9548 73.3046 13.6321 73.5143 14.0998C73.7239 14.5676 74.3852 14.6966 74.4389 15.2826C74.5895 16.3578 76.3152 16.1427 76.2345 15.0675C76.127 14.1106 75.1056 12.444 73.9712 12.7935V12.7881Z" fill="white"/>
<path d="M14.1847 45.1446L24.89 51.6782C25.5944 52.1073 26.475 52.1073 27.1794 51.6782L37.8633 45.1071C38.5677 44.6726 39.4483 44.6726 40.1527 45.1071L48.6273 50.2835C50.1162 51.19 52 50.0957 52 48.3256L51.9413 8.85084C51.9413 8.05158 51.5304 7.31133 50.858 6.89829L40.0887 0.321849C39.3842 -0.107283 38.5037 -0.107283 37.7993 0.321849L27.1154 6.89292C26.4109 7.32742 25.5304 7.32742 24.8259 6.89292L14.1207 0.364762C13.4163 -0.0643697 12.5357 -0.0643697 11.8313 0.364762L1.078 6.97339C0.41092 7.38643 0 8.12668 0 8.9313L0.0587028 48.406C0.0587028 50.1762 1.9532 51.2651 3.43678 50.3532L11.8953 45.1554C12.5998 44.7209 13.4803 44.7209 14.1847 45.1554V45.1446Z" fill="url(#paint13_linear_1470_15647)"/>
<path d="M26.0852 19.8202C22.6378 11.8491 12.3381 18.447 16.4687 25.5062C16.9063 26.4503 17.6747 27.6787 24.7618 33.3701C24.7724 33.3754 24.7778 33.3862 24.7884 33.3915C25.5516 33.9977 26.6242 33.9977 27.3874 33.3915C27.398 33.3862 27.4087 33.3754 27.4141 33.3701C34.5011 27.6841 35.2696 26.4557 35.7072 25.5062C39.8377 18.447 29.538 11.8491 26.0906 19.8202H26.0852ZM26.0852 25.5491C24.9592 25.5491 24.0467 24.6372 24.0467 23.5C24.0467 22.3682 24.9539 21.4509 26.0799 21.4456C27.2059 21.4456 28.1185 22.3575 28.1185 23.4947C28.1185 24.6265 27.2113 25.5438 26.0852 25.5491Z" fill="white"/>
<defs>
<linearGradient id="paint0_linear_1470_15647" x1="194.567" y1="61.8766" x2="244.543" y2="3.43375" gradientUnits="userSpaceOnUse">
<stop stop-color="#FFE8FF"/>
<stop offset="0.31" stop-color="#F7CDE1"/>
<stop offset="0.47" stop-color="#F5C9DE"/>
<stop offset="0.62" stop-color="#F1BED7"/>
<stop offset="0.75" stop-color="#EBACCA"/>
<stop offset="0.76" stop-color="#EBACCA"/>
<stop offset="1" stop-color="#E69CBF"/>
</linearGradient>
<linearGradient id="paint1_linear_1470_15647" x1="192.867" y1="61.9194" x2="243.698" y2="2.47123" gradientUnits="userSpaceOnUse">
<stop stop-color="#FFE8FF"/>
<stop offset="0.31" stop-color="#F7CDE1"/>
<stop offset="0.47" stop-color="#F5C9DE"/>
<stop offset="0.62" stop-color="#F1BED7"/>
<stop offset="0.75" stop-color="#EBACCA"/>
<stop offset="0.76" stop-color="#EBACCA"/>
<stop offset="1" stop-color="#E69CBF"/>
</linearGradient>
<linearGradient id="paint2_linear_1470_15647" x1="181.239" y1="52.2467" x2="232.5" y2="-7.7015" gradientUnits="userSpaceOnUse">
<stop stop-color="#FFE8FF"/>
<stop offset="0.31" stop-color="#F7CDE1"/>
<stop offset="0.47" stop-color="#F5C9DE"/>
<stop offset="0.62" stop-color="#F1BED7"/>
<stop offset="0.75" stop-color="#EBACCA"/>
<stop offset="0.76" stop-color="#EBACCA"/>
<stop offset="1" stop-color="#E69CBF"/>
</linearGradient>
<linearGradient id="paint3_linear_1470_15647" x1="180.422" y1="51.5214" x2="231.667" y2="-8.4107" gradientUnits="userSpaceOnUse">
<stop stop-color="#FFE8FF"/>
<stop offset="0.31" stop-color="#F7CDE1"/>
<stop offset="0.47" stop-color="#F5C9DE"/>
<stop offset="0.62" stop-color="#F1BED7"/>
<stop offset="0.75" stop-color="#EBACCA"/>
<stop offset="0.76" stop-color="#EBACCA"/>
<stop offset="1" stop-color="#E69CBF"/>
</linearGradient>
<linearGradient id="paint4_linear_1470_15647" x1="178.518" y1="56.5892" x2="213.984" y2="1.80206" gradientUnits="userSpaceOnUse">
<stop stop-color="#FFE8FF"/>
<stop offset="0.31" stop-color="#F7CDE1"/>
<stop offset="0.47" stop-color="#F5C9DE"/>
<stop offset="0.62" stop-color="#F1BED7"/>
<stop offset="0.75" stop-color="#EBACCA"/>
<stop offset="0.76" stop-color="#EBACCA"/>
<stop offset="1" stop-color="#E69CBF"/>
</linearGradient>
<linearGradient id="paint5_linear_1470_15647" x1="166.084" y1="48.4122" x2="201.533" y2="-6.3535" gradientUnits="userSpaceOnUse">
<stop stop-color="#FFE8FF"/>
<stop offset="0.31" stop-color="#F7CDE1"/>
<stop offset="0.47" stop-color="#F5C9DE"/>
<stop offset="0.62" stop-color="#F1BED7"/>
<stop offset="0.75" stop-color="#EBACCA"/>
<stop offset="0.76" stop-color="#EBACCA"/>
<stop offset="1" stop-color="#E69CBF"/>
</linearGradient>
<linearGradient id="paint6_linear_1470_15647" x1="132.623" y1="53.9736" x2="178.217" y2="0.675559" gradientUnits="userSpaceOnUse">
<stop stop-color="#C5D7EF"/>
<stop offset="0.48" stop-color="#C5D7EF"/>
<stop offset="0.51" stop-color="#C5D7EF"/>
<stop offset="0.59" stop-color="#BBD4EF"/>
<stop offset="0.71" stop-color="#A1CBF1"/>
<stop offset="0.77" stop-color="#92C7F2"/>
<stop offset="0.87" stop-color="#87AEF1"/>
<stop offset="1" stop-color="#788AF0"/>
</linearGradient>
<linearGradient id="paint7_linear_1470_15647" x1="121.725" y1="44.4659" x2="167.276" y2="-8.77839" gradientUnits="userSpaceOnUse">
<stop stop-color="#C5D7EF"/>
<stop offset="0.48" stop-color="#C5D7EF"/>
<stop offset="0.51" stop-color="#C5D7EF"/>
<stop offset="0.59" stop-color="#BBD4EF"/>
<stop offset="0.71" stop-color="#A1CBF1"/>
<stop offset="0.77" stop-color="#92C7F2"/>
<stop offset="0.87" stop-color="#87AEF1"/>
<stop offset="1" stop-color="#788AF0"/>
</linearGradient>
<linearGradient id="paint8_linear_1470_15647" x1="136.096" y1="56.9197" x2="181.48" y2="3.87437" gradientUnits="userSpaceOnUse">
<stop stop-color="#C5D7EF"/>
<stop offset="0.48" stop-color="#C5D7EF"/>
<stop offset="0.51" stop-color="#C5D7EF"/>
<stop offset="0.59" stop-color="#BBD4EF"/>
<stop offset="0.71" stop-color="#A1CBF1"/>
<stop offset="0.77" stop-color="#92C7F2"/>
<stop offset="0.87" stop-color="#87AEF1"/>
<stop offset="1" stop-color="#788AF0"/>
</linearGradient>
<linearGradient id="paint9_linear_1470_15647" x1="90.0461" y1="65.3599" x2="136.474" y2="-12.1572" gradientUnits="userSpaceOnUse">
<stop stop-color="#FFE8FF"/>
<stop offset="0.31" stop-color="#F7CDE1"/>
<stop offset="0.47" stop-color="#F5C9DE"/>
<stop offset="0.62" stop-color="#F1BED7"/>
<stop offset="0.75" stop-color="#EBACCA"/>
<stop offset="0.76" stop-color="#EBACCA"/>
<stop offset="1" stop-color="#E69CBF"/>
</linearGradient>
<linearGradient id="paint10_linear_1470_15647" x1="97.9549" y1="69.9621" x2="144.205" y2="-7.26465" gradientUnits="userSpaceOnUse">
<stop stop-color="#FFE8FF"/>
<stop offset="0.31" stop-color="#F7CDE1"/>
<stop offset="0.47" stop-color="#F5C9DE"/>
<stop offset="0.62" stop-color="#F1BED7"/>
<stop offset="0.75" stop-color="#EBACCA"/>
<stop offset="0.76" stop-color="#EBACCA"/>
<stop offset="1" stop-color="#E69CBF"/>
</linearGradient>
<linearGradient id="paint11_linear_1470_15647" x1="66.8098" y1="68.2274" x2="104.05" y2="0.0270335" gradientUnits="userSpaceOnUse">
<stop stop-color="#FFE8FF"/>
<stop offset="0.31" stop-color="#F7CDE1"/>
<stop offset="0.47" stop-color="#F5C9DE"/>
<stop offset="0.62" stop-color="#F1BED7"/>
<stop offset="0.75" stop-color="#EBACCA"/>
<stop offset="0.76" stop-color="#EBACCA"/>
<stop offset="1" stop-color="#E69CBF"/>
</linearGradient>
<linearGradient id="paint12_linear_1470_15647" x1="52.6063" y1="60.3951" x2="89.8784" y2="-7.85904" gradientUnits="userSpaceOnUse">
<stop stop-color="#FFE8FF"/>
<stop offset="0.31" stop-color="#F7CDE1"/>
<stop offset="0.47" stop-color="#F5C9DE"/>
<stop offset="0.62" stop-color="#F1BED7"/>
<stop offset="0.75" stop-color="#EBACCA"/>
<stop offset="0.76" stop-color="#EBACCA"/>
<stop offset="1" stop-color="#E69CBF"/>
</linearGradient>
<linearGradient id="paint13_linear_1470_15647" x1="11.2069" y1="66.866" x2="44.0467" y2="-13.7513" gradientUnits="userSpaceOnUse">
<stop stop-color="#FFE8FF"/>
<stop offset="0.31" stop-color="#F7CDE1"/>
<stop offset="0.47" stop-color="#F5C9DE"/>
<stop offset="0.62" stop-color="#F1BED7"/>
<stop offset="0.75" stop-color="#EBACCA"/>
<stop offset="0.76" stop-color="#EBACCA"/>
<stop offset="1" stop-color="#E69CBF"/>
</linearGradient>
</defs>
</svg>
