<svg width="22" height="22" viewBox="0 0 22 22" fill="none" xmlns="http://www.w3.org/2000/svg">
<mask id="path-1-inside-1_517_5998" fill="white">
<path fill-rule="evenodd" clip-rule="evenodd" d="M17.3708 15.6802C20.6958 12.0064 20.5221 6.46806 16.8498 2.98901C12.9951 -0.662677 6.74561 -0.662677 2.89094 2.98901C-0.963648 6.64076 -0.963648 12.5613 2.89094 16.213C6.32378 19.4652 11.656 19.8211 15.5045 17.2807L19.8537 21.4009C20.3447 21.8661 21.1407 21.8661 21.6316 21.4009C22.1226 20.9359 22.1226 20.1818 21.6316 19.7167L17.3708 15.6802Z"/>
</mask>
<path d="M17.3708 15.6802L16.3328 14.7407L15.4145 15.7554L16.408 16.6965L17.3708 15.6802ZM16.8498 2.98901L17.8126 1.97267L17.8126 1.97266L16.8498 2.98901ZM2.89094 2.98901L1.92811 1.97266L1.9281 1.97268L2.89094 2.98901ZM2.89094 16.213L1.9281 17.2294L1.9281 17.2294L2.89094 16.213ZM15.5045 17.2807L16.4674 16.2644L15.6607 15.5001L14.7333 16.1123L15.5045 17.2807ZM19.8537 21.4009L20.8166 20.3846L19.8537 21.4009ZM21.6316 21.4009L20.6689 20.3845L20.6686 20.3847L21.6316 21.4009ZM21.6316 19.7167L22.5944 18.7003L21.6316 19.7167ZM18.4088 16.6196C22.2438 12.3824 22.0379 5.97551 17.8126 1.97267L15.8869 4.00534C19.0064 6.9606 19.1479 11.6304 16.3328 14.7407L18.4088 16.6196ZM17.8126 1.97266C13.418 -2.19056 6.32275 -2.19056 1.92811 1.97266L3.85377 4.00535C7.16846 0.865207 12.5722 0.865208 15.8869 4.00535L17.8126 1.97266ZM1.9281 1.97268C-2.50937 6.17663 -2.50937 13.0254 1.9281 17.2294L3.85379 15.1967C0.58207 12.0971 0.58207 7.10489 3.85379 4.00534L1.9281 1.97268ZM1.9281 17.2294C5.84768 20.9426 11.9007 21.337 16.2758 18.4491L14.7333 16.1123C11.4113 18.3051 6.79989 17.9877 3.85378 15.1967L1.9281 17.2294ZM20.8166 20.3846L16.4674 16.2644L14.5417 18.297L18.8909 22.4173L20.8166 20.3846ZM20.6686 20.3847C20.7011 20.3539 20.7315 20.3498 20.7427 20.3498C20.7539 20.3498 20.7842 20.3539 20.8166 20.3846L18.8909 22.4173C19.9218 23.3939 21.5636 23.3941 22.5945 22.4172L20.6686 20.3847ZM20.6687 20.733C20.6326 20.6987 20.5998 20.6349 20.5998 20.5588C20.5998 20.4828 20.6326 20.4189 20.6689 20.3845L22.5943 22.4174C23.6684 21.4001 23.6682 19.7176 22.5944 18.7003L20.6687 20.733ZM16.408 16.6965L20.6687 20.733L22.5944 18.7003L18.3336 14.6638L16.408 16.6965Z" fill="#1E232C" mask="url(#path-1-inside-1_517_5998)"/>
</svg>
