<svg width="36" height="30" viewBox="0 0 36 30" fill="none" xmlns="http://www.w3.org/2000/svg">
<path fill-rule="evenodd" clip-rule="evenodd" d="M14.6289 4.06095C14.3432 3.97813 14.0373 3.97975 13.7526 4.06558L8.23829 5.72778C6.90483 6.12973 6 7.29741 6 8.61618V22.181C6 24.2357 8.12331 25.6956 10.2008 25.0694L14.2003 23.8639L21.36 25.939C21.6629 26.0269 21.9879 26.0196 22.2861 25.9185L27.871 24.0245C29.1484 23.5914 30 22.4499 30 21.1711V7.66315C30 5.56264 27.7881 4.09819 25.69 4.80966L21.7831 6.13453L14.6289 4.06095Z" fill="#DEFCF9" stroke="#1E232C" stroke-width="2"/>
<path d="M21 11.4286L21 20M15 10L15 18.5714" stroke="black" stroke-width="2" stroke-linecap="round"/>
</svg>
