<svg width="36" height="44" viewBox="0 0 36 44" fill="none" xmlns="http://www.w3.org/2000/svg">
<path d="M34.6 16.6486C34.6 24.8173 30.363 31.3245 25.992 35.8595C23.8148 38.1185 21.6338 39.8561 19.9973 41.0282C19.1802 41.6134 18.5019 42.0554 18.0319 42.3489C18.0212 42.3556 18.0105 42.3623 18 42.3688C17.9895 42.3623 17.9788 42.3556 17.9681 42.3489C17.4981 42.0554 16.8198 41.6134 16.0027 41.0282C14.3662 39.8561 12.1852 38.1185 10.008 35.8595C5.63702 31.3245 1.4 24.8173 1.4 16.6486C1.4 8.32793 8.72719 1.4 18 1.4C27.2728 1.4 34.6 8.32793 34.6 16.6486Z" fill="#FFEC43" stroke="#1E232C" stroke-width="2.8"/>
<path fill-rule="evenodd" clip-rule="evenodd" d="M21.5046 12C20.9097 12 20.3215 12.1229 19.7739 12.3606C19.2263 12.5984 18.7308 12.946 18.315 13.3819C18.1434 13.5618 17.8561 13.5617 17.6845 13.3818C16.8442 12.5013 15.6976 12.0004 14.4951 12.0004C13.2925 12.0004 12.1459 12.5013 11.3057 13.3818C10.4664 14.2613 10 15.4477 10 16.6787C10 17.9098 10.4664 19.0962 11.3057 19.9756L16.4041 25.3182C17.2716 26.2273 18.728 26.2273 19.5955 25.3182L24.6938 19.9757C25.1098 19.5401 25.4382 19.0245 25.6618 18.4592C25.8853 17.8938 26 17.2889 26 16.6787C26 16.0685 25.8853 15.4636 25.6618 14.8983C25.4383 14.3331 25.1099 13.8175 24.694 13.3819C24.2783 12.946 23.7828 12.5984 23.2353 12.3606C22.6876 12.1229 22.0994 12 21.5046 12Z" fill="white"/>
</svg>
