<svg width="874" height="812" viewBox="0 0 874 912" fill="none" xmlns="http://www.w3.org/2000/svg">
<path d="M1 20C1 9.50655 9.50659 1 20 1H854C864.493 1 873 9.50659 873 20V874.378L834.273 910.63L796.596 875.361C795.442 874.281 793.649 874.281 792.495 875.361L755.502 909.991C755.117 910.35 754.519 910.35 754.135 909.991L717.141 875.361C715.988 874.281 714.194 874.281 713.041 875.361L676.047 909.991C675.663 910.35 675.065 910.35 674.68 909.991L637.686 875.361C636.533 874.281 634.74 874.281 633.586 875.361L596.592 909.991C596.208 910.35 595.61 910.35 595.226 909.991L558.232 875.361C557.078 874.281 555.285 874.281 554.132 875.361L517.138 909.991C516.753 910.35 516.156 910.35 515.771 909.991L478.777 875.361C477.624 874.281 475.831 874.281 474.677 875.361L437.683 909.991C437.299 910.35 436.701 910.35 436.317 909.991L399.323 875.361C398.169 874.281 396.376 874.281 395.223 875.361L358.229 909.991C357.844 910.35 357.247 910.35 356.862 909.991L319.868 875.361C318.715 874.281 316.921 874.281 315.768 875.361L278.774 909.991C278.39 910.35 277.792 910.35 277.407 909.991L240.414 875.361C239.26 874.281 237.467 874.281 236.313 875.361L199.32 909.991C198.935 910.35 198.337 910.35 197.953 909.991L160.959 875.361C159.806 874.281 158.012 874.281 156.859 875.361L119.865 909.991C119.481 910.35 118.883 910.35 118.498 909.991L81.5047 875.361C80.3512 874.281 78.5579 874.281 77.4044 875.361L39.7273 910.63L1 874.378V20Z" fill="#FFF5F9" stroke="#1E232C" stroke-width="2"/>
</svg>
