<svg width="336" height="830" viewBox="0 0 336 830" fill="none" xmlns="http://www.w3.org/2000/svg">
<path d="M1 20C1 9.5066 9.50659 1 20 1H316C326.493 1 335 9.50659 335 20V815.279L320.727 828.631L307.504 816.261C306.351 815.182 304.558 815.182 303.405 816.261L290.865 827.992C290.481 828.351 289.883 828.351 289.499 827.992L276.958 816.261C275.805 815.182 274.013 815.182 272.86 816.261L260.32 827.992C259.935 828.351 259.338 828.351 258.953 827.992L246.413 816.261C245.26 815.182 243.467 815.182 242.314 816.261L229.774 827.992C229.39 828.351 228.792 828.351 228.408 827.992L215.868 816.261C214.714 815.182 212.922 815.182 211.769 816.261L199.229 827.992C198.844 828.351 198.247 828.351 197.862 827.992L185.322 816.261C184.169 815.182 182.377 815.182 181.223 816.261L168.683 827.992C168.299 828.351 167.701 828.351 167.317 827.992L154.777 816.261C153.623 815.182 151.831 815.182 150.678 816.261L138.138 827.992C137.753 828.351 137.156 828.351 136.771 827.992L124.231 816.261C123.078 815.182 121.286 815.182 120.132 816.261L107.592 827.992C107.208 828.351 106.61 828.351 106.226 827.992L93.6858 816.261C92.5325 815.182 90.7402 815.182 89.5869 816.261L77.0468 827.992C76.6623 828.351 76.0649 828.351 75.6805 827.992L63.1403 816.261C61.987 815.182 60.1948 815.182 59.0415 816.261L46.5013 827.992C46.1169 828.351 45.5195 828.351 45.135 827.992L32.5949 816.261C31.4416 815.182 29.6493 815.182 28.496 816.261L15.2727 828.631L1 815.279V20Z" fill="#FFF5F9" stroke="#1E232C" stroke-width="2"/>
</svg>
