<svg width="42" height="42" viewBox="0 0 42 42" fill="none" xmlns="http://www.w3.org/2000/svg">
<path d="M12.5065 23.4459C13.8578 23.4459 14.9532 22.3504 14.9532 20.9992C14.9532 19.6479 13.8578 18.5524 12.5065 18.5524C11.1552 18.5524 10.0598 19.6479 10.0598 20.9992C10.0598 22.3504 11.1552 23.4459 12.5065 23.4459Z" fill="#E2E2E2" stroke="#1E232C" stroke-width="1.4"/>
<path d="M20.9999 23.4459C22.3512 23.4459 23.4466 22.3504 23.4466 20.9992C23.4466 19.6479 22.3512 18.5524 20.9999 18.5524C19.6486 18.5524 18.5532 19.6479 18.5532 20.9992C18.5532 22.3504 19.6486 23.4459 20.9999 23.4459Z" fill="#E2E2E2" stroke="#1E232C" stroke-width="1.4"/>
<path d="M29.4935 23.4459C30.8448 23.4459 31.9403 22.3504 31.9403 20.9992C31.9403 19.6479 30.8448 18.5524 29.4935 18.5524C28.1423 18.5524 27.0468 19.6479 27.0468 20.9992C27.0468 22.3504 28.1423 23.4459 29.4935 23.4459Z" fill="#E2E2E2" stroke="#1E232C" stroke-width="1.4"/>
</svg>
