<svg width="26" height="26" viewBox="0 0 26 26" fill="none" xmlns="http://www.w3.org/2000/svg">
<path fill-rule="evenodd" clip-rule="evenodd" d="M13 1C11.2327 1 9.8 2.43269 9.8 4.2V9.8H4.2C2.43269 9.8 1 11.2327 1 13C1 14.7673 2.43269 16.2 4.2 16.2H9.8V21.8C9.8 23.5673 11.2327 25 13 25C14.7673 25 16.2 23.5673 16.2 21.8V16.2H21.8C23.5673 16.2 25 14.7673 25 13C25 11.2327 23.5673 9.8 21.8 9.8H16.2V4.2C16.2 2.43269 14.7673 1 13 1Z" fill="#6DF9EB"/>
<path d="M9.8 9.8V10.5H10.5V9.8H9.8ZM4.2 16.2L4.2 16.9H4.2V16.2ZM9.8 16.2H10.5V15.5H9.8V16.2ZM16.2 16.2V15.5H15.5V16.2H16.2ZM16.2 9.8H15.5V10.5H16.2V9.8ZM10.5 4.2C10.5 2.81929 11.6193 1.7 13 1.7V0.3C10.8461 0.3 9.1 2.04609 9.1 4.2H10.5ZM10.5 9.8V4.2H9.1V9.8H10.5ZM4.2 10.5H9.8V9.1H4.2V10.5ZM1.7 13C1.7 11.6193 2.81929 10.5 4.2 10.5V9.1C2.04609 9.1 0.3 10.8461 0.3 13H1.7ZM4.2 15.5C2.81929 15.5 1.7 14.3807 1.7 13H0.3C0.3 15.1539 2.04609 16.9 4.2 16.9L4.2 15.5ZM9.8 15.5H4.2V16.9H9.8V15.5ZM10.5 21.8V16.2H9.1V21.8H10.5ZM13 24.3C11.6193 24.3 10.5 23.1807 10.5 21.8H9.1C9.1 23.9539 10.8461 25.7 13 25.7V24.3ZM15.5 21.8C15.5 23.1807 14.3807 24.3 13 24.3V25.7C15.1539 25.7 16.9 23.9539 16.9 21.8H15.5ZM15.5 16.2V21.8H16.9V16.2H15.5ZM21.8 15.5H16.2V16.9H21.8V15.5ZM24.3 13C24.3 14.3807 23.1807 15.5 21.8 15.5V16.9C23.9539 16.9 25.7 15.1539 25.7 13H24.3ZM21.8 10.5C23.1807 10.5 24.3 11.6193 24.3 13H25.7C25.7 10.8461 23.9539 9.1 21.8 9.1V10.5ZM16.2 10.5H21.8V9.1H16.2V10.5ZM15.5 4.2V9.8H16.9V4.2H15.5ZM13 1.7C14.3807 1.7 15.5 2.81929 15.5 4.2H16.9C16.9 2.04609 15.1539 0.3 13 0.3V1.7Z" fill="black"/>
</svg>
