<svg width="22" height="22" viewBox="0 0 22 22" fill="none" xmlns="http://www.w3.org/2000/svg">
<path fill-rule="evenodd" clip-rule="evenodd" d="M13.2753 2.28882C12.2109 0.570393 9.78902 0.570393 8.72474 2.28882L6.93836 5.17301C6.77185 5.44178 6.51417 5.63595 6.21628 5.71708L3.01921 6.58766C1.11438 7.10643 0.365966 9.49517 1.61301 11.0759L3.70605 13.729C3.90109 13.9763 3.99951 14.2904 3.98185 14.6093L3.79231 18.0316C3.67938 20.0706 5.63877 21.547 7.47383 20.8055L10.5538 19.561C10.8407 19.4451 11.1592 19.4451 11.4462 19.561L14.5262 20.8055C16.3612 21.547 18.3206 20.0706 18.2077 18.0316L18.0181 14.6093C18.0005 14.2904 18.0989 13.9763 18.294 13.729L20.387 11.0759C21.634 9.49517 20.8856 7.10643 18.9807 6.58766L15.7837 5.71708C15.4858 5.63595 15.2281 5.44178 15.0617 5.17301L13.2753 2.28882Z" fill="#FDE078" stroke="#1E232C" stroke-width="1.4"/>
</svg>
