<svg width="9" height="7" viewBox="0 0 9 7" fill="none" xmlns="http://www.w3.org/2000/svg">
<path d="M3.52839 5.23985L0.717358 3.27163C0.651147 3.23347 0.596278 3.17915 0.558162 3.11401C0.520046 3.04888 0.5 2.97518 0.5 2.90018C0.5 2.82519 0.520046 2.75149 0.558162 2.68635C0.596278 2.62122 0.651147 2.56689 0.717358 2.52874L3.52839 0.559311C3.5954 0.520878 3.67164 0.500417 3.74938 0.500006C3.82712 0.499595 3.90359 0.519248 3.97102 0.556971C4.03846 0.594694 4.09445 0.649142 4.13333 0.71479C4.17221 0.780438 4.19258 0.854947 4.19238 0.930754V1.69944C5.11544 1.69944 7.88463 1.69944 8.5 6.5C6.96156 3.79969 4.19238 4.09972 4.19238 4.09972V4.86841C4.19238 5.20445 3.81946 5.40727 3.52839 5.24045V5.23985Z" fill="black"/>
</svg>
