<svg width="20" height="20" viewBox="0 0 20 20" fill="none" xmlns="http://www.w3.org/2000/svg">
<rect x="2.5" y="1" width="16" height="18" fill="#DEFCF9"/>
<path fill-rule="evenodd" clip-rule="evenodd" d="M8.5 10.332V1H9.66667V9.1548L11.7002 7.759C11.7908 7.69697 11.8944 7.66421 12 7.66421C12.1056 7.66421 12.2092 7.69697 12.2998 7.759L14.3333 9.1548V1H15.5V10.332C15.5 10.4499 15.4727 10.5657 15.4207 10.6676C15.3688 10.7695 15.2941 10.8539 15.2043 10.912C15.1145 10.9702 15.0128 11 14.9096 10.9986C14.8064 10.9972 14.7054 10.9645 14.6168 10.9039L12 9.10947L9.38317 10.9052C9.29455 10.9659 9.19342 10.9986 9.09012 11C8.98682 11.0013 8.88505 10.9713 8.79522 10.913C8.70539 10.8547 8.63072 10.7702 8.57885 10.6681C8.52698 10.566 8.49977 10.45 8.5 10.332Z" fill="#1E232C"/>
<path d="M4.07143 0H16.9286C17.6106 0 18.2646 0.263392 18.7468 0.732233C19.2291 1.20107 19.5 1.83696 19.5 2.5V17.5C19.5 18.163 19.2291 18.7989 18.7468 19.2678C18.2646 19.7366 17.6106 20 16.9286 20H4.07143C3.38944 20 2.73539 19.7366 2.25315 19.2678C1.77092 18.7989 1.5 18.163 1.5 17.5V16.25H2.78571V17.5C2.78571 17.8315 2.92117 18.1495 3.16229 18.3839C3.40341 18.6183 3.73044 18.75 4.07143 18.75H16.9286C17.2696 18.75 17.5966 18.6183 17.8377 18.3839C18.0788 18.1495 18.2143 17.8315 18.2143 17.5V2.5C18.2143 2.16848 18.0788 1.85054 17.8377 1.61612C17.5966 1.3817 17.2696 1.25 16.9286 1.25H4.07143C3.73044 1.25 3.40341 1.3817 3.16229 1.61612C2.92117 1.85054 2.78571 2.16848 2.78571 2.5V3.75H1.5V2.5C1.5 1.83696 1.77092 1.20107 2.25315 0.732233C2.73539 0.263392 3.38944 0 4.07143 0Z" fill="#1E232C"/>
<path d="M1.83333 6.25V5.625C1.83333 5.45924 1.90357 5.30027 2.0286 5.18306C2.15362 5.06585 2.32319 5 2.5 5C2.67681 5 2.84638 5.06585 2.9714 5.18306C3.09643 5.30027 3.16667 5.45924 3.16667 5.625V6.25H3.83333C4.01014 6.25 4.17971 6.31585 4.30474 6.43306C4.42976 6.55027 4.5 6.70924 4.5 6.875C4.5 7.04076 4.42976 7.19973 4.30474 7.31694C4.17971 7.43415 4.01014 7.5 3.83333 7.5H1.16667C0.989856 7.5 0.820286 7.43415 0.695262 7.31694C0.570238 7.19973 0.5 7.04076 0.5 6.875C0.5 6.70924 0.570238 6.55027 0.695262 6.43306C0.820286 6.31585 0.989856 6.25 1.16667 6.25H1.83333ZM1.83333 10V9.375C1.83333 9.20924 1.90357 9.05027 2.0286 8.93306C2.15362 8.81585 2.32319 8.75 2.5 8.75C2.67681 8.75 2.84638 8.81585 2.9714 8.93306C3.09643 9.05027 3.16667 9.20924 3.16667 9.375V10H3.83333C4.01014 10 4.17971 10.0658 4.30474 10.1831C4.42976 10.3003 4.5 10.4592 4.5 10.625C4.5 10.7908 4.42976 10.9497 4.30474 11.0669C4.17971 11.1842 4.01014 11.25 3.83333 11.25H1.16667C0.989856 11.25 0.820286 11.1842 0.695262 11.0669C0.570238 10.9497 0.5 10.7908 0.5 10.625C0.5 10.4592 0.570238 10.3003 0.695262 10.1831C0.820286 10.0658 0.989856 10 1.16667 10H1.83333ZM1.83333 13.75V13.125C1.83333 12.9592 1.90357 12.8003 2.0286 12.6831C2.15362 12.5658 2.32319 12.5 2.5 12.5C2.67681 12.5 2.84638 12.5658 2.9714 12.6831C3.09643 12.8003 3.16667 12.9592 3.16667 13.125V13.75H3.83333C4.01014 13.75 4.17971 13.8158 4.30474 13.9331C4.42976 14.0503 4.5 14.2092 4.5 14.375C4.5 14.5408 4.42976 14.6997 4.30474 14.8169C4.17971 14.9342 4.01014 15 3.83333 15H1.16667C0.989856 15 0.820286 14.9342 0.695262 14.8169C0.570238 14.6997 0.5 14.5408 0.5 14.375C0.5 14.2092 0.570238 14.0503 0.695262 13.9331C0.820286 13.8158 0.989856 13.75 1.16667 13.75H1.83333Z" fill="#1E232C"/>
</svg>
