<svg width="18" height="18" viewBox="0 0 18 18" fill="none" xmlns="http://www.w3.org/2000/svg">
<path d="M8.25747 3.42871L8.25746 3.42873L7.007 5.44766L7.00693 5.44777C6.76068 5.84525 6.37333 6.14176 5.91417 6.26681L5.91413 6.26682L3.67622 6.87622C3.67621 6.87622 3.6762 6.87622 3.67619 6.87623C3.0688 7.04168 2.76284 7.86161 3.2142 8.43374L3.21421 8.43375L4.67934 10.291L4.67941 10.2911C4.96916 10.6584 5.11139 11.119 5.08577 11.5818L5.08577 11.5818L4.95308 13.9774C4.91114 14.7348 5.60836 15.1584 6.15704 14.9367L6.53168 15.8639L6.15704 14.9367L8.31299 14.0655L8.31303 14.0655C8.75421 13.8873 9.24577 13.8873 9.68694 14.0655L9.68697 14.0655L11.843 14.9367L11.843 14.9367C12.3916 15.1584 13.0889 14.7348 13.0469 13.9774L12.9142 11.5818L12.9142 11.5818C12.8886 11.119 13.0308 10.6584 13.3207 10.291C13.3207 10.291 13.3207 10.2909 13.3207 10.2909L14.7858 8.43376L14.7858 8.43374C15.2372 7.8616 14.9312 7.04167 14.3238 6.87623C14.3238 6.87622 14.3238 6.87622 14.3238 6.87622L12.0858 6.26682L12.0858 6.26681C11.6267 6.14178 11.2393 5.84529 10.993 5.44766L8.25747 3.42871ZM8.25747 3.42871C8.61147 2.85713 9.38848 2.85706 9.74258 3.42873C9.74258 3.42873 9.74259 3.42873 9.74259 3.42874L10.993 5.44757L8.25747 3.42871Z" fill="#FDE078" stroke="#1E232C" stroke-width="2"/>
</svg>
