<svg width="40" height="42" viewBox="0 0 40 42" fill="none" xmlns="http://www.w3.org/2000/svg">
<path d="M14.7145 28.663L14.7146 28.6629C15.0814 28.5195 15.4813 28.5608 15.8054 28.7442L15.8056 28.7443C17.1163 29.4862 18.6293 29.9096 20.2425 29.9096C25.2416 29.9096 29.3 25.8364 29.3 20.8047C29.3 15.7732 25.2416 11.7 20.2425 11.7C15.2433 11.7 11.185 15.7732 11.185 20.8047C11.185 22.6464 11.4724 24.0477 12.3054 25.387M14.7145 28.663L12.3054 25.387M14.7145 28.663L10.825 30.1839L12.3971 26.5788C12.3971 26.5788 12.3971 26.5788 12.3971 26.5788M14.7145 28.663L12.3971 26.5788M12.3054 25.387C12.5209 25.7335 12.5716 26.1786 12.3971 26.5788M12.3054 25.387L12.3971 26.5788" fill="#9DF8A6" stroke="black" stroke-width="1.4"/>
<path d="M24 19.1562C24.5523 19.1562 25 19.604 25 20.1562V21.1562C25 21.7085 24.5523 22.1562 24 22.1562C23.4477 22.1562 23 21.7085 23 21.1562V20.1562C23 19.604 23.4477 19.1562 24 19.1562Z" fill="white"/>
<path d="M20 19.1562C20.5523 19.1562 21 19.604 21 20.1562V21.1562C21 21.7085 20.5523 22.1562 20 22.1562C19.4477 22.1562 19 21.7085 19 21.1562V20.1562C19 19.604 19.4477 19.1562 20 19.1562Z" fill="white"/>
<path d="M16 19.1562C16.5523 19.1562 17 19.604 17 20.1562V21.1562C17 21.7085 16.5523 22.1562 16 22.1562C15.4477 22.1562 15 21.7085 15 21.1562V20.1562C15 19.604 15.4477 19.1562 16 19.1562Z" fill="white"/>
</svg>
