<svg width="94" height="40" viewBox="0 0 94 40" fill="none" xmlns="http://www.w3.org/2000/svg">
<path d="M88.3299 32.5853L89.1387 33.1735L88.3299 32.5854C87.8862 33.1955 87.8235 34.0034 88.1679 34.6747L89.0577 34.2182L88.1679 34.6747L89.9367 38.1221L1.17918 30.0667L3.92929 25.6036C4.37922 24.8734 4.31349 23.9376 3.76591 23.2775L1.27657 20.2766L4.59464 16.4706C5.13243 15.8538 5.24015 14.9715 4.86657 14.2434L2.63716 9.89806L5.29279 7.35454C5.91097 6.76245 6.08382 5.84259 5.72273 5.06649L3.92215 1.19646L92.7113 9.25476L89.4894 14.1889C89.0462 14.8676 89.0565 15.7466 89.5154 16.4148L90.3397 15.8486L89.5154 16.4148L92.8692 21.2974L89.2785 23.9971C88.3657 24.6834 88.212 25.9935 88.9411 26.8725L90.8293 29.1488L88.3299 32.5853Z" fill="#FFD0EC" stroke="#1E232C" stroke-width="2"/>
</svg>
