<svg width="64" height="70" viewBox="0 0 64 70" fill="none" xmlns="http://www.w3.org/2000/svg">
<g filter="url(#filter0_d_1134_12235)">
<path d="M49.8398 14.2055L51.8749 12.1738" stroke="#1E232C" stroke-width="8" stroke-linecap="round" stroke-linejoin="round"/>
<path d="M49.8398 14.2055L51.8749 12.1738" stroke="#FFD0EC" stroke-width="4" stroke-linecap="round" stroke-linejoin="round"/>
<path d="M30 64.9997C46.0163 64.9997 59 52.0372 59 36.0472C59 20.0572 46.0163 7.09473 30 7.09473C13.9837 7.09473 1 20.0572 1 36.0472C1 52.0372 13.9837 64.9997 30 64.9997Z" fill="#FFD0EC" stroke="#1E232C" stroke-width="2"/>
<path d="M29.9995 58.9034C42.6435 58.9034 52.8935 48.6702 52.8935 36.0469C52.8935 23.4236 42.6435 13.1904 29.9995 13.1904C17.3555 13.1904 7.10547 23.4236 7.10547 36.0469C7.10547 48.6702 17.3555 58.9034 29.9995 58.9034Z" fill="#CADEFC" fill-opacity="0.98" stroke="#1E232C" stroke-width="2"/>
<path d="M33.5601 1H27.4551" stroke="#1E232C" stroke-width="2" stroke-linecap="round" stroke-linejoin="round"/>
<path d="M30.5078 1V7.09506" stroke="#1E232C" stroke-width="2" stroke-linecap="round" stroke-linejoin="round"/>
<path d="M29.4902 35.5384L29.4902 20.3008" stroke="#F8F8FA" stroke-width="4" stroke-linecap="round" stroke-linejoin="round"/>
<path d="M29.1719 36.0461L19.3145 30.46" stroke="#F8F8FA" stroke-width="4" stroke-linecap="round" stroke-linejoin="round"/>
</g>
<defs>
<filter id="filter0_d_1134_12235" x="0" y="0" width="64" height="69.9995" filterUnits="userSpaceOnUse" color-interpolation-filters="sRGB">
<feFlood flood-opacity="0" result="BackgroundImageFix"/>
<feColorMatrix in="SourceAlpha" type="matrix" values="0 0 0 0 0 0 0 0 0 0 0 0 0 0 0 0 0 0 127 0" result="hardAlpha"/>
<feOffset dx="4" dy="4"/>
<feComposite in2="hardAlpha" operator="out"/>
<feColorMatrix type="matrix" values="0 0 0 0 0 0 0 0 0 0 0 0 0 0 0 0 0 0 0.25 0"/>
<feBlend mode="normal" in2="BackgroundImageFix" result="effect1_dropShadow_1134_12235"/>
<feBlend mode="normal" in="SourceGraphic" in2="effect1_dropShadow_1134_12235" result="shape"/>
</filter>
</defs>
</svg>
