<svg width="50" height="43" viewBox="0 0 50 43" fill="none" xmlns="http://www.w3.org/2000/svg">
<path d="M4.72363 37V21C4.72363 17.6375 7.07572 15 10.5524 15L40.649 15C42.4051 15 43.6279 15.6611 44.4346 16.6751C45.265 17.7189 45.7236 19.2282 45.7236 21V21.0389V21.0777V21.1164V21.1551V21.1937V21.2322V21.2707V21.3091V21.3474V21.3857V21.4239V21.4621V21.5002V21.5382V21.5761V21.614V21.6519V21.6896V21.7274V21.765V21.8026V21.8401V21.8776V21.915V21.9523V21.9896V22.0268V22.064V22.1011V22.1381V22.1751V22.2121V22.2489V22.2857V22.3225V22.3592V22.3958V22.4324V22.4689V22.5054V22.5418V22.5781V22.6144V22.6507V22.6869V22.723V22.7591V22.7951V22.8311V22.867V22.9029V22.9387V22.9744V23.0101V23.0458V23.0814V23.1169V23.1524V23.1878V23.2232V23.2586V23.2939V23.3291V23.3643V23.3994V23.4345V23.4695V23.5045V23.5395V23.5744V23.6092V23.644V23.6787V23.7134V23.7481V23.7827V23.8172V23.8517V23.8862V23.9206V23.955V23.9893V24.0236V24.0578V24.092V24.1262V24.1603V24.1943V24.2283V24.2623V24.2962V24.3301V24.364V24.3978V24.4315V24.4652V24.4989V24.5325V24.5661V24.5997V24.6332V24.6666V24.7001V24.7335V24.7668V24.8001V24.8334V24.8666V24.8998V24.933V24.9661V24.9991V25.0322V25.0652V25.0982V25.1311V25.164V25.1968V25.2297V25.2624V25.2952V25.3279V25.3606V25.3932V25.4258V25.4584V25.4909V25.5235V25.5559V25.5884V25.6208V25.6532V25.6855V25.7178V25.7501V25.7823V25.8146V25.8467V25.8789V25.911V25.9431V25.9752V26.0072V26.0392V26.0712V26.1031V26.1351V26.1669V26.1988V26.2306V26.2624V26.2942V26.326V26.3577V26.3894V26.4211V26.4527V26.4843V26.5159V26.5475V26.579V26.6106V26.6421V26.6735V26.705V26.7364V26.7678V26.7992V26.8305V26.8619V26.8932V26.9244V26.9557V26.987V27.0182V27.0494V27.0806V27.1117V27.1429V27.174V27.2051V27.2361V27.2672V27.2982V27.3293V27.3603V27.3913V27.4222V27.4532V27.4841V27.515V27.5459V27.5768V27.6077V27.6385V27.6693V27.7002V27.731V27.7617V27.7925V27.8233V27.854V27.8847V27.9155V27.9462V27.9768V28.0075V28.0382V28.0688V28.0995V28.1301V28.1607V28.1913V28.2219V28.2525V28.283V28.3136V28.3441V28.3747V28.4052V28.4357V28.4662V28.4967V28.5272V28.5577V28.5882V28.6187V28.6491V28.6796V28.71V28.7405V28.7709V28.8013V28.8317V28.8622V28.8926V28.923V28.9534V28.9838V29.0142V29.0445V29.0749V29.1053V29.1357V29.166V29.1964V29.2268V29.2571V29.2875V29.3179V29.3482V29.3786V29.4089V29.4393V29.4697V29.5V29.5304V29.5607V29.5911V29.6214V29.6518V29.6821V29.7125V29.7429V29.7732V29.8036V29.834V29.8643V29.8947V29.9251V29.9555V29.9859V30.0163V30.0466V30.077V30.1074V30.1379V30.1683V30.1987V30.2291V30.2596V30.29V30.3204V30.3509V30.3814V30.4118V30.4423V30.4728V30.5033V30.5338V30.5643V30.5948V30.6253V30.6559V30.6864V30.717V30.7475V30.7781V30.8087V30.8393V30.8699V30.9006V30.9312V30.9618V30.9925V31.0232V31.0539V31.0846V31.1153V31.146V31.1767V31.2075V31.2383V31.2691V31.2999V31.3307V31.3615V31.3924V31.4232V31.4541V31.485V31.5159V31.5468V31.5778V31.6088V31.6397V31.6707V31.7018V31.7328V31.7639V31.7949V31.826V31.8572V31.8883V31.9195V31.9506V31.9818V32.0131V32.0443V32.0756V32.1068V32.1382V32.1695V32.2008V32.2322V32.2636V32.295V32.3265V32.358V32.3895V32.421V32.4525V32.4841V32.5157V32.5473V32.5789V32.6106V32.6423V32.674V32.7058V32.7376V32.7694V32.8012V32.8331V32.865V32.8969V32.9288V32.9608V32.9928V33.0248V33.0569V33.089V33.1211V33.1533V33.1855V33.2177V33.2499V33.2822V33.3145V33.3469V33.3792V33.4116V33.4441V33.4766V33.5091V33.5416V33.5742V33.6068V33.6394V33.6721V33.7048V33.7376V33.7704V33.8032V33.836V33.8689V33.9019V33.9348V33.9678V34.0009V34.0339V34.0671V34.1002V34.1334V34.1666V34.1999V34.2332V34.2666V34.2999V34.3334V34.3668V34.4003V34.4339V34.4675V34.5011V34.5348V34.5685V34.6023V34.6361V34.6699V34.7038V34.7377V34.7717V34.8057V34.8397V34.8738V34.908V34.9422V34.9764V35.0107V35.045V35.0794V35.1138V35.1483V35.1828V35.2173V35.2519V35.2866V35.3213V35.356V35.3908V35.4257V35.4606V35.4955V35.5305V35.5655V35.6006V35.6357V35.6709V35.7062V35.7414V35.7768V35.8122V35.8476V35.8831V35.9187V35.9543V35.9899V36.0256V36.0614V36.0972V36.133V36.1689V36.2049V36.2409V36.277V36.3131V36.3493V36.3856V36.4219V36.4582V36.4946V36.5311V36.5676V36.6042V36.6408V36.6775V36.7143V36.7511V36.788V36.8249V36.8619V36.8989V36.936V36.9732V37H4.72363Z" fill="#F9CADE" stroke="#1E232C" stroke-width="2"/>
<path d="M25.1124 0C20.6201 0 16.9814 3.77069 16.9814 8.42611C16.9814 10.6801 17.8555 12.7024 19.2378 14.2191V35.4529H21.2705V17.7159H21.2096V13.229C19.8679 12.0704 19.0142 10.3431 19.0142 8.40505C19.0142 4.92928 21.7584 2.08546 25.1124 2.08546C28.4664 2.08546 31.2106 4.92928 31.2106 8.40505C31.2106 10.3852 30.3162 12.1336 28.934 13.2922V15.799C28.934 15.799 28.934 15.799 28.9543 15.799V35.4529H30.987V14.2191C32.3693 12.7024 33.2434 10.6801 33.2434 8.42611C33.2434 3.77069 29.6048 0 25.1124 0Z" fill="#221E1F"/>
<path d="M5.446 42C3.00176 42 1 40.005 1 37.5691C1 35.1331 3.00176 33.1381 5.446 33.1381H44.554C46.9982 33.1381 49 35.1331 49 37.5691C49 40.005 46.9982 42 44.554 42H5.446Z" fill="#E89FBE" stroke="#1E232C" stroke-width="2"/>
</svg>
