<svg width="37" height="28" viewBox="0 0 37 28" fill="none" xmlns="http://www.w3.org/2000/svg">
<path d="M13.0459 24.9915C15.0983 25.0595 17.1436 24.7193 19.061 23.9911C20.9784 23.2628 22.7289 22.1613 24.2092 20.7515C25.6894 19.3418 26.8694 17.6524 27.6792 15.7833C28.4891 13.9142 28.9124 11.9033 28.9243 9.86938C29.8648 8.71654 30.5632 7.38912 30.9785 5.96513C31.0095 5.85262 31.007 5.73364 30.9713 5.62251C30.9356 5.51138 30.8682 5.41284 30.7773 5.33875C30.6863 5.26467 30.5757 5.2182 30.4587 5.20494C30.3418 5.19168 30.2234 5.21219 30.1179 5.26401C29.6259 5.49862 29.0719 5.5744 28.534 5.48068C27.9962 5.38696 27.5016 5.12847 27.1199 4.74161C26.6327 4.21313 26.0433 3.7869 25.3867 3.48817C24.7301 3.18943 24.0196 3.02427 23.2974 3.00248C22.5751 2.98069 21.8558 3.1027 21.1821 3.36129C20.5083 3.61988 19.8938 4.00979 19.375 4.50791C18.6646 5.18931 18.1443 6.04114 17.8646 6.98061C17.585 7.92009 17.5554 8.91525 17.7789 9.86938C13.1291 10.1443 9.93681 7.9585 7.38295 4.96157C7.30622 4.87551 7.20586 4.81345 7.09411 4.78295C6.98237 4.75245 6.86407 4.75485 6.75367 4.78984C6.64328 4.82483 6.54556 4.8909 6.47245 4.97999C6.39933 5.06908 6.354 5.17732 6.34197 5.29151C5.85544 7.96458 6.2064 10.7211 7.34772 13.1908C8.48903 15.6606 10.366 17.7253 12.7266 19.1076C11.1438 20.9055 8.92111 22.0285 6.5224 22.242C6.39389 22.2631 6.27526 22.3235 6.18312 22.4147C6.09097 22.5059 6.02991 22.6233 6.0085 22.7506C5.98708 22.8779 6.00638 23.0086 6.06368 23.1245C6.12099 23.2403 6.21344 23.3355 6.32809 23.3968C8.41493 24.4297 10.713 24.9753 13.0459 24.9915Z" fill="#90E3FB" stroke="#1E232C" stroke-width="2"/>
</svg>
