<svg width="40" height="40" viewBox="0 0 40 40" fill="none" xmlns="http://www.w3.org/2000/svg">
<path fill-rule="evenodd" clip-rule="evenodd" d="M40 20C40 31.0457 31.0457 40 20 40C8.9543 40 0 31.0457 0 20C0 8.9543 8.9543 0 20 0C31.0457 0 40 8.9543 40 20ZM30.7636 16.5161C30.7636 23.442 25.4904 31.4333 15.8464 31.4333C12.889 31.4333 10.1274 30.5635 7.83325 29.0631C8.24641 29.1175 8.65957 29.1392 9.0836 29.1392C11.5408 29.1392 13.8023 28.302 15.5963 26.8995C13.3022 26.856 11.3668 25.3447 10.7036 23.2571C11.0298 23.3224 11.356 23.355 11.693 23.355C12.1714 23.355 12.6389 23.2898 13.0738 23.1702C10.671 22.6809 8.86615 20.5716 8.86615 18.0274V17.9622C9.57287 18.3536 10.3774 18.5928 11.2364 18.6145C9.82294 17.6795 8.89877 16.0704 8.89877 14.2546C8.89877 13.2978 9.15971 12.3954 9.60548 11.6235C12.1932 14.7983 16.0529 16.8858 20.4128 17.1032C20.315 16.7227 20.2715 16.3204 20.2715 15.9073C20.2715 13.0152 22.62 10.6667 25.5121 10.6667C27.0234 10.6667 28.3825 11.2973 29.3393 12.3193C30.5352 12.0801 31.6551 11.6452 32.6663 11.0472C32.2749 12.2758 31.4485 13.2978 30.3613 13.9502C31.4268 13.8197 32.4379 13.537 33.373 13.1239C32.6663 14.1785 31.7747 15.1027 30.7527 15.842C30.7636 16.0595 30.7636 16.2878 30.7636 16.5161Z" fill="#1DA1F2"/>
</svg>
