<svg width="70" height="70" viewBox="0 0 70 70" fill="none" xmlns="http://www.w3.org/2000/svg">
<circle cx="35" cy="35" r="34" fill="#F8F8FA" stroke="#1E232C" stroke-width="2"/>
<path fill-rule="evenodd" clip-rule="evenodd" d="M26.75 26.0156C26.75 21.5887 30.3387 18 34.7657 18C39.1926 18 42.7814 21.5887 42.7814 26.0156C42.7814 30.4426 39.1926 34.0312 34.7657 34.0312C30.3387 34.0312 26.75 30.4426 26.75 26.0156Z" fill="#1E232C" fill-opacity="0.3"/>
<path fill-rule="evenodd" clip-rule="evenodd" d="M20 41.2632C20 36.7046 24.7387 33.6924 28.8663 35.6271L30.2617 36.2813C33.1153 37.6188 36.4159 37.6188 39.2695 36.2813L40.665 35.6271C44.7925 33.6924 49.5313 36.7046 49.5313 41.2632C49.5313 47.4395 44.5243 52.4465 38.3479 52.4465H31.1833C25.0069 52.4465 20 47.4395 20 41.2632Z" fill="#1E232C" fill-opacity="0.3"/>
</svg>
