<svg width="66" height="66" viewBox="0 0 66 66" fill="none" xmlns="http://www.w3.org/2000/svg">
<circle cx="33" cy="33" r="33" fill="#F8F8FA"/>
<path fill-rule="evenodd" clip-rule="evenodd" d="M24.7637 24.0029C24.7637 19.576 28.3524 15.9873 32.7794 15.9873C37.2063 15.9873 40.7951 19.576 40.7951 24.0029C40.7951 28.4299 37.2063 32.0185 32.7794 32.0185C28.3524 32.0185 24.7637 28.4299 24.7637 24.0029Z" fill="#1E232C" fill-opacity="0.3"/>
<path fill-rule="evenodd" clip-rule="evenodd" d="M18.0137 39.2505C18.0137 34.6919 22.7524 31.6797 26.8799 33.6144L28.2754 34.2686C31.129 35.6061 34.4296 35.6061 37.2832 34.2686L38.6786 33.6144C42.8062 31.6797 47.545 34.6919 47.545 39.2505C47.545 45.4268 42.538 50.4338 36.3616 50.4338H29.197C23.0206 50.4338 18.0137 45.4268 18.0137 39.2505Z" fill="#1E232C" fill-opacity="0.3"/>
</svg>
